<svg width="393" height="700" viewBox="0 0 393 700" fill="none" xmlns="http://www.w3.org/2000/svg">
<g opacity="0.77" clip-path="url(#clip0_8_435)">
<path d="M267.681 471.268C268.644 467.71 269.467 464.061 270.169 460.35L270.164 460.346C279.599 410.611 266.832 349.817 261.896 335.885C259.22 328.335 259.366 326.184 259.533 323.71L259.534 323.707C259.537 323.646 259.541 323.584 259.545 323.522C259.584 322.898 259.625 322.25 259.596 321.445V321.415C258.779 314.772 250.994 307.94 242.915 303.183C246.262 307.482 247.808 312.994 249.635 319.513L249.637 319.519L249.75 319.916C250.468 322.45 251.21 325.062 252.125 327.844C257.124 342.991 256.61 354.976 250.622 363.474C243.429 373.665 230.541 375.479 225.338 375.794C224.584 375.835 223.824 375.886 223.08 375.937C222.975 375.947 222.86 375.957 222.755 375.957C222.542 375.978 222.328 375.989 222.111 376.001C222.009 376.006 221.906 376.012 221.802 376.018C220.791 376.09 219.79 376.15 218.795 376.202H218.71C216.673 376.384 214.755 376.791 213.734 377.914C213.021 378.692 212.738 379.81 212.853 381.34C213.639 391.203 211.383 395.371 209.199 399.405L209.193 399.414C206.439 404.51 203.838 409.321 207.902 426.388C208.709 429.28 209.521 432.086 210.328 434.866C212.764 443.273 215.117 451.415 217.165 460.966C217.406 461.118 217.574 461.362 217.616 461.646C221.954 490.222 226.6 501.881 233.658 501.881C241.611 501.881 242.061 488.346 242.323 480.265C242.491 474.994 242.564 472.813 244.173 472.539C245.577 472.315 246.703 473.347 251.009 483.873C254.478 492.356 257.082 493.383 258.313 493.231C261.734 492.834 264.92 484.499 267.23 475.304C267.251 473.886 267.397 472.544 267.681 471.268Z" fill="#313131"/>
<path d="M183.656 426.393C183.656 426.373 183.667 426.332 183.667 426.332L183.661 426.337C187.695 409.315 185.107 404.507 182.356 399.419L182.355 399.415C180.171 395.381 177.914 391.213 178.689 381.35C178.81 379.82 178.522 378.707 177.809 377.924C176.783 376.801 174.881 376.405 172.853 376.221C172.79 376.212 172.738 376.212 172.675 376.212C171.732 376.161 170.773 376.1 169.809 376.028H169.725C169.228 375.998 168.735 375.978 168.264 375.937C168.237 375.937 168.212 375.934 168.188 375.932C168.165 375.929 168.142 375.927 168.117 375.927C167.902 375.913 167.686 375.898 167.472 375.884C167.05 375.855 166.628 375.825 166.205 375.805C160.997 375.49 148.109 373.675 140.931 363.484C134.933 354.986 134.419 343.001 139.417 327.855C140.392 324.922 141.162 322.187 141.906 319.529L141.917 319.489C143.751 312.986 145.302 307.485 148.638 303.193C140.507 307.981 132.68 314.853 131.936 321.537V321.567C131.926 322.306 131.967 322.914 132.005 323.495C132.01 323.57 132.015 323.644 132.02 323.717L132.021 323.741C132.178 326.206 132.315 328.367 129.657 335.896C124.36 350.869 110.01 419.948 123.867 471.233C124.161 472.529 124.308 473.881 124.329 475.309C126.639 484.504 129.83 492.839 133.235 493.236C134.476 493.388 137.07 492.367 140.539 483.879C144.845 473.358 145.987 472.32 147.375 472.544C148.984 472.819 149.057 474.998 149.235 480.267L149.236 480.269C149.497 488.351 149.937 501.887 157.89 501.887C164.942 501.887 169.594 490.227 173.943 461.652C173.985 461.367 174.153 461.123 174.383 460.981C176.442 451.42 178.794 443.288 181.23 434.871C182.037 432.091 182.849 429.285 183.656 426.393Z" fill="#313131"/>
<path d="M227.748 294.614C220.644 293.104 211.455 293.399 204.586 298.355C200.165 301.547 197.209 306.243 195.774 312.388C194.344 306.243 191.394 301.552 186.973 298.355C180.104 293.394 170.92 293.104 163.811 294.614C167.436 290.253 167.163 284.016 166.881 277.521C166.576 270.583 166.242 262.705 170.223 255.335C182.472 232.676 188.135 219.085 187.282 205.275C190.147 212.716 192.144 216.172 195.769 216.172C199.394 216.172 201.391 212.716 204.246 205.286C203.407 219.095 209.076 232.671 221.315 255.335C225.296 262.705 224.961 270.583 224.657 277.521C224.385 284.022 224.112 290.258 227.738 294.614H227.748Z" fill="#313131"/>
<path d="M194.732 357.243V322.162H194.726C194.726 311.758 191.693 304.296 185.715 299.976C178.653 294.873 168.798 295.178 161.94 297.176C160.866 297.485 159.866 297.831 158.933 298.197C158.922 298.207 158.912 298.207 158.901 298.217C158.551 298.36 158.205 298.502 157.869 298.654C157.844 298.663 157.819 298.672 157.794 298.683C157.756 298.699 157.718 298.717 157.681 298.736C148.793 302.806 146.79 309.906 143.941 320.002L143.794 320.525C143.081 323.055 142.345 325.672 141.419 328.464C136.63 342.986 137.049 354.371 142.661 362.33C149.325 371.779 161.437 373.472 166.331 373.767C166.619 373.787 166.905 373.805 167.192 373.823C167.479 373.84 167.766 373.858 168.054 373.879H168.201C168.725 373.929 169.285 373.96 169.862 373.99H169.903C169.982 373.995 170.063 373.999 170.145 374.004C170.249 374.009 170.354 374.015 170.459 374.021L170.566 374.026C171.382 374.065 172.23 374.106 173.073 374.183C173.105 374.183 173.147 374.194 173.178 374.194C180.172 374.57 186.486 374.397 190.362 370.88C193.312 368.211 194.732 363.754 194.732 357.243Z" fill="#313131"/>
<path d="M225.223 373.767C230.122 373.472 242.235 371.779 248.904 362.331H248.899C254.51 354.371 254.929 342.986 250.14 328.465C249.163 325.513 248.386 322.768 247.637 320.118L247.62 320.058C244.78 309.928 242.774 302.812 233.868 298.736C233.805 298.705 233.742 298.675 233.679 298.654C233.349 298.502 233.003 298.36 232.647 298.218C232.636 298.207 232.626 298.207 232.615 298.197C231.688 297.836 230.682 297.491 229.608 297.176C222.756 295.178 212.906 294.878 205.833 299.976C199.85 304.296 196.822 311.758 196.822 322.162V357.243C196.822 363.754 198.252 368.211 201.191 370.88C205.089 374.417 211.46 374.57 218.496 374.184C218.517 374.184 218.538 374.181 218.559 374.179C218.58 374.176 218.601 374.173 218.622 374.173C219.425 374.105 220.224 374.065 220.999 374.026L221.697 373.99C221.797 373.986 221.896 373.978 221.996 373.97C222.095 373.962 222.195 373.955 222.294 373.95C222.446 373.939 222.591 373.931 222.739 373.924C222.878 373.916 223.017 373.909 223.164 373.899C223.205 373.894 223.246 373.892 223.285 373.889C223.327 373.886 223.368 373.884 223.405 373.879H223.499C223.788 373.858 224.075 373.84 224.363 373.823C224.649 373.805 224.936 373.787 225.223 373.767Z" fill="#313131"/>
<path d="M272.986 180.636L273.003 180.553L272.998 180.543L273.006 180.508C274.623 172.976 276.294 165.189 272.757 162.941H272.747C270.017 161.711 267.324 160.131 264.804 158.082C260.697 154.748 256.715 151.749 252.849 148.847L252.636 148.687C246.721 144.233 241.105 140.004 235.643 134.976L235.507 135.129C223.384 156.979 215.997 174.194 211.104 186.82C210.38 188.716 209.705 190.5 209.076 192.192C209.034 192.294 209.003 192.386 208.972 192.487C202.637 211.44 207.132 224.712 223.164 254.379C227.418 262.237 227.062 270.4 226.747 277.597V277.609C226.391 286.122 226.107 292.923 233.417 296.316H233.428C233.841 296.489 234.239 296.652 234.627 296.835L234.847 296.927C242.25 299.839 252.849 306.065 258.26 313.414C255.012 300.072 252.786 275.33 252.911 267.818C252.914 267.596 252.917 267.368 252.919 267.133C252.923 266.55 252.925 265.925 252.933 265.251C252.964 256.849 253.037 241.205 260 230.465C266.837 219.924 271.495 200.376 272.144 197.504C270.156 193.829 271.531 187.421 272.986 180.636Z" fill="#313131"/>
<path d="M164.799 277.552C164.495 270.369 164.152 262.227 168.384 254.389L168.389 254.399C184.421 224.732 188.927 211.455 182.582 192.508C182.551 192.406 182.52 192.315 182.477 192.212C181.848 190.52 181.173 188.736 180.45 186.84C175.557 174.225 168.18 157.01 156.067 135.169L155.91 134.997C150.432 140.044 144.793 144.286 138.847 148.761L138.705 148.867C134.849 151.765 130.857 154.768 126.76 158.103C124.23 160.161 121.515 161.757 118.775 162.982C118.765 162.982 118.754 162.992 118.744 163.002C115.286 165.295 116.947 173.05 118.555 180.562V180.563C120.022 187.374 121.411 193.824 119.414 197.514C120.075 200.38 124.732 219.928 131.569 230.475C138.512 241.186 138.589 256.786 138.631 265.206V265.261C138.631 266.207 138.642 267.055 138.652 267.828C138.768 275.34 136.541 300.083 133.293 313.425C138.778 305.989 149.566 299.696 156.963 296.825C156.988 296.813 157.013 296.801 157.04 296.791C157.058 296.784 157.077 296.778 157.099 296.774C157.419 296.622 157.754 296.479 158.1 296.347C158.1 296.347 158.103 296.344 158.107 296.341C158.112 296.339 158.116 296.337 158.121 296.337C165.461 292.931 165.168 286.146 164.802 277.645L164.799 277.552Z" fill="#313131"/>
<path d="M231.416 138.295C220.576 158.26 213.797 174.169 209.197 186.042C209.186 186.052 209.186 186.073 209.176 186.083C208.432 187.857 207.777 189.58 207.201 191.262V191.272C206.268 193.778 205.435 196.05 204.691 198.098C200.804 208.787 198.86 214.149 195.774 214.149C192.689 214.149 190.745 208.787 186.857 198.098C186.082 195.968 185.228 193.605 184.254 191.003C184.254 190.993 184.243 190.972 184.233 190.962C183.74 189.534 183.19 188.06 182.572 186.56C182.541 186.489 182.509 186.418 182.478 186.347C182.446 186.255 182.414 186.174 182.373 186.083C177.783 174.21 170.994 158.29 160.154 138.305C161.626 138.987 163.135 139.251 164.817 139.251C166.97 139.251 169.406 138.824 172.361 138.305C177.616 137.38 184.83 136.115 195.769 136.115C206.709 136.115 213.923 137.38 219.188 138.305C222.148 138.824 224.568 139.251 226.722 139.251C228.403 139.251 229.928 138.987 231.406 138.295H231.416Z" fill="#313131"/>
<path d="M253.111 122.691C243.55 124.059 237.949 129.527 234.842 132.841C234.612 133.075 234.412 133.289 234.213 133.502L233.92 133.817C233.92 133.817 233.889 133.858 233.878 133.868C229.907 138.127 226.874 137.599 219.56 136.313C214.221 135.368 206.902 134.092 195.774 134.092C184.646 134.092 177.327 135.368 171.989 136.313C164.675 137.599 161.652 138.127 157.681 133.868C157.67 133.858 157.649 133.838 157.639 133.817L157.335 133.502C157.147 133.299 156.947 133.086 156.738 132.862L156.717 132.841L156.654 132.781C153.542 129.456 147.957 124.038 138.448 122.691L138.542 122.631C140.444 121.487 143.048 119.921 144.876 119.103C146.045 118.585 148.785 117.482 151.671 116.292C154.642 115.088 157.869 113.776 160.243 112.775C160.253 112.775 160.253 112.765 160.264 112.765C160.285 112.765 160.295 112.765 160.316 112.755C171.894 109.685 184.248 110.29 190.886 110.605C191.599 110.645 192.233 110.676 192.809 110.696C194.774 110.777 196.78 110.777 198.755 110.696C199.321 110.676 199.966 110.645 200.678 110.605C207.306 110.29 219.659 109.679 231.248 112.755H231.29C233.663 113.756 236.901 115.088 239.882 116.292C242.779 117.476 245.504 118.585 246.688 119.103C248.516 119.926 251.12 121.487 253.011 122.631C253.043 122.65 253.085 122.671 253.116 122.691H253.111Z" fill="#313131"/>
<path d="M137.962 146.852C143.723 142.508 149.205 138.373 154.506 133.497C150.87 129.736 144.221 124.069 132.8 124.424C132.798 124.424 132.792 124.425 132.784 124.426C132.76 124.429 132.715 124.435 132.653 124.435C130.155 124.699 96.0114 129.04 88.2993 168.146C90.212 166.947 93.1877 165.447 96.2627 165.285C96.5363 165.276 96.8489 165.261 97.1856 165.244C97.256 165.241 97.3276 165.237 97.3997 165.234C102.874 165 115.7 164.441 125.408 156.542C129.547 153.178 133.549 150.163 137.426 147.256L137.962 146.852Z" fill="#313131"/>
<path d="M295.296 165.285C298.376 165.447 301.347 166.952 303.27 168.146C295.568 129.111 261.54 124.72 258.916 124.435C258.821 124.435 258.758 124.424 258.758 124.424H258.748C247.327 124.089 240.699 129.756 237.063 133.497C242.477 138.472 248.059 142.676 253.958 147.117L254.143 147.256C258.02 150.163 262.023 153.178 266.151 156.542C268.529 158.468 271.091 159.973 273.685 161.127C281.7 164.695 290.03 165.061 294.159 165.234C294.253 165.238 294.345 165.243 294.435 165.247C294.749 165.262 295.035 165.276 295.296 165.285Z" fill="#313131"/>
<path d="M271.144 593.052C278.845 592.602 280.747 577.009 281.585 561.771L281.59 561.766C281.339 546.919 278.164 536.53 275.288 527.849C275.267 527.793 275.248 527.739 275.23 527.686C275.212 527.633 275.194 527.579 275.173 527.523C275.124 527.372 275.074 527.221 275.024 527.069C274.943 526.828 274.862 526.587 274.785 526.349C274.303 525.099 273.627 523.945 272.684 523.701C270.699 523.173 267.246 526.416 264.217 529.287L264.207 529.297C259.568 533.676 254.317 538.632 249.794 535.371C246.714 533.15 243.141 532.617 240.233 533.953C236.953 535.463 234.947 539.183 234.716 544.154C234.685 544.642 234.318 545.039 233.836 545.11C231.243 569.293 231.421 577.039 233.176 582.625C233.186 582.646 233.186 582.655 233.186 582.676C238.597 596.4 244.316 595.251 246.204 594.877L246.211 594.872C251.01 593.897 251.675 587.539 252.21 582.432C252.634 578.305 252.98 575.052 255.489 574.849C257.461 574.677 258.812 577.366 260.857 581.434L260.901 581.522C263.338 586.396 266.669 593.052 270.913 593.052H271.144Z" fill="#313131"/>
<path d="M158.435 582.549C158.435 582.528 158.456 582.498 158.456 582.498L158.462 582.503C160.154 576.917 160.321 569.111 157.738 545.12C157.257 545.059 156.879 544.662 156.858 544.164C156.628 539.194 154.61 535.473 151.331 533.964C148.429 532.621 144.85 533.16 141.78 535.382C137.264 538.637 132.023 533.701 127.378 529.327L127.346 529.297L127.309 529.262C124.285 526.404 120.868 523.175 118.88 523.711C118 523.945 117.345 524.983 116.863 526.146L116.832 526.238C116.674 526.716 116.507 527.198 116.339 527.696C113.442 536.408 110.225 546.843 109.974 561.766V561.837C110.822 577.054 112.735 592.608 120.415 593.057C124.774 593.297 128.179 586.501 130.668 581.527L130.721 581.421C132.75 577.363 134.101 574.662 136.08 574.854C138.573 575.056 138.916 578.28 139.353 582.38L139.359 582.437L139.363 582.468C139.897 587.574 140.558 593.909 145.348 594.877L145.357 594.883C147.258 595.257 152.98 596.4 158.383 582.64C158.387 582.632 158.389 582.625 158.392 582.619C158.397 582.61 158.402 582.602 158.414 582.59C158.414 582.58 158.425 582.569 158.425 582.569L158.435 582.549Z" fill="#313131"/>
<path d="M326.28 224.569C328.244 225.138 330.482 225.769 331.194 225.057H331.189C331.619 224.62 332.043 223.283 331.001 219.217C330.443 217.848 330.092 216.501 329.759 215.224L329.717 215.059C329.706 215.029 329.696 214.988 329.696 214.958C329.678 214.914 329.667 214.863 329.658 214.817L329.654 214.795C329.235 213.158 328.821 211.608 327.993 210.2C325.614 206.17 322.301 199.177 321.713 197.938C321.668 197.842 321.639 197.781 321.628 197.758C321.607 197.717 321.586 197.667 321.575 197.615C317.127 182.505 304.532 171.597 304.061 171.19H304.05L303.998 171.14L303.993 171.135C303.426 170.702 299.28 167.53 295.176 167.308C294.989 167.295 294.782 167.287 294.56 167.278C294.404 167.271 294.239 167.265 294.07 167.256L294.02 167.255C290.319 167.091 283.439 166.788 276.283 164.324C277.758 168.353 276.393 174.717 275.059 180.933L275.052 180.965L275.05 180.975C273.688 187.31 272.282 193.856 274.119 196.792L274.14 196.813V196.823L274.434 197.259C279.049 204.33 291.341 223.095 296.118 227.852C297.297 229.027 298.287 230.053 299.262 231.095C308.65 239.309 312.485 240.285 314.062 239.665C315.849 238.958 316.069 235.324 316.258 232.132C316.457 228.696 316.656 225.448 318.672 224.233C320.753 222.989 323.561 223.787 326.28 224.569Z" fill="#313131"/>
<path d="M117.403 196.848L117.424 196.817H117.418C119.278 193.885 117.864 187.318 116.496 180.97C115.16 174.744 113.793 168.365 115.276 164.329C108.12 166.793 101.24 167.097 97.5393 167.259L97.4888 167.262C97.3156 167.27 97.1508 167.277 96.9933 167.283C96.7738 167.293 96.5682 167.301 96.3728 167.312C92.2444 167.536 88.0949 170.728 87.561 171.145L87.5087 171.196H87.4979C87.0421 171.582 74.4266 182.505 69.9735 197.621C69.9627 197.671 69.9417 197.722 69.9206 197.763C69.7739 198.089 66.1175 205.865 63.5657 210.206C62.7329 211.618 62.3138 213.169 61.8947 214.8L61.8899 214.822C61.8809 214.868 61.8707 214.919 61.8526 214.963C61.8526 214.994 61.8424 215.034 61.8316 215.065L61.8153 215.128C61.4906 216.405 61.1467 217.756 60.5797 219.131L60.5689 219.151C59.5003 223.278 59.9299 224.615 60.3596 225.062C61.0824 225.769 63.3089 225.144 65.2739 224.574C67.9875 223.791 70.8009 222.993 72.8915 224.239C74.8986 225.448 75.0952 228.67 75.3033 232.088L75.3069 232.137L75.3081 232.164C75.4963 235.35 75.7097 238.96 77.5016 239.67C79.0733 240.295 82.9083 239.304 92.2919 231.101C93.2611 230.059 94.2563 229.032 95.4354 227.858C100.219 223.1 112.499 204.33 117.12 197.265L117.403 196.848Z" fill="#313131"/>
<path d="M374.023 320.012C376.68 319.016 379.011 315.946 380.169 311.94L380.164 311.93C379.881 311.524 379.609 311.082 379.357 310.502C378.917 309.486 377.995 306.711 376.607 302.502L376.472 302.098C373.646 293.562 369.011 279.569 363.456 265.526C354.927 243.949 339.587 229.027 335.092 224.971C334.584 224.508 334.123 224.051 333.724 223.583C333.677 224.874 333.332 225.814 332.693 226.455C331.1 228.066 328.344 227.278 325.688 226.516C323.513 225.885 321.057 225.184 319.763 225.956C318.678 226.611 318.503 229.549 318.347 232.167L318.342 232.244L318.341 232.276C318.1 236.251 317.852 240.349 314.853 241.54C314.35 241.743 313.79 241.845 313.182 241.845C311.207 241.845 308.645 240.773 305.344 238.531C307.168 240.905 309.426 243.914 312.464 247.97L312.726 248.305C316.53 253.388 319.742 258.811 323.136 264.56L323.165 264.608C328.531 273.681 334.085 283.07 342.275 291.168C355.514 304.357 361.46 312.835 364.001 318.146C367.658 320.307 371.389 320.998 374.023 320.012Z" fill="#313131"/>
<path d="M79.0945 247.97C82.1243 243.926 84.3779 240.923 86.183 238.552C82.9006 240.787 80.3542 241.855 78.3717 241.855C77.7692 241.855 77.2137 241.754 76.711 241.55C73.7034 240.356 73.452 236.239 73.2218 232.254C73.0642 229.616 72.8862 226.627 71.7913 225.967C70.5076 225.199 68.0507 225.896 65.8765 226.526L65.8705 226.528C63.2056 227.29 60.4584 228.075 58.8613 226.465C58.2378 225.825 57.8816 224.889 57.8292 223.613C57.4257 224.066 56.9752 224.523 56.4722 224.981C51.9666 229.037 36.6266 243.959 28.0973 265.536C22.5449 279.588 17.9022 293.596 15.0754 302.125L14.9473 302.513C13.5641 306.721 12.6473 309.501 12.2072 310.513C11.9557 311.087 11.6728 311.534 11.3899 311.941C12.5477 315.946 14.8791 319.021 17.5458 320.012C20.1706 320.998 23.9113 320.307 27.5682 318.147C30.1039 312.825 36.0503 304.357 49.2842 291.168C57.4955 283.059 63.0583 273.651 68.4259 264.572L68.4331 264.56C71.828 258.811 75.0394 253.383 78.8431 248.305L79.0945 247.97Z" fill="#313131"/>
<path d="M86.1829 238.553C86.1883 238.546 86.1932 238.539 86.1986 238.531V238.542C86.1932 238.545 86.1883 238.55 86.1829 238.553Z" fill="white"/>
<path d="M391.481 351.601C391.172 348.633 389.694 344.002 388.133 339.097C386.462 333.852 384.732 328.429 384.717 325.73C385.005 315.082 383.502 313.054 382.176 311.26C381.814 310.777 381.505 310.36 381.254 309.765C380.85 308.83 379.891 305.938 378.571 301.938C375.758 293.424 371.048 279.173 365.39 264.85C356.698 242.861 341.07 227.664 336.491 223.527C334.699 221.911 333.667 220.264 332.97 218.612C332.645 217.362 332.21 215.964 331.666 214.388C331.226 212.665 330.749 210.891 329.775 209.235C327.391 205.189 323.907 197.814 323.535 197.026C319.16 182.255 307.697 171.714 305.675 169.945C298.303 125.964 259.288 122.468 258.895 122.437C258.89 122.437 258.879 122.437 258.874 122.437C258.863 122.437 258.858 122.437 258.848 122.437C258.067 122.412 257.312 122.417 256.574 122.437C256.48 122.335 256.364 122.249 256.228 122.188C255.956 122.066 255.049 121.522 254.091 120.943C252.141 119.769 249.475 118.163 247.521 117.294C246.311 116.76 243.691 115.692 240.652 114.458C236.247 112.663 231.248 110.63 229.462 109.766C226.973 108.561 222.588 104.536 221.462 103.479C221.142 100.088 220.979 97.5473 220.927 96.7032C221.294 96.4594 221.608 96.2155 221.86 95.9816C224.123 93.6588 225.737 88.673 226.879 82.4314C228.744 80.4136 229.991 76.4487 230.892 69.6581C231.526 64.8602 231.72 60.3417 229.2 59.1272C229.881 44.2754 229.456 30.5165 229.42 29.3729C228.833 11.3598 223.599 8.73712 216.977 5.40794C216.563 5.19955 216.144 4.99116 215.719 4.7726C211.523 2.61754 209.521 2.83101 207.405 3.05465C205.796 3.22746 204.136 3.40028 201.045 2.56163C187.507 -3.6596 179.318 2.66836 172.738 7.75613L172.529 7.91882C171.287 8.87945 170.129 9.45888 169.008 10.023C163.848 12.6203 161.154 14.9431 161.191 35.7669C161.04 45.2106 161.243 53.2311 161.673 60.0366C160.316 61.6583 159.97 64.8147 160.615 69.6534C161.353 75.2039 162.621 79.2289 164.382 81.6229C166.65 92.383 169.307 95.687 169.511 95.9256C169.6 96.0277 169.705 96.114 169.82 96.1747C170.077 96.3071 170.334 96.429 170.59 96.5609C170.554 97.2218 170.386 99.8649 170.046 103.473C168.913 104.531 164.534 108.551 162.045 109.761C160.258 110.63 155.255 112.663 150.844 114.458C147.811 115.692 145.191 116.755 143.986 117.294C142.037 118.158 139.371 119.764 137.421 120.938C136.463 121.517 135.551 122.066 135.279 122.183C135.142 122.244 135.027 122.33 134.933 122.432C134.194 122.407 133.44 122.401 132.659 122.432C132.649 122.432 132.643 122.432 132.633 122.432C132.628 122.432 132.617 122.432 132.612 122.432C132.219 122.463 93.2036 125.96 85.8319 169.94C83.8152 171.709 72.3517 182.25 67.972 197.021C67.5998 197.809 64.116 205.183 61.7325 209.229C60.7578 210.887 60.281 212.66 59.841 214.388C59.2962 215.959 58.8666 217.356 58.5417 218.602C57.8449 220.254 56.8076 221.906 55.0158 223.517C50.4316 227.654 34.8086 242.857 26.117 264.839C20.4588 279.152 15.7489 293.399 12.9407 301.912C11.6152 305.923 10.6565 308.82 10.2531 309.755C9.99634 310.345 9.68723 310.767 9.33097 311.25C8.0055 313.043 6.49665 315.072 6.79001 325.684C6.76909 328.414 5.04541 333.837 3.37415 339.088C1.81289 343.987 0.340712 348.617 0.0263672 351.586C0.0263672 351.621 0.0263672 351.652 0.0263672 351.688C0.0263672 354.676 1.01131 358.417 1.96483 362.031C2.56732 364.308 3.18554 366.661 3.53656 368.755C4.16001 372.455 6.60145 374.188 9.43054 376.196C11.1752 377.436 13.1503 378.839 15.0154 380.949C15.3874 381.37 16.037 381.421 16.4771 381.065C16.5662 380.994 18.7037 379.235 18.7823 376.425C18.7876 376.232 18.7718 376.034 18.7613 375.84C19.5524 375.22 20.9617 373.889 21.3757 371.968C21.7162 370.392 21.3285 368.791 20.2178 367.21C19.9296 366.803 19.6729 366.442 19.4372 366.117C17.5459 363.505 17.5092 363.454 18.6671 359.149C19.1647 357.304 19.3167 355.652 19.4476 354.193C19.6101 352.414 19.762 350.864 20.4693 349.406C21.0089 349.06 21.5904 348.668 22.2349 348.206C22.3711 351.622 23.1098 358.016 26.6252 359.865C28.4327 360.816 30.6122 360.45 33.1007 358.778C33.326 358.625 33.4779 358.396 33.5303 358.137C33.588 357.853 34.0175 355.042 31.6547 344.073C31.3875 342.483 31.6443 340.973 31.9167 339.382C32.5454 335.712 33.2526 331.55 27.9926 325.161C27.7935 324.648 25.7503 317.547 50.7669 292.622C59.1652 284.327 64.7864 274.807 70.2304 265.607C73.5934 259.909 76.779 254.532 80.5195 249.54L80.7709 249.205C90.5525 236.158 92.0563 234.15 96.9231 229.311C101.544 224.716 112.3 208.441 117.833 199.999C119.315 206.058 123.616 222.084 129.783 231.593C136.421 241.84 136.489 256.534 136.525 265.317C136.525 266.257 136.536 267.122 136.546 267.894C136.667 275.411 134.409 300.383 131.135 313.461C129.626 319.489 129.783 321.827 129.919 323.885C130.071 326.147 130.202 328.099 127.666 335.27C122.699 349.319 109.833 410.57 119.299 460.655C119.299 460.661 119.299 460.666 119.299 460.676C119.509 462.165 120.484 468.697 122.228 475.69C122.259 478.918 121.709 482.633 121.065 486.984C120.264 492.376 119.273 499.086 119.106 507.101C118.98 513.215 117.068 518.934 114.857 525.551C114.663 526.045 114.479 526.583 114.317 527.173C111.372 536.021 108.114 546.624 107.868 561.807C107.8 566.065 107.962 570.676 108.439 575.718C109.57 587.644 110.66 598.272 111.624 607.641C113.689 627.777 115.056 641.072 114.621 645.721C114.113 651.128 113.405 654.716 112.656 658.507C112.463 659.476 112.268 660.456 112.075 661.488C111.158 662.678 105.903 669.375 101.177 672.373C100.287 672.408 98.1335 672.723 96.1895 675.004C94.9431 675.051 92.0142 675.477 89.8298 678.329C89.2898 678.807 86.7909 681.205 87.4036 683.836C87.8594 685.802 89.8713 687.272 93.4705 688.228C96.3158 688.701 100.344 689.908 104.609 691.174C105.714 691.507 106.83 691.845 107.925 692.16C109.12 693.653 114.909 700 126.681 700C131.396 700 134.97 698.699 137.311 696.138C140.518 692.627 140.649 687.622 140.198 684.046C139.533 678.772 139.449 670.635 140.58 665.262C141.146 662.573 140.953 661.191 140.722 659.592C140.45 657.679 140.109 655.293 140.869 649.32C142.158 639.193 148.062 615.632 154.799 596.686C156.004 593.291 157.11 590.917 158.084 588.817C162.459 579.413 163.779 576.577 157.319 523.595C157.44 518.309 159.227 516.245 161.705 513.399C165.319 509.236 170.265 503.533 172.534 484.804C175.117 463.476 179.051 449.87 183.221 435.461C184.028 432.665 184.851 429.829 185.668 426.901C185.668 426.896 185.668 426.891 185.668 426.886V426.871C186.795 422.85 187.921 418.667 189.006 414.179C193.176 396.923 193.904 388.568 194.753 378.895C195.035 375.637 195.329 372.313 195.759 368.486C196.188 372.313 196.481 375.637 196.765 378.895C197.608 388.573 198.342 396.929 202.512 414.184C203.596 418.672 204.717 422.85 205.844 426.871V426.891C205.844 426.891 205.854 426.906 205.854 426.911C206.672 429.829 207.489 432.665 208.296 435.455C212.466 449.865 216.401 463.471 218.984 484.804C221.252 503.533 226.198 509.236 229.813 513.399C232.285 516.25 234.077 518.309 234.198 523.595C227.743 576.577 229.064 579.418 233.433 588.822C234.407 590.922 235.513 593.297 236.718 596.692C243.461 615.638 249.365 639.199 250.648 649.326C251.408 655.299 251.068 657.679 250.795 659.598C250.57 661.191 250.371 662.573 250.936 665.268C252.063 670.641 251.985 678.784 251.319 684.052C250.869 687.627 251.005 692.632 254.206 696.144C256.542 698.705 260.121 700.006 264.831 700.006C276.608 700.006 282.392 693.659 283.592 692.166C284.687 691.845 285.798 691.518 286.903 691.186C291.168 689.908 295.197 688.712 298.146 688.211C301.651 687.277 303.657 685.807 304.113 683.842C304.727 681.211 302.228 678.807 301.693 678.335C299.508 675.482 296.58 675.057 295.333 675.01C293.389 672.735 291.231 672.408 290.345 672.379C285.62 669.381 280.364 662.684 279.448 661.494C279.254 660.462 279.06 659.476 278.866 658.502C278.117 654.71 277.41 651.128 276.902 645.727C276.467 641.077 277.829 627.766 279.898 607.617C280.862 598.249 281.947 587.638 283.079 575.728C283.555 570.686 283.723 566.076 283.65 561.816C283.398 546.635 280.14 536.032 277.2 527.183C277.033 526.594 276.855 526.049 276.655 525.556C274.445 518.938 272.532 513.221 272.406 507.106C272.244 499.096 271.248 492.382 270.447 486.989C269.803 482.633 269.253 478.922 269.279 475.711C271.023 468.712 271.998 462.175 272.207 460.686C272.207 460.676 272.207 460.666 272.207 460.655C281.664 410.545 268.807 349.324 263.841 335.281C261.305 328.109 261.436 326.157 261.588 323.895C261.729 321.831 261.886 319.499 260.372 313.47C257.098 300.403 254.845 275.427 254.96 267.904C254.971 267.132 254.976 266.268 254.981 265.327C255.018 256.549 255.081 241.85 261.724 231.608C267.89 222.094 272.197 206.068 273.675 200.014C279.207 208.457 289.963 224.731 294.583 229.326C299.445 234.16 300.949 236.162 310.709 249.185L310.987 249.556C314.728 254.547 317.908 259.929 321.277 265.622C326.715 274.827 332.342 284.342 340.735 292.637C365.757 317.567 363.713 324.668 363.514 325.181C358.254 331.57 358.961 335.733 359.59 339.403C359.863 340.999 360.12 342.503 359.857 344.053C357.484 355.067 357.913 357.878 357.971 358.158C358.023 358.417 358.176 358.646 358.401 358.798C360.884 360.47 363.063 360.837 364.876 359.886C368.392 358.041 369.13 351.647 369.267 348.226C369.911 348.689 370.493 349.085 371.032 349.425C371.745 350.89 371.891 352.435 372.054 354.213C372.19 355.672 372.342 357.324 372.835 359.169C373.992 363.474 373.956 363.52 372.065 366.137C371.829 366.463 371.567 366.824 371.279 367.23C370.168 368.811 369.78 370.412 370.121 371.988C370.534 373.909 371.944 375.241 372.735 375.861C372.719 376.054 372.709 376.252 372.714 376.445C372.793 379.256 374.93 381.015 375.019 381.086C375.459 381.442 376.109 381.386 376.481 380.969C378.346 378.86 380.321 377.457 382.066 376.217C384.895 374.209 387.337 372.476 387.959 368.776C388.311 366.682 388.934 364.328 389.532 362.051C390.485 358.437 391.47 354.696 391.47 351.708C391.47 351.672 391.47 351.641 391.47 351.606L391.481 351.601ZM258.748 124.475C259.733 124.561 295.317 128.109 303.223 168.192C301.305 166.992 298.335 165.498 295.259 165.335C294.924 165.32 294.547 165.3 294.128 165.285C288.653 165.051 275.828 164.496 266.115 156.593C261.981 153.228 257.978 150.219 254.101 147.307C248.139 142.824 242.496 138.57 237.032 133.543C240.679 129.787 247.327 124.115 258.753 124.475H258.748ZM209.15 186.108C209.15 186.108 209.139 186.124 209.139 186.129C208.411 187.877 207.772 189.575 207.201 191.232C206.252 193.768 205.414 196.075 204.66 198.154C200.772 208.838 198.823 214.201 195.743 214.201C192.662 214.201 190.713 208.838 186.826 198.154C186.071 196.075 185.228 193.763 184.28 191.227C183.709 189.569 183.075 187.877 182.347 186.129C182.347 186.118 182.336 186.113 182.336 186.108C177.736 174.235 170.946 158.321 160.107 138.346C161.579 139.032 163.098 139.302 164.79 139.302C166.944 139.302 169.369 138.875 172.329 138.356C177.595 137.431 184.809 136.166 195.748 136.166C206.688 136.166 213.896 137.431 219.162 138.356C222.122 138.875 224.547 139.302 226.701 139.302C228.393 139.302 229.912 139.032 231.385 138.346C220.545 158.321 213.755 174.235 209.155 186.108H209.15ZM227.722 294.67C220.608 293.155 211.423 293.439 204.555 298.401C200.133 301.592 197.194 306.294 195.748 312.429C194.302 306.294 191.363 301.592 186.942 298.401C180.073 293.439 170.889 293.15 163.774 294.664C167.405 290.299 167.143 284.067 166.86 277.572C166.561 270.629 166.221 262.755 170.208 255.38C182.457 232.711 188.11 219.126 187.261 205.311C190.121 212.762 192.117 216.228 195.748 216.228C199.379 216.228 201.375 212.762 204.236 205.316C203.387 219.126 209.04 232.717 221.289 255.386C225.276 262.761 224.935 270.633 224.636 277.577C224.359 284.072 224.092 290.309 227.728 294.67H227.722ZM233.617 298.69C242.706 302.751 244.723 309.903 247.594 320.109C248.349 322.782 249.124 325.547 250.104 328.52C254.892 343.031 254.473 354.427 248.857 362.386C242.193 371.835 230.08 373.528 225.181 373.817C224.584 373.853 223.987 373.894 223.395 373.929C223.385 373.929 223.374 373.929 223.364 373.929C223.295 373.935 223.217 373.939 223.143 373.945C222.845 373.965 222.546 373.98 222.253 374.001C222.049 374.016 221.85 374.026 221.645 374.041C221.446 374.051 221.257 374.061 221.058 374.072C220.199 374.112 219.303 374.153 218.423 374.239C211.408 374.615 205.047 374.458 201.155 370.931C198.216 368.267 196.791 363.81 196.791 357.299V322.218C196.791 311.814 199.824 304.352 205.802 300.032C212.869 294.929 222.719 295.234 229.572 297.226C230.661 297.541 231.667 297.892 232.611 298.268C232.935 298.416 233.265 298.558 233.617 298.695V298.69ZM173.058 374.239C172.178 374.158 171.287 374.117 170.428 374.076C170.228 374.066 170.04 374.057 169.846 374.046C169.642 374.031 169.438 374.021 169.233 374.006C168.934 373.985 168.631 373.97 168.332 373.95C168.264 373.945 168.185 373.939 168.117 373.935C168.107 373.935 168.096 373.935 168.086 373.935C167.488 373.894 166.897 373.858 166.3 373.823C161.401 373.533 149.288 371.841 142.624 362.392C137.013 354.432 136.594 343.042 141.382 328.526C142.362 325.552 143.142 322.787 143.892 320.113C146.763 309.913 148.78 302.761 157.854 298.7C158.21 298.563 158.551 298.416 158.876 298.268C159.814 297.892 160.819 297.547 161.909 297.226C168.767 295.234 178.611 294.924 185.684 300.032C191.662 304.352 194.695 311.814 194.695 322.218V357.299C194.695 363.81 193.265 368.267 190.331 370.931C186.438 374.463 180.073 374.615 173.053 374.239H173.058ZM228.807 69.4195C228.597 71.0103 228.361 72.4435 228.11 73.7298C228.508 70.0752 228.807 66.2532 229.022 62.4411C229.305 63.8539 229.236 66.1972 228.807 69.4248V69.4195ZM163.271 35.8076C163.229 15.2328 165.906 13.8859 169.956 11.8528C170.564 11.5479 171.214 11.2175 171.894 10.821C167.248 17.3117 168.316 24.2394 168.332 24.3308C168.416 24.8289 168.861 25.1796 169.364 25.1796C169.417 25.1796 169.474 25.1796 169.532 25.1644C170.103 25.078 170.49 24.5545 170.396 24.0056C170.323 23.5684 168.772 13.215 179.361 6.72438C179.848 6.42449 179.994 5.79931 179.685 5.32662C184.814 2.18551 190.97 0.391315 199.63 4.19826C179.879 7.61385 170.323 26.4198 170.224 26.6232C169.972 27.1264 170.192 27.7312 170.711 27.9752C170.857 28.0412 171.009 28.0768 171.161 28.0768C171.549 28.0768 171.926 27.8633 172.104 27.5024C172.209 27.2941 182.708 6.61256 204.398 5.72307C204.754 5.70782 205.058 5.51976 205.236 5.25038C206.132 5.25038 206.897 5.17414 207.62 5.0979C209.564 4.89459 211.099 4.73195 214.729 6.5922C215.159 6.81078 215.584 7.02422 216.003 7.23772C216.945 7.71039 217.852 8.16784 218.711 8.6558C214.949 7.51725 211.602 8.22886 211.544 8.23901C210.983 8.36606 210.633 8.90483 210.764 9.4538C210.889 9.99764 211.45 10.3382 212.016 10.2162C212.346 10.1399 220.147 8.52869 224.343 15.5276C224.532 15.8376 224.862 16.0155 225.208 16.0257C226.376 19.0449 227.12 23.2635 227.324 29.4593C227.586 37.4544 227.628 48.7024 227.104 59.6709C227.104 59.686 227.094 59.7012 227.094 59.7164C227.078 59.8033 227.083 59.8844 227.094 59.9654C226.716 67.7372 226.046 75.3462 224.967 81.5319C224.878 81.7045 224.846 81.8976 224.867 82.0854C223.798 88.0016 222.337 92.551 220.367 94.574C219.774 95.1229 218.58 95.8089 216.903 96.5054C218.936 94.1774 220.775 90.0042 221.089 82.5329C221.111 81.974 220.665 81.5009 220.089 81.4805C219.492 81.4502 219.025 81.8924 219.004 82.4518C218.496 94.4824 213.912 96.8304 212.052 97.283C214.137 95.4834 215.808 92.8964 215.94 89.1963C215.961 88.6375 215.505 88.1696 214.929 88.1492C214.368 88.1288 213.87 88.5709 213.849 89.1304C213.556 97.6744 203.402 99.138 202.967 99.194C202.523 99.2547 202.187 99.575 202.093 99.9716C196.094 100.571 189.168 100.399 182.111 98.6655C182.095 98.2992 181.881 97.9539 181.508 97.7859C176.835 95.6818 175.358 85.999 175.185 82.4465C175.159 81.8871 174.656 81.4607 174.09 81.4805C173.514 81.5062 173.068 81.9787 173.095 82.5428C173.115 82.9902 173.566 91.3359 177.013 96.4034C172.24 94.1674 170.627 80.6726 170.407 75.5749C170.38 75.0154 169.846 74.5838 169.322 74.6036C168.746 74.6293 168.295 75.0971 168.322 75.6559C168.395 77.3231 169.055 89.6484 173.178 95.5698C172.455 95.2396 171.732 94.889 171.009 94.518C170.029 93.0894 162.543 80.6825 163.271 35.8025V35.8076ZM210.722 98.2992C210.716 98.3657 210.716 98.4264 210.722 98.4923C210.559 98.5331 210.397 98.5739 210.229 98.6148C210.391 98.5127 210.554 98.4112 210.716 98.2992H210.722ZM171.769 104.683C171.947 104.516 172.052 104.292 172.078 104.053C172.356 101.135 172.523 98.8026 172.607 97.542C180.33 100.968 188.477 102.223 195.905 102.223C205.703 102.223 214.242 100.053 218.889 97.8419C218.978 99.1532 219.141 101.354 219.403 104.053C219.423 104.292 219.533 104.516 219.712 104.683C219.874 104.836 222.593 107.428 225.291 109.486C215.505 107.906 206.064 108.363 200.532 108.632C199.829 108.668 199.196 108.699 198.63 108.719C196.712 108.795 194.768 108.795 192.856 108.719C192.291 108.694 191.656 108.663 190.954 108.632C185.422 108.363 175.976 107.906 166.189 109.486C168.887 107.428 171.612 104.836 171.769 104.683ZM138.506 122.676C140.408 121.532 143.007 119.967 144.835 119.154C146.014 118.63 148.743 117.522 151.635 116.343C154.611 115.134 157.843 113.817 160.217 112.811C160.237 112.811 160.254 112.811 160.274 112.8C171.858 109.73 184.212 110.335 190.844 110.655C191.552 110.691 192.196 110.721 192.762 110.742C194.737 110.823 196.738 110.823 198.713 110.742C199.279 110.717 199.924 110.686 200.631 110.655C207.264 110.33 219.618 109.73 231.201 112.8C231.217 112.8 231.238 112.8 231.254 112.806C233.621 113.812 236.859 115.128 239.83 116.338C242.727 117.517 245.462 118.63 246.636 119.149C248.464 119.962 251.068 121.528 252.969 122.676C253.012 122.701 253.043 122.722 253.085 122.747C242.832 124.211 237.142 130.351 234.172 133.548L233.831 133.914C229.86 138.168 226.837 137.64 219.518 136.354C214.174 135.413 206.855 134.128 195.727 134.128C184.6 134.128 177.28 135.413 171.937 136.354C164.623 137.64 161.594 138.168 157.628 133.914L157.294 133.548C154.323 130.346 148.622 124.216 138.375 122.747C138.417 122.722 138.459 122.697 138.5 122.671L138.506 122.676ZM132.732 124.47C144.159 124.084 150.808 129.776 154.454 133.538C148.989 138.56 143.347 142.814 137.38 147.302C133.508 150.214 129.5 153.228 125.366 156.588C115.648 164.496 102.828 165.045 97.353 165.279C96.9339 165.3 96.5563 165.315 96.2214 165.33C93.1458 165.493 90.1755 166.987 88.258 168.187C96.1637 128.135 131.779 124.552 132.732 124.47ZM17.6978 367.302C17.9283 367.622 18.185 367.978 18.4627 368.374C19.2329 369.477 19.521 370.55 19.3062 371.561C19.1228 372.42 18.6199 373.126 18.1326 373.634C17.6297 372.562 16.8333 371.51 15.7174 370.478C15.3036 369.65 13.5327 366.173 12.1915 364.593C11.9296 364.288 11.9767 364.028 12.5635 362.488C13.2079 360.796 14.2819 357.969 14.7639 353.126C14.853 352.668 14.9787 352.008 15.073 351.723C15.1306 351.713 15.1883 351.703 15.2564 351.688C15.7698 351.591 16.5452 351.444 17.7502 350.905C17.5302 351.926 17.4306 352.958 17.3311 354.026C17.2001 355.474 17.0586 356.968 16.6081 358.651C15.2616 363.667 15.4869 364.252 17.6926 367.296L17.6978 367.302ZM29.8263 339.067C29.5382 340.755 29.2395 342.498 29.5748 344.465C31.4085 352.973 31.5185 356.354 31.4819 357.39C29.8839 358.376 28.5741 358.615 27.5997 358.102C24.6501 356.557 24.2047 348.983 24.2833 346.198C24.2938 345.802 24.0686 345.436 23.7018 345.263C23.335 345.09 22.9002 345.136 22.5806 345.385C17.7555 349.172 15.8065 349.537 14.8739 349.71C13.2446 350.015 13.1084 350.712 12.7049 352.857C12.2334 357.523 11.259 360.094 10.6094 361.797C9.98065 363.449 9.53005 364.643 10.5884 365.893C11.9191 367.464 13.9047 371.495 13.9257 371.535C13.9833 371.652 14.0619 371.754 14.1562 371.841C15.8589 373.375 16.7024 374.9 16.6709 376.379C16.65 377.406 16.1942 378.244 15.7855 378.804C14.0199 376.989 12.2387 375.724 10.646 374.59C7.98975 372.704 6.06703 371.337 5.5798 368.455C5.21306 366.27 4.57913 363.876 3.96616 361.553C3.04932 358.081 2.10628 354.493 2.09057 351.763C2.39444 348.988 3.89281 344.272 5.34928 339.708C7.14104 334.071 8.83852 328.749 8.85944 325.69C8.67611 318.929 9.21047 315.956 9.92299 314.263C11.4057 318.06 13.8628 320.866 16.7495 321.954C17.7659 322.335 18.8975 322.523 20.1078 322.523C22.062 322.523 24.2152 322.025 26.3737 321.079C25.2368 324.617 26.0384 326.05 26.2742 326.37C31.0208 332.099 30.4392 335.484 29.8315 339.072L29.8263 339.067ZM79.053 248.026L78.8011 248.361C74.9926 253.439 71.7859 258.867 68.3911 264.61C63.0156 273.703 57.4572 283.107 49.2476 291.219C36.0189 304.403 30.0778 312.876 27.5368 318.197C23.8747 320.353 20.134 321.049 17.5039 320.063C14.8477 319.062 12.5164 315.986 11.3533 311.981C11.6362 311.58 11.9191 311.138 12.1653 310.563C12.6054 309.547 13.5275 306.762 14.9158 302.553C17.724 294.059 22.4182 279.848 28.0555 265.586C36.5847 244.011 51.9248 229.083 56.4251 225.021C56.9333 224.564 57.3786 224.107 57.7873 223.644C57.8397 224.935 58.1855 225.87 58.8194 226.511C60.4121 228.117 63.1678 227.329 65.829 226.567C67.9985 225.947 70.4553 225.24 71.7444 226.012C72.8394 226.673 73.0174 229.662 73.1743 232.3C73.41 236.28 73.6565 240.396 76.6635 241.596C77.1668 241.799 77.7218 241.901 78.3297 241.901C80.3103 241.901 82.8718 240.813 86.1728 238.577C84.3545 240.95 82.0967 243.959 79.0476 248.031L79.053 248.026ZM95.3988 227.908C94.2306 229.072 93.2402 230.089 92.2812 231.131C82.8772 239.365 79.0266 240.346 77.4602 239.721C75.6684 239.009 75.4538 235.385 75.2649 232.188C75.0605 228.752 74.8669 225.509 72.8496 224.295C70.7644 223.039 67.9564 223.847 65.2374 224.625C63.2676 225.189 61.0356 225.829 60.3231 225.108C59.8934 224.671 59.4691 223.334 60.5167 219.248C61.1036 217.824 61.4601 216.432 61.795 215.11C62.2352 213.377 62.6543 211.74 63.5291 210.256C66.0858 205.921 69.7374 198.144 69.8895 197.814C69.9105 197.768 69.9316 197.722 69.9418 197.671C74.4213 182.464 87.1421 171.526 87.4565 171.251C87.498 171.211 91.9307 167.592 96.3314 167.363C96.6615 167.348 97.0331 167.327 97.442 167.312C101.13 167.155 108.03 166.855 115.224 164.39C113.757 168.425 115.124 174.805 116.46 181.021C117.827 187.374 119.237 193.945 117.366 196.878L117.078 197.315C112.457 204.381 100.171 223.146 95.388 227.903L95.3988 227.908ZM138.611 267.874C138.6 267.111 138.595 266.253 138.589 265.317C138.553 256.91 138.485 241.261 131.527 230.526C124.685 219.969 120.028 200.411 119.373 197.555C121.359 193.859 119.986 187.42 118.519 180.609C116.895 173.046 115.218 165.234 118.786 162.992C121.51 161.772 124.209 160.197 126.723 158.148C130.825 154.809 134.812 151.81 138.674 148.908C144.667 144.399 150.346 140.12 155.879 135.037L156.015 135.185C169.961 160.303 177.626 179.313 182.451 192.248C188.937 211.354 184.474 224.61 168.358 254.435C164.114 262.293 164.466 270.455 164.775 277.653C165.141 286.197 165.429 293.013 158.037 296.403C157.681 296.545 157.335 296.693 157 296.84C149.597 299.701 138.773 306.004 133.267 313.455C136.515 300.119 138.736 275.376 138.621 267.864L138.611 267.874ZM138.768 649.081C137.977 655.311 138.333 657.842 138.626 659.878C138.846 661.407 138.998 662.515 138.506 664.866C137.332 670.448 137.411 678.872 138.097 684.302C138.422 686.892 138.553 691.699 135.719 694.808C133.796 696.914 130.747 697.982 126.655 697.982C114.747 697.982 109.602 691.011 109.387 690.719C109.251 690.532 109.052 690.387 108.827 690.322C107.627 689.972 106.406 689.611 105.191 689.243C100.858 687.954 96.7716 686.729 93.8896 686.257C91.2284 685.551 89.6831 684.559 89.4107 683.398C89.0806 681.987 90.6313 680.307 91.2548 679.782C91.3174 679.729 91.3697 679.671 91.4172 679.607C93.4916 676.836 96.4415 677.022 96.5617 677.028C96.9231 677.063 97.2797 676.912 97.4943 676.626C99.2964 674.269 101.261 674.392 101.329 674.397C101.56 674.427 101.796 674.368 101.995 674.252C107.574 670.857 113.61 662.836 113.867 662.497C113.961 662.375 114.018 662.229 114.05 662.077C114.259 660.969 114.464 659.919 114.668 658.881C115.428 655.037 116.145 651.402 116.664 645.902C117.115 641.06 115.747 627.684 113.668 607.437C113.018 601.096 112.305 594.177 111.567 586.676C113.4 591.657 116.119 594.872 120.243 595.111C126 595.449 129.6 588.239 132.497 582.447C133.623 580.201 135.163 577.121 135.849 576.907C136.635 576.973 137.008 580.546 137.233 582.681C137.804 588.14 138.585 595.624 144.876 596.896C145.584 597.042 146.27 597.112 146.946 597.112C149.241 597.112 151.357 596.272 153.312 594.597C153.139 595.052 152.966 595.525 152.788 596.021C146.003 615.09 140.057 638.843 138.757 649.063L138.768 649.081ZM158.336 582.727C152.924 596.464 147.197 595.309 145.317 594.924C140.518 593.95 139.858 587.597 139.323 582.488C138.894 578.366 138.553 575.108 136.044 574.899C134.032 574.727 132.69 577.456 130.632 581.573C128.143 586.542 124.759 593.349 120.384 593.098C112.683 592.655 110.781 577.044 109.943 561.801C110.215 546.019 113.799 535.26 116.811 526.242C117.288 525.064 117.953 523.996 118.849 523.757C120.845 523.224 124.282 526.476 127.315 529.343C131.957 533.729 137.217 538.7 141.738 535.432C144.819 533.206 148.392 532.673 151.3 534.014C154.579 535.524 156.591 539.244 156.822 544.215C156.843 544.703 157.22 545.095 157.702 545.17C160.301 569.41 160.112 577.136 158.341 582.727H158.336ZM160.086 512.102C157.534 515.04 155.329 517.582 155.208 523.635C155.208 523.681 155.208 523.727 155.213 523.773C155.763 528.306 156.261 532.459 156.701 536.281C155.575 534.446 154.056 533.033 152.19 532.179C148.57 530.512 144.196 531.122 140.487 533.806C137.401 536.037 133.01 531.9 128.772 527.889C125.005 524.326 121.442 520.962 118.293 521.8C118.283 521.8 118.273 521.806 118.262 521.81C119.86 516.799 121.07 512.143 121.175 507.147C121.338 499.259 122.28 492.895 123.114 487.279C123.407 485.297 123.68 483.446 123.894 481.698C126.115 488.707 129.133 494.847 132.958 495.299C136.29 495.69 139.371 492.209 142.456 484.671C144.84 478.841 146.129 476.31 146.815 475.238C146.983 476.417 147.051 478.491 147.114 480.376C147.402 489.195 147.884 503.955 157.864 503.955C162.558 503.955 166.158 500.519 169.212 492.367C166.812 504.341 163.135 508.58 160.086 512.098V512.102ZM181.188 434.927C178.758 443.334 176.405 451.471 174.346 461.016C174.116 461.169 173.948 461.413 173.901 461.702C169.558 490.278 164.911 501.932 157.859 501.932C149.901 501.932 149.461 488.402 149.194 480.315C149.021 475.044 148.947 472.864 147.339 472.59C145.946 472.356 144.814 473.403 140.507 483.924C137.034 492.412 134.424 493.423 133.204 493.286C129.788 492.885 126.603 484.549 124.287 475.36C124.256 473.931 124.12 472.579 123.831 471.278C109.969 419.994 124.323 350.915 129.62 335.941C132.292 328.388 132.146 326.248 131.978 323.768C131.936 323.112 131.889 322.426 131.904 321.582C132.649 314.894 140.497 308.012 148.622 303.219C145.27 307.529 143.708 313.054 141.875 319.585C141.126 322.239 140.355 324.983 139.392 327.91C134.399 343.052 134.907 355.037 140.9 363.54C148.083 373.726 160.971 375.546 166.173 375.85C166.839 375.891 167.499 375.932 168.159 375.978C168.662 376.018 169.191 376.054 169.736 376.079C170.795 376.15 171.842 376.211 172.879 376.267C174.886 376.455 176.762 376.857 177.773 377.97C178.485 378.753 178.774 379.876 178.653 381.401C177.878 391.261 180.136 395.439 182.321 399.475C185.071 404.563 187.67 409.366 183.625 426.408C182.813 429.32 181.995 432.147 181.188 434.927ZM187.753 410.347C187.502 404.69 185.82 401.579 184.17 398.525C182.032 394.57 180.01 390.829 180.738 381.548C180.9 379.475 180.434 377.817 179.344 376.623C179.271 376.542 179.187 376.466 179.109 376.389C184.112 376.247 188.539 375.332 191.761 372.41C192.369 371.856 192.919 371.241 193.417 370.565C193.113 373.477 192.882 376.125 192.652 378.733C191.871 387.673 191.185 395.48 187.753 410.342V410.347ZM198.834 378.733C198.609 376.13 198.373 373.482 198.069 370.569C198.567 371.246 199.117 371.861 199.725 372.415C202.946 375.332 207.374 376.252 212.377 376.395C212.298 376.47 212.215 376.547 212.141 376.628C211.052 377.828 210.585 379.484 210.747 381.554C211.481 390.834 209.459 394.57 207.316 398.53C205.666 401.579 203.984 404.695 203.732 410.352C200.296 395.485 199.615 387.678 198.834 378.738V378.733ZM233.789 545.17C234.266 545.095 234.643 544.708 234.669 544.215C234.9 539.239 236.912 535.524 240.192 534.014C243.094 532.677 246.667 533.206 249.747 535.432C254.274 538.7 259.529 533.729 264.171 529.343C267.204 526.476 270.651 523.224 272.637 523.757C273.538 523.996 274.208 525.073 274.68 526.258C277.693 535.27 281.277 546.03 281.544 561.801C280.705 577.044 278.798 592.655 271.102 593.098C271.023 593.098 270.945 593.104 270.866 593.104C266.623 593.104 263.296 586.454 260.854 581.573C258.795 577.456 257.449 574.721 255.442 574.899C252.933 575.108 252.592 578.366 252.163 582.488C251.628 587.597 250.963 593.95 246.169 594.924C244.288 595.309 238.557 596.47 233.145 582.717C231.379 577.125 231.19 569.39 233.789 545.17ZM277.808 607.419C275.728 627.684 274.355 641.072 274.806 645.907C275.32 651.414 276.037 655.037 276.797 658.881C277.001 659.919 277.211 660.975 277.421 662.083C277.446 662.235 277.51 662.375 277.604 662.497C277.861 662.842 283.896 670.862 289.476 674.257C289.664 674.374 289.91 674.427 290.13 674.409C290.214 674.397 292.179 674.281 293.981 676.632C294.196 676.912 294.552 677.063 294.908 677.034C295.034 677.028 297.984 676.836 300.058 679.612C300.106 679.677 300.158 679.735 300.221 679.787C300.844 680.312 302.4 681.998 302.065 683.404C301.792 684.565 300.242 685.557 297.68 686.239C294.699 686.741 290.607 687.96 286.274 689.255C285.064 689.617 283.843 689.984 282.644 690.328C282.418 690.392 282.219 690.538 282.083 690.719C281.868 691.011 276.724 697.982 264.815 697.982C260.724 697.982 257.679 696.914 255.752 694.808C252.923 691.705 253.048 686.898 253.373 684.302C254.059 678.877 254.138 670.46 252.964 664.866C252.472 662.515 252.629 661.412 252.844 659.884C253.132 657.848 253.493 655.317 252.702 649.087C251.403 638.867 245.456 615.102 238.672 596.038C238.494 595.542 238.321 595.07 238.148 594.621C240.102 596.295 242.219 597.129 244.508 597.129C245.184 597.129 245.876 597.059 246.578 596.919C252.87 595.636 253.656 588.157 254.227 582.702C254.452 580.567 254.824 576.994 255.553 576.922C256.296 577.141 257.837 580.221 258.963 582.468C261.86 588.257 265.454 595.461 271.217 595.134C275.34 594.895 278.06 591.675 279.893 586.699C279.155 594.183 278.447 601.09 277.798 607.425L277.808 607.419ZM268.372 487.284C269.205 492.9 270.149 499.264 270.311 507.152C270.416 512.148 271.626 516.799 273.224 521.816C273.213 521.816 273.203 521.81 273.198 521.806C270.054 520.967 266.492 524.331 262.719 527.894C258.481 531.9 254.091 536.047 251 533.811C247.285 531.127 242.911 530.522 239.296 532.184C237.431 533.044 235.906 534.451 234.785 536.286C235.224 532.459 235.717 528.306 236.272 523.777C236.272 523.732 236.283 523.686 236.278 523.64C236.157 517.587 233.951 515.045 231.4 512.108C228.351 508.595 224.673 504.352 222.273 492.376C225.333 500.529 228.927 503.965 233.627 503.965C243.607 503.965 244.089 489.205 244.377 480.387C244.44 478.501 244.508 476.427 244.676 475.248C245.363 476.32 246.646 478.847 249.03 484.682C252.116 492.219 255.212 495.706 258.528 495.309C262.352 494.862 265.37 488.722 267.592 481.713C267.801 483.457 268.079 485.312 268.372 487.289V487.284ZM261.86 335.946C267.157 350.92 281.507 420.004 267.639 471.329C267.356 472.615 267.22 473.962 267.193 475.38C264.883 484.564 261.698 492.89 258.282 493.292C257.046 493.439 254.452 492.417 250.979 483.929C246.672 473.398 245.53 472.366 244.147 472.595C242.533 472.869 242.465 475.05 242.292 480.321C242.03 488.407 241.585 501.937 233.627 501.937C226.575 501.937 221.923 490.282 217.585 461.708C217.543 461.418 217.37 461.179 217.139 461.022C215.086 451.471 212.728 443.334 210.297 434.927C209.49 432.141 208.673 429.311 207.856 426.398C203.816 409.366 206.415 404.563 209.165 399.475C211.35 395.439 213.608 391.267 212.833 381.401C212.712 379.876 213 378.753 213.713 377.97C214.724 376.857 216.6 376.455 218.606 376.267C219.643 376.211 220.697 376.146 221.755 376.074C222.294 376.049 222.819 376.018 223.321 375.973C223.987 375.932 224.647 375.886 225.318 375.846C230.525 375.535 243.408 373.721 250.591 363.535C256.584 355.032 257.092 343.047 252.1 327.906C251.136 324.978 250.36 322.233 249.617 319.58C247.777 313.049 246.221 307.524 242.863 303.214C250.994 308.007 258.843 314.899 259.581 321.588C259.597 322.426 259.55 323.112 259.508 323.768C259.34 326.248 259.199 328.388 261.865 335.941L261.86 335.946ZM259.959 230.536C253.001 241.271 252.933 256.92 252.896 265.327C252.896 266.262 252.886 267.121 252.875 267.884C252.755 275.396 254.981 300.144 258.229 313.476C252.718 306.02 241.889 299.717 234.486 296.855C234.156 296.708 233.816 296.565 233.464 296.423C226.067 293.033 226.355 286.217 226.722 277.668C227.031 270.466 227.382 262.308 223.138 254.45C207.023 224.625 202.559 211.369 209.045 192.263C213.87 179.328 221.535 160.319 235.481 135.2L235.618 135.053C241.15 140.135 246.824 144.41 252.823 148.918C256.679 151.82 260.671 154.819 264.773 158.159C267.288 160.201 269.981 161.778 272.705 163.002C276.273 165.238 274.596 173.056 272.972 180.619C271.511 187.43 270.133 193.87 272.118 197.564C271.464 200.421 266.806 219.98 259.964 230.536H259.959ZM274.392 197.331L274.104 196.894C272.234 193.961 273.648 187.389 275.011 181.036C276.346 174.82 277.714 168.441 276.247 164.405C283.44 166.87 290.34 167.17 294.028 167.327C294.442 167.348 294.814 167.363 295.139 167.379C299.513 167.607 303.951 171.216 304.014 171.267C304.25 171.465 317.038 182.408 321.534 197.686C321.549 197.732 321.565 197.783 321.586 197.829C321.738 198.159 325.39 205.936 327.946 210.271C328.821 211.756 329.235 213.392 329.68 215.125C330.015 216.442 330.372 217.835 330.959 219.257C332.007 223.344 331.582 224.681 331.152 225.118C330.44 225.835 328.208 225.199 326.238 224.635C323.519 223.858 320.711 223.049 318.626 224.304C316.608 225.52 316.415 228.762 316.21 232.198C316.022 235.395 315.807 239.019 314.015 239.731C312.443 240.356 308.593 239.37 299.194 231.146C298.235 230.099 297.245 229.083 296.076 227.919C291.293 223.161 279.008 204.396 274.387 197.331H274.392ZM323.094 264.621C319.7 258.877 316.494 253.449 312.684 248.371L312.407 248C309.373 243.955 307.126 240.95 305.308 238.587C308.608 240.829 311.17 241.911 313.151 241.911C313.758 241.911 314.314 241.81 314.817 241.606C317.824 240.407 318.07 236.29 318.306 232.31C318.463 229.672 318.641 226.683 319.736 226.022C321.025 225.25 323.482 225.952 325.651 226.577C328.313 227.339 331.069 228.127 332.661 226.521C333.301 225.881 333.641 224.945 333.693 223.654C334.102 224.117 334.552 224.574 335.056 225.031C339.556 229.092 354.896 244.015 363.425 265.597C369.062 279.863 373.762 294.08 376.57 302.578C377.958 306.782 378.875 309.557 379.315 310.574C379.561 311.148 379.845 311.59 380.127 311.992C378.959 315.997 376.628 319.072 373.971 320.068C371.336 321.054 367.606 320.358 363.949 318.208C361.408 312.891 355.467 304.413 342.228 291.219C334.018 283.107 328.46 273.709 323.09 264.616L323.094 264.621ZM372.175 371.571C371.959 370.56 372.243 369.487 373.018 368.384C373.295 367.988 373.552 367.632 373.783 367.312C375.983 364.267 376.214 363.688 374.862 358.666C374.411 356.984 374.27 355.489 374.139 354.041C374.04 352.973 373.94 351.937 373.72 350.915C374.925 351.454 375.701 351.601 376.214 351.697C376.282 351.713 376.345 351.718 376.402 351.733C376.497 352.018 376.622 352.668 376.696 353.055C377.194 357.98 378.267 360.811 378.912 362.498C379.499 364.038 379.54 364.293 379.284 364.603C377.943 366.183 376.172 369.66 375.758 370.488C374.647 371.515 373.846 372.572 373.343 373.645C372.855 373.131 372.353 372.425 372.169 371.571H372.175ZM387.52 361.558C386.907 363.876 386.278 366.275 385.906 368.455C385.419 371.337 383.502 372.699 380.84 374.585C379.247 375.719 377.466 376.984 375.701 378.799C375.292 378.244 374.841 377.411 374.815 376.399C374.773 374.921 375.616 373.385 377.329 371.841C377.429 371.754 377.503 371.647 377.56 371.535C377.581 371.495 379.561 367.464 380.897 365.893C381.956 364.643 381.505 363.454 380.876 361.802C380.232 360.099 379.252 357.527 378.771 352.775C378.377 350.712 378.246 350.015 376.617 349.71C375.68 349.537 373.736 349.172 368.91 345.385C368.596 345.136 368.156 345.09 367.79 345.263C367.423 345.436 367.197 345.802 367.208 346.198C367.286 348.983 366.836 356.557 363.891 358.102C362.912 358.615 361.607 358.376 360.01 357.395C359.973 356.338 360.088 352.943 361.922 344.424C362.246 342.503 361.947 340.755 361.659 339.067C361.047 335.484 360.47 332.099 365.253 326.32C365.473 326.02 366.259 324.602 365.128 321.085C367.281 322.03 369.429 322.523 371.378 322.523C372.588 322.523 373.72 322.335 374.736 321.954C377.623 320.871 380.075 318.06 381.558 314.263C382.276 315.956 382.81 318.935 382.621 325.72C382.642 328.749 384.334 334.071 386.132 339.702C387.582 344.267 389.086 348.983 389.39 351.759C389.38 354.488 388.431 358.076 387.515 361.548L387.52 361.558Z" fill="white"/>
<path d="M176.861 15.5683C176.903 15.5683 176.945 15.5683 176.987 15.5632C177.5 15.5022 177.878 15.0956 177.904 14.6076C178.203 13.6979 181.838 8.11199 191.599 5.6926C192.159 5.55537 192.495 5.00136 192.353 4.45751C192.212 3.91366 191.636 3.58837 191.08 3.7256C179.958 6.48548 175.646 13.2506 175.824 14.6737C175.887 15.1871 176.337 15.5683 176.861 15.5683Z" fill="white"/>
<path d="M177.013 25.4643C177.191 25.5863 177.401 25.6422 177.605 25.6422C177.936 25.6422 178.266 25.4897 178.465 25.2051C178.533 25.1136 185.207 15.9698 197.105 16.8949C197.703 16.9457 198.184 16.5238 198.232 15.9648C198.279 15.4056 197.849 14.9177 197.273 14.872C194.533 14.6585 192.06 14.9228 189.849 15.4667C189.912 15.4412 189.97 15.4209 190.027 15.3803C190.132 15.3091 200.903 8.25934 216.615 14.445C217.144 14.6534 217.758 14.4044 217.978 13.8859C218.198 13.3675 217.936 12.7779 217.401 12.5644C200.594 5.94672 189.304 13.398 188.833 13.7131C188.361 14.0334 188.246 14.6636 188.576 15.121C188.78 15.4056 189.105 15.5531 189.435 15.5531C189.456 15.5531 189.472 15.548 189.487 15.5429C181.356 17.6929 176.976 23.7108 176.746 24.0361C176.416 24.4986 176.536 25.1289 177.013 25.4491V25.4643Z" fill="white"/>
<path d="M191.007 19.9598C190.462 20.1376 190.163 20.712 190.347 21.2406C190.53 21.7692 191.122 22.0538 191.672 21.881C191.835 21.8251 208.028 16.6967 219.455 24.3054C219.633 24.4275 219.843 24.4834 220.047 24.4834C220.382 24.4834 220.707 24.3309 220.911 24.0412C221.236 23.5787 221.116 22.9484 220.639 22.6333C208.343 14.4501 191.714 19.7311 191.012 19.9598H191.007Z" fill="white"/>
<path d="M187.355 25.7083C187.245 25.1594 186.7 24.8036 186.129 24.9053C181.624 25.7541 178.286 28.3615 178.145 28.4733C177.699 28.8291 177.631 29.4644 177.993 29.8965C178.197 30.1455 178.501 30.2726 178.805 30.2726C179.035 30.2726 179.271 30.1963 179.465 30.0439C179.496 30.0185 182.551 27.6448 186.527 26.8926C187.093 26.7859 187.465 26.2522 187.355 25.7033V25.7083Z" fill="white"/>
<path d="M216.285 27.5025C206.368 23.8735 193.359 24.8494 192.809 24.8951C192.233 24.9408 191.808 25.4288 191.85 25.9879C191.897 26.547 192.405 26.9689 192.976 26.918C193.108 26.9078 206.074 25.9371 215.547 29.4035C215.667 29.4492 215.793 29.4696 215.914 29.4696C216.337 29.4696 216.731 29.2205 216.893 28.8139C217.097 28.2903 216.825 27.7058 216.285 27.5076V27.5025Z" fill="white"/>
<path d="M189.053 30.0896C184.489 30.4657 184.222 33.2968 184.212 33.4187C184.17 33.9626 184.584 34.415 185.139 34.476C185.176 34.476 185.218 34.4811 185.254 34.4811C185.768 34.4811 186.213 34.0998 186.292 33.6017C186.302 33.5509 186.522 32.3311 189.226 32.1074C189.802 32.0617 190.226 31.5686 190.179 31.0096C190.132 30.4505 189.624 30.0387 189.053 30.0845V30.0896Z" fill="white"/>
</g>
<defs>
<clipPath id="clip0_8_435">
<rect width="392.035" height="700" fill="white"/>
</clipPath>
</defs>
</svg>
