<svg width="393" height="700" viewBox="0 0 393 700" fill="none" xmlns="http://www.w3.org/2000/svg">
<g clip-path="url(#clip0_8_318)">
<path d="M223.874 286.189C225.091 267.044 226.396 238.508 226.448 231.974C226.478 228.719 226.408 227.267 226.355 226.182L226.344 225.954C226.309 225.068 226.274 224.362 226.332 222.968C226.344 222.658 226.361 222.355 226.379 222.081C226.39 222.005 226.39 221.929 226.39 221.865C226.414 221.503 226.431 221.153 226.46 220.821L226.489 220.523C226.501 220.395 226.507 220.278 226.53 220.144C226.944 215.833 227.835 212.928 228.557 210.589L228.621 210.373C229.501 207.533 229.984 205.963 229.081 203.933C227.905 201.273 224.782 198.963 219.254 196.653C219.237 196.648 219.214 196.642 219.196 196.636C219.196 196.636 219.196 196.636 219.179 196.624C218.282 196.309 217.338 195.942 216.383 195.528C216.359 195.516 216.342 195.51 216.307 195.498C210.021 193.177 202.076 191.555 198.622 193.964C197.381 194.833 196.775 196.175 196.775 198.065C196.775 198.497 196.425 198.847 195.971 198.853C195.919 198.835 195.837 198.829 195.785 198.853C195.354 198.853 195.004 198.502 195.004 198.071C195.004 196.187 194.398 194.845 193.146 193.97C192.051 193.206 187.554 191.065 175.501 195.493L175.443 195.516L175.396 195.533C174.464 195.942 173.515 196.315 172.56 196.642H172.548C172.548 196.642 172.525 196.653 172.519 196.659C166.991 198.969 163.868 201.279 162.703 203.939C161.795 205.987 162.284 207.562 163.169 210.426C163.868 212.648 164.824 215.699 165.261 220.167C165.336 220.675 165.383 221.247 165.395 221.9C165.4 221.947 165.4 221.999 165.4 222.075C165.424 222.373 165.441 222.67 165.453 222.979C165.511 224.478 165.488 225.172 165.43 226.217C165.377 227.278 165.307 228.731 165.336 231.986C165.4 238.718 166.711 267.295 167.911 286.201C169.863 316.925 188.695 340.375 195.808 340.369C195.837 340.381 195.872 340.381 195.907 340.381C195.936 340.381 195.965 340.381 195.989 340.369C203.066 340.369 221.893 316.925 223.85 286.195L223.874 286.189ZM169.909 220.249C169.56 220.249 169.257 220.022 169.158 219.683C169.035 219.275 169.274 218.843 169.688 218.715C178.111 216.265 183.831 214.783 192.231 214.952C194.835 214.941 195.027 210.91 195.027 204.768C195.027 204.336 195.377 203.986 195.831 203.986C195.884 204.003 195.965 204.009 196.012 203.986C196.443 203.986 196.792 204.336 196.792 204.768C196.792 210.916 196.99 214.941 199.606 214.952C207.983 214.783 213.709 216.265 222.12 218.709C222.324 218.773 222.487 218.907 222.592 219.088C222.691 219.269 222.715 219.479 222.656 219.678C222.546 220.092 222.091 220.331 221.689 220.214C213.849 217.928 208.39 216.504 200.94 216.504C200.509 216.504 200.072 216.504 199.629 216.516C197.963 216.504 196.827 215.67 196.152 213.955C196.076 213.763 195.756 213.763 195.68 213.955C194.992 215.693 193.897 216.51 192.231 216.516C184.059 216.341 178.426 217.793 170.125 220.214C170.066 220.232 169.997 220.243 169.915 220.243L169.909 220.249ZM215.462 220.85C215.41 221.054 215.276 221.229 215.095 221.334C214.92 221.433 214.711 221.462 214.513 221.404L213.767 221.212C210.691 220.401 205.553 219.042 201.365 219.753C197.503 220.413 196.798 222.478 196.798 226.304C196.798 226.736 196.449 227.086 195.994 227.086C195.965 227.074 195.93 227.074 195.895 227.074C195.866 227.074 195.837 227.074 195.814 227.086C195.377 227.086 195.033 226.742 195.033 226.304C195.033 222.478 194.323 220.418 190.455 219.753C186.26 219.042 181.105 220.407 178.029 221.218L177.301 221.404C177.103 221.457 176.899 221.433 176.719 221.334C176.538 221.229 176.404 221.06 176.352 220.85C176.241 220.424 176.492 220.004 176.917 219.893L177.622 219.707C180.82 218.855 186.167 217.426 190.723 218.208C193.175 218.622 194.8 219.631 195.691 221.288C195.779 221.451 196.053 221.451 196.14 221.288C197.031 219.631 198.656 218.622 201.109 218.208C205.647 217.426 211 218.855 214.198 219.707L214.909 219.893C215.328 220.004 215.573 220.424 215.462 220.844V220.85ZM170.969 246.908C170.824 246.756 170.748 246.558 170.748 246.348C170.748 246.126 170.841 245.916 170.998 245.776C171.144 245.642 171.336 245.572 171.534 245.583L172.402 245.595C181.123 245.741 189.359 245.881 193.53 243.513C194.794 242.801 195.039 241.185 195.115 239.674C195.074 238.793 195.097 237.843 195.126 236.933L195.097 235.976C195.045 234.757 195.022 233.742 195.022 232.785C195.022 232.353 195.371 232.003 195.825 232.003C195.878 232.021 195.954 232.021 196.006 232.003C196.437 232.003 196.787 232.353 196.787 232.785C196.787 233.928 196.74 235.066 196.705 236.005C196.693 236.267 196.688 236.518 196.688 236.781C196.717 237.761 196.74 238.799 196.688 239.791C196.804 241.838 197.282 242.947 198.272 243.507C202.443 245.875 210.68 245.735 219.394 245.589L220.28 245.577C220.472 245.566 220.652 245.63 220.798 245.764C220.961 245.91 221.054 246.126 221.06 246.336C221.06 246.768 220.711 247.129 220.285 247.141L219.429 247.153C217.67 247.188 215.375 247.223 213.196 247.223C207.208 247.223 201.155 246.937 197.497 244.866C196.921 244.533 196.455 244.096 196.105 243.571C196.058 243.501 195.977 243.454 195.895 243.454C195.808 243.454 195.726 243.501 195.686 243.571C195.354 244.096 194.905 244.522 194.305 244.866C190.653 246.943 184.6 247.228 178.606 247.228C176.422 247.228 174.132 247.188 172.385 247.158L171.517 247.147C171.313 247.147 171.115 247.059 170.969 246.908ZM215.485 249.439C215.456 249.655 215.346 249.848 215.177 249.976C215.019 250.098 214.821 250.145 214.617 250.116L214.513 250.104C211.285 249.731 205.88 249.107 201.138 249.183C197.451 249.223 196.792 251.131 196.792 256.468C196.792 256.9 196.443 257.25 195.989 257.25C195.959 257.238 195.924 257.233 195.889 257.233C195.86 257.233 195.831 257.232 195.808 257.244C195.377 257.244 195.027 256.894 195.027 256.463C195.027 251.125 194.369 249.218 190.67 249.177C185.952 249.107 180.563 249.725 177.342 250.093L177.185 250.11C176.76 250.163 176.375 249.859 176.323 249.433C176.276 249.002 176.585 248.611 177.01 248.564C180.295 248.179 185.789 247.543 190.693 247.613C193.169 247.648 194.8 248.5 195.686 250.209C195.773 250.378 196.047 250.378 196.134 250.209C197.02 248.5 198.651 247.648 201.126 247.613C206.101 247.549 211.757 248.208 214.804 248.564C215.229 248.611 215.538 249.002 215.491 249.428L215.485 249.439ZM171.843 274.692C171.703 274.54 171.628 274.342 171.633 274.138C171.639 273.922 171.738 273.718 171.896 273.572C172.041 273.438 172.239 273.373 172.437 273.385C175.408 273.49 177.558 273.636 179.457 273.758L180.022 273.793C183.086 274.021 185.736 274.213 190.816 274.062C194.282 273.811 195.022 272.883 195.022 263.626C195.022 263.194 195.371 262.844 195.825 262.838C195.878 262.856 195.959 262.862 196.012 262.838C196.443 262.838 196.792 263.188 196.792 263.62C196.792 273.315 197.742 273.817 201.051 274.067C206.072 274.207 208.717 274.009 211.781 273.788L212.346 273.747C214.245 273.618 216.394 273.473 219.377 273.368C219.563 273.35 219.749 273.414 219.901 273.548C220.07 273.694 220.169 273.904 220.175 274.12C220.181 274.324 220.105 274.522 219.965 274.674C219.819 274.826 219.627 274.913 219.417 274.925C216.19 275.048 213.93 275.205 211.891 275.351C209.456 275.52 207.359 275.672 204.266 275.672C203.06 275.672 202.012 275.654 200.963 275.619C198.313 275.421 196.915 274.598 196.152 272.79C196.111 272.697 196.018 272.632 195.919 272.632C195.82 272.632 195.726 272.691 195.686 272.784C194.911 274.593 193.519 275.415 190.891 275.613C189.82 275.648 188.748 275.666 187.53 275.666C184.431 275.666 182.235 275.508 179.917 275.345C177.878 275.199 175.612 275.042 172.391 274.919C172.181 274.913 171.989 274.826 171.849 274.674L171.843 274.692ZM196.792 332.792C196.792 333.223 196.443 333.573 196.012 333.573H195.808C195.377 333.573 195.027 333.223 195.027 332.792V293.638C195.027 293.201 195.371 292.857 195.808 292.857H196.012C196.443 292.857 196.792 293.207 196.792 293.638V332.792ZM196.693 284.842C196.682 284.888 196.682 284.941 196.693 284.993C196.722 285.67 196.722 286.353 196.722 287.012V287.467C196.722 287.898 196.373 288.248 195.942 288.248H195.872C195.441 288.248 195.091 287.898 195.091 287.467V287.012C195.091 286.341 195.091 285.652 195.121 284.952V284.888C195.016 282.322 194.567 280.531 192.709 280.105C189.662 279.417 181.274 278.583 177.587 278.583C177.418 278.583 177.261 278.583 177.109 278.583C176.929 278.6 176.742 278.53 176.591 278.396C176.428 278.244 176.329 278.034 176.329 277.818C176.329 277.608 176.404 277.41 176.544 277.258C176.69 277.107 176.882 277.025 177.092 277.019C180.686 276.943 189.791 277.836 193.053 278.577C194.235 278.851 195.103 279.463 195.697 280.449C195.744 280.525 195.825 280.572 195.913 280.572C196 280.572 196.088 280.525 196.128 280.449C196.711 279.463 197.567 278.857 198.755 278.577C201.988 277.842 211.099 276.955 214.728 277.019C214.938 277.019 215.13 277.107 215.276 277.258C215.416 277.41 215.491 277.603 215.485 277.813C215.485 278.028 215.386 278.233 215.229 278.378C215.089 278.507 214.915 278.577 214.734 278.577C214.717 278.577 214.705 278.577 214.687 278.577C211.338 278.489 202.326 279.364 199.111 280.093C197.258 280.519 196.798 282.293 196.693 284.836V284.842Z" fill="#313131"/>
<path d="M162.086 236.308L162.068 236.407L162.074 236.402L162.057 236.495L162.046 236.558C160.434 245.555 158.612 255.738 160.006 265.201C162.878 284.842 156.08 293.79 153.022 296.724C149.999 299.623 145.257 301.315 140.533 301.315C139.438 301.315 138.348 301.222 137.276 301.035C137.142 301.012 137.049 300.889 137.067 300.755C137.824 294.607 138.436 288.983 138.791 284.917C139.036 282.03 139.42 279.137 139.834 276.074L139.851 275.928L139.852 275.92C141.36 264.653 142.92 253.007 137.259 241.733C125.655 219.351 122.696 205.252 122.218 202.656V202.597C122.218 202.568 122.218 202.545 122.23 202.516C122.894 200.579 123.401 198.532 123.75 196.438C124.28 193.124 125.504 185.459 122.981 179.69C122.935 179.579 122.97 179.451 123.069 179.381C123.168 179.311 123.302 179.322 123.389 179.404C124.799 180.74 126.04 182.192 127.071 183.435C127.775 184.281 128.375 184.957 128.952 185.552C128.96 185.561 128.968 185.57 128.977 185.58C128.987 185.592 128.998 185.604 129.01 185.617C129.01 185.623 129.051 185.663 129.051 185.663C135.118 192.448 142.238 198.589 148.525 204.013L148.589 204.067L148.67 204.143L148.681 204.152C156.488 210.892 163.228 216.71 163.723 220.366C163.739 220.448 163.751 220.562 163.762 220.672L163.764 220.692V220.763C163.775 220.792 163.787 220.879 163.787 220.978C163.81 221.136 163.822 221.323 163.833 221.521L163.851 221.859C163.863 221.906 163.863 221.952 163.863 221.993C163.985 225.692 163.105 230.609 162.086 236.308Z" fill="#313131"/>
<path d="M268.407 179.427C268.495 179.346 268.629 179.334 268.728 179.404L268.734 179.41C268.833 179.48 268.867 179.608 268.821 179.719C266.31 185.477 267.528 193.124 268.052 196.391L268.064 196.449C268.413 198.543 268.92 200.591 269.584 202.527C269.596 202.551 269.596 202.58 269.596 202.609V202.667C268.926 206.325 265.862 219.957 254.555 241.757C248.893 253.015 250.454 264.67 251.974 275.934V275.992C252.429 279.317 252.796 282.088 253.04 284.923C253.372 288.884 253.984 294.513 254.753 300.761C254.771 300.895 254.677 301.017 254.543 301.041C253.477 301.227 252.382 301.315 251.293 301.315C246.569 301.315 241.821 299.623 238.798 296.724C235.74 293.784 228.942 284.836 231.813 265.201C233.217 255.652 231.377 245.426 229.745 236.407L229.728 236.297C228.709 230.603 227.829 225.686 227.951 221.987C227.951 221.964 227.951 221.923 227.963 221.877C227.963 221.836 227.969 221.783 227.98 221.731C228.004 221.287 228.045 220.832 228.085 220.383C228.085 220.372 228.085 220.337 228.103 220.284C228.697 216.616 235.427 210.808 243.218 204.086L243.304 204.011C249.576 198.603 256.666 192.489 262.757 185.669L262.798 185.622C262.815 185.599 262.838 185.576 262.856 185.558C263.491 184.899 264.12 184.187 264.732 183.441C265.833 182.111 267.038 180.705 268.407 179.427Z" fill="#313131"/>
<path d="M78.6692 244.154C82.3216 244.154 86.3235 242.725 90.2439 240.024V240.018C90.3487 239.948 90.4827 239.966 90.5701 240.053C90.6574 240.141 90.6691 240.281 90.5934 240.38C88.2575 243.553 85.3915 247.456 83.976 249.509C81.2364 253.919 79.7137 257.126 78.3739 259.948L78.3255 260.05L78.3238 260.053C75.9768 264.987 73.7626 269.642 66.0984 279.242C59.0267 288.067 54.1976 291.76 49.0831 295.668L49.0475 295.695C45.3887 298.487 41.5997 301.378 36.8327 306.373C36.821 306.384 36.8094 306.396 36.7919 306.408C35.8599 307.638 34.1356 310.007 32.8832 312.363C32.8541 312.416 32.8133 312.457 32.755 312.48C30.99 313.197 29.2366 313.553 27.6172 313.553C26.1667 313.553 24.8211 313.267 23.6677 312.69C20.8775 311.307 18.7163 307.953 18.029 303.94C18.0231 303.887 18.029 303.835 18.0523 303.788C18.5299 302.773 19.0658 301.723 19.6425 300.667C21.7454 296.117 24.2095 290.033 26.9823 283.138L27.0464 282.975C33.4541 267.091 41.4288 247.327 49.217 237.942C53.8248 232.388 57.1626 228.888 59.6033 226.333L59.7082 226.222C63.1451 222.623 65.0324 220.646 66.4829 217.134C66.5406 216.997 66.5977 216.861 66.6547 216.725C66.7526 216.491 66.8493 216.258 66.9489 216.026L67.013 215.88C67.0654 215.757 67.1994 215.699 67.3276 215.74C67.4557 215.781 67.5256 215.915 67.4965 216.043C63.1742 233.788 68.2363 240.467 73.2401 242.947C74.8595 243.746 76.6828 244.154 78.6692 244.154Z" fill="#313131"/>
<path d="M372.207 300.755C372.818 301.857 373.325 302.861 373.75 303.788C373.768 303.835 373.774 303.882 373.768 303.934C373.104 307.942 370.948 311.296 368.146 312.696C366.999 313.273 365.647 313.559 364.197 313.559C362.572 313.559 360.812 313.203 359.053 312.492C359.001 312.468 358.954 312.427 358.925 312.375C357.673 310.018 355.948 307.644 355.028 306.442C355.022 306.437 355.012 306.424 355.002 306.41C354.991 306.397 354.981 306.384 354.976 306.378C350.187 301.367 346.395 298.474 342.726 295.675L342.691 295.648C337.589 291.744 332.76 288.048 325.716 279.242C318.009 269.611 315.813 264.967 313.489 260.05L313.407 259.875L313.402 259.866C311.989 256.899 310.527 253.833 307.797 249.451C306.592 247.712 304.256 244.492 301.232 240.386C301.163 240.287 301.168 240.147 301.256 240.059C301.343 239.966 301.483 239.954 301.582 240.024C305.491 242.725 309.487 244.154 313.145 244.154C315.126 244.154 316.955 243.746 318.574 242.947C323.578 240.473 328.634 233.812 324.347 216.096C324.312 215.967 324.388 215.833 324.516 215.792C324.644 215.746 324.784 215.816 324.83 215.938L324.832 215.943C324.925 216.169 325.017 216.395 325.116 216.621C325.191 216.79 325.261 216.959 325.331 217.128C326.799 220.675 328.681 222.647 332.106 226.228L332.316 226.45L332.4 226.539C334.816 229.074 338.118 232.539 342.603 237.947C350.415 247.362 358.407 267.202 364.826 283.138L364.96 283.471C367.576 289.957 370.045 296.082 372.207 300.755Z" fill="#313131"/>
<path d="M120.995 201.262C120.978 201.32 120.937 201.372 120.884 201.402V201.396C120.768 201.466 120.669 201.582 120.605 201.74C118.228 207.579 114.174 211.233 111.488 213.654L111.471 213.669C111.104 213.996 110.772 214.293 110.486 214.573C109.339 215.635 104.725 221.497 97.8341 230.65C90.6342 239.458 83.842 242.585 78.6984 242.585C76.8809 242.585 75.2732 242.194 73.9276 241.529C68.3878 238.799 61.3568 229.197 76.5081 195.562C76.5081 195.557 76.5547 195.463 76.5547 195.463C81.5586 185.996 84.3954 183.015 86.0906 181.236L86.2595 181.061C86.5216 180.787 86.7605 180.53 86.9818 180.267C86.9993 180.25 87.0168 180.232 87.0342 180.221C88.7701 179.06 90.6342 178.022 92.5856 177.147C94.1701 176.435 95.8011 175.834 97.4264 175.362C97.5079 175.344 97.5545 175.332 97.5895 175.315C99.4768 174.772 101.393 174.382 103.327 174.142C103.421 174.142 103.485 174.137 103.549 174.119C104.588 174.003 105.389 173.973 105.868 173.956H105.873C110.737 173.81 115.327 173.676 118.683 176.417C124.613 181.247 122.865 192.092 122.207 196.169L121.956 196.14L122.207 196.181C121.933 197.896 121.525 199.605 120.995 201.262Z" fill="#313131"/>
<path d="M315.259 195.475C330.463 229.186 323.432 238.805 317.886 241.541L317.898 241.547C316.547 242.218 314.933 242.608 313.116 242.608C307.995 242.608 301.232 239.499 294.056 230.749C294.038 230.732 294.026 230.714 294.021 230.697C287.106 221.533 282.493 215.664 281.333 214.585C281.042 214.317 280.716 214.019 280.355 213.698C277.664 211.283 273.609 207.626 271.215 201.758C271.151 201.606 271.046 201.478 270.918 201.396C270.866 201.367 270.831 201.32 270.813 201.262C270.283 199.599 269.875 197.896 269.607 196.198L269.606 196.19C268.947 192.089 267.206 181.256 273.132 176.429C276.496 173.683 281.082 173.822 285.931 173.968H285.941C286.425 173.985 287.229 174.02 288.236 174.125C288.307 174.139 288.364 174.143 288.415 174.145C288.449 174.148 288.48 174.15 288.51 174.154C290.38 174.382 292.291 174.773 294.195 175.309C294.283 175.344 294.318 175.356 294.359 175.362C296.019 175.84 297.65 176.441 299.234 177.153C301.186 178.028 303.056 179.066 304.786 180.227L304.794 180.233C304.814 180.247 304.828 180.258 304.838 180.273C305.013 180.478 305.193 180.676 305.386 180.88C305.496 180.997 305.612 181.124 305.729 181.253L305.729 181.253L305.742 181.267C307.427 183.03 310.257 185.991 315.259 195.475Z" fill="#313131"/>
<path d="M89.0614 177.164C89.0265 177.188 88.9799 177.199 88.9391 177.199H88.9274C88.8692 177.199 88.8168 177.182 88.7702 177.147C88.6944 177.083 88.6537 176.978 88.6828 176.878C91.8866 164.733 93.6808 160.335 94.8691 157.424L94.8907 157.371C95.486 155.891 95.952 154.734 96.3837 153.213C99.6516 142.532 107.62 129.138 127.048 126C127.484 125.924 127.799 125.866 127.974 125.825L128.236 125.755C128.426 125.707 128.642 125.652 128.878 125.592C129.161 125.52 129.472 125.441 129.803 125.358C130.175 125.259 130.536 125.166 130.896 125.073L130.898 125.073L131.515 124.915C131.539 124.909 131.556 124.909 131.579 124.909C141.843 122.844 152.626 125.51 158.137 127.283C158.236 127.312 158.311 127.412 158.311 127.517C158.317 127.628 158.247 127.721 158.148 127.762C155.795 128.654 152.346 130.13 149.288 132.078C142.819 136.195 140.063 139.839 136.251 144.881L136.245 144.888C134.469 147.257 132.482 149.899 129.715 153.148L129.703 153.164C126.814 156.553 120.815 163.592 113.207 168.77C111.168 170.153 107.737 171.465 103.287 172.567H103.275C103.246 172.579 103.211 172.585 103.188 172.585C101.207 172.812 99.1623 173.227 97.1351 173.816C97.1252 173.818 97.1159 173.82 97.1078 173.822C97.0501 173.835 97.0192 173.842 96.9837 173.862C95.2245 174.376 93.541 174.994 91.9391 175.712C90.9313 176.173 89.9643 176.657 89.0614 177.164Z" fill="#313131"/>
<path d="M233.503 127.523C233.503 127.418 233.573 127.324 233.678 127.289L233.672 127.301C239.171 125.528 249.942 122.856 260.246 124.933C260.39 124.97 260.531 125.005 260.672 125.042C260.886 125.096 261.098 125.151 261.312 125.207L262 125.382L262.318 125.462C262.926 125.615 263.456 125.749 263.829 125.848C263.998 125.883 264.312 125.948 264.749 126.018C284.165 129.15 292.139 142.526 295.413 153.195C295.845 154.759 296.312 155.918 296.897 157.372L296.916 157.418C298.116 160.358 299.916 164.768 303.12 176.89C303.149 176.989 303.114 177.094 303.032 177.158C302.986 177.193 302.928 177.211 302.875 177.211C302.834 177.211 302.794 177.199 302.753 177.176C301.838 176.663 300.871 176.173 299.869 175.723C295.349 173.693 291.231 172.894 288.568 172.585C284.101 171.494 280.664 170.182 278.596 168.77C270.965 163.581 264.972 156.537 262.084 153.141L262.07 153.125C259.239 149.788 257.124 146.983 255.586 144.929L255.522 144.848C251.724 139.819 248.98 136.191 242.526 132.084C239.468 130.147 236.019 128.666 233.666 127.768C233.567 127.727 233.503 127.628 233.503 127.523Z" fill="#313131"/>
<path d="M230.614 126.682C230.584 126.682 230.532 126.671 230.532 126.671V126.665C224.084 124.472 220.81 122.267 220.81 116.282V104.212C220.81 104.113 220.868 104.02 220.961 103.979C221.054 103.938 221.159 103.956 221.235 104.026C223.006 105.671 226.297 108.587 228.458 109.672C230.142 110.527 234.659 112.425 238.702 114.124L238.909 114.211L240.196 114.753C240.551 114.903 240.904 115.053 241.25 115.199C243.462 116.133 245.436 116.967 246.382 117.396C248.107 118.189 250.507 120.038 252.621 121.707L252.761 121.817C252.825 121.869 252.888 121.918 252.949 121.966C253.027 122.026 253.103 122.085 253.175 122.144C253.25 122.214 253.285 122.331 253.25 122.43C253.215 122.535 253.116 122.599 253.011 122.599C252.749 122.593 252.494 122.593 252.231 122.593C241.764 122.593 232.495 125.971 230.707 126.665C230.678 126.682 230.643 126.682 230.614 126.682Z" fill="#313131"/>
<path d="M161.113 126.671C159.284 125.959 149.597 122.424 138.797 122.605V122.611C138.68 122.611 138.587 122.547 138.552 122.442C138.517 122.337 138.552 122.226 138.634 122.156C138.657 122.137 138.68 122.118 138.704 122.099C138.807 122.015 138.918 121.925 139.036 121.835L139.181 121.718L139.183 121.717C140.948 120.329 143.609 118.236 145.42 117.408C146.51 116.918 148.968 115.879 151.572 114.783L152.9 114.223L153.113 114.133C157.154 112.435 161.667 110.538 163.362 109.684C165.401 108.663 168.406 106.05 170.573 104.038C170.649 103.968 170.754 103.95 170.847 103.991C170.94 104.032 170.999 104.125 170.999 104.224V116.293C170.999 122.273 167.725 124.478 161.288 126.677C161.265 126.688 161.236 126.688 161.206 126.688C161.172 126.688 161.142 126.683 161.113 126.671Z" fill="#313131"/>
<path d="M161.668 128.206C161.694 128.198 161.721 128.19 161.748 128.182H161.742L161.853 128.147C164.672 127.313 169.863 125.784 179.02 126.653C194.841 128.164 195.022 138.198 195.022 138.623V167.574C195.022 173.372 193.012 178.938 189.365 183.243C185.352 187.967 180.464 191.613 174.843 194.075C174.838 194.077 174.831 194.08 174.823 194.083C174.803 194.091 174.777 194.102 174.744 194.11C173.696 194.507 172.839 194.839 172.059 195.166C172.047 195.172 172.03 195.183 172.03 195.183H172.012C167.934 196.589 163.699 197.272 159.476 197.272C148.88 197.272 138.366 192.978 130.607 185.045C130.566 185.01 130.531 184.975 130.502 184.934L130.473 184.905C130.445 184.875 130.417 184.844 130.39 184.815C130.297 184.714 130.209 184.618 130.123 184.514C130.088 184.467 130.053 184.438 130.024 184.415C129.995 184.398 129.972 184.38 129.954 184.362C129.395 183.762 128.83 183.12 128.271 182.437C124.374 177.695 119.48 172.608 110.795 172.34C110.679 172.334 110.58 172.247 110.556 172.13C110.533 172.013 110.597 171.897 110.708 171.85C112.007 171.302 113.143 170.701 114.086 170.059C121.915 164.745 128.009 157.582 130.939 154.134C133.511 151.108 135.428 148.577 137.117 146.346L137.236 146.189L137.474 145.868L137.486 145.853C141.336 140.74 143.877 137.365 150.127 133.397C153.872 131.011 158.393 129.29 160.752 128.479C160.775 128.468 160.804 128.462 160.839 128.45L161.177 128.345C161.212 128.328 161.235 128.316 161.27 128.316C161.281 128.312 161.292 128.309 161.303 128.307C161.309 128.305 161.316 128.304 161.323 128.304C161.33 128.302 161.339 128.299 161.347 128.296C161.365 128.289 161.386 128.281 161.41 128.281C161.495 128.259 161.58 128.232 161.668 128.206Z" fill="#313131"/>
<path d="M217.064 194.11C217.012 194.098 216.953 194.069 216.953 194.069H216.942C211.338 191.613 206.451 187.967 202.431 183.242C198.79 178.949 196.787 173.384 196.787 167.574V138.606C196.781 138.606 196.757 135.602 199.233 132.58C201.965 129.249 206.526 127.254 212.788 126.659C221.932 125.784 227.121 127.318 229.906 128.14L229.909 128.141L230.066 128.187C230.182 128.228 230.299 128.263 230.41 128.292C230.433 128.292 230.462 128.304 230.497 128.316C230.503 128.316 230.555 128.333 230.555 128.333C230.579 128.339 230.602 128.345 230.631 128.357C230.643 128.362 230.695 128.38 230.707 128.38C230.771 128.403 230.829 128.421 230.893 128.438L230.975 128.467C230.996 128.474 231.017 128.481 231.036 128.488C231.072 128.501 231.107 128.512 231.144 128.52C233.503 129.337 237.977 131.052 241.676 133.408C247.93 137.374 250.476 140.757 254.325 145.87L254.328 145.874L254.578 146.207C256.297 148.476 258.242 151.042 260.899 154.169C263.852 157.64 269.939 164.786 277.716 170.065C278.66 170.707 279.796 171.307 281.095 171.856C281.205 171.902 281.269 172.019 281.246 172.136C281.229 172.258 281.124 172.346 281.007 172.346C272.316 172.608 267.429 177.695 263.526 182.443C263.019 183.073 262.483 183.668 261.842 184.368C261.842 184.374 261.831 184.386 261.831 184.386C261.825 184.392 261.816 184.399 261.807 184.406C261.799 184.413 261.79 184.421 261.784 184.427C261.749 184.45 261.726 184.467 261.697 184.508L261.569 184.654C261.539 184.685 261.511 184.717 261.482 184.747C261.425 184.81 261.369 184.872 261.306 184.934C261.312 184.94 261.266 184.987 261.225 185.027C253.472 192.967 242.94 197.266 232.338 197.266C228.114 197.266 223.874 196.583 219.796 195.172H219.773C219.77 195.169 219.768 195.168 219.765 195.167C219.759 195.166 219.753 195.166 219.749 195.166C218.777 194.763 217.804 194.39 217.064 194.11Z" fill="#313131"/>
<path d="M267.353 462.175L267.272 462.595L267.254 462.589C265.454 471.788 263.753 480.468 259.373 482.644C257.578 483.537 255.359 483.315 252.592 481.962C251.369 481.361 250.309 481.268 249.441 481.682C247.687 482.522 247.111 485.048 246.382 488.25L246.38 488.261C245.128 493.742 243.71 499.952 236.334 500.08H236.177C222.895 500.08 218.643 470.493 218.602 470.196C218.596 470.155 218.59 470.12 218.579 470.091C218.561 470.056 218.561 470.027 218.561 469.992C218.183 467.186 217.74 464.403 217.251 461.726V461.638L217.227 461.545C217.21 461.446 217.192 461.347 217.163 461.248C216.948 460.063 216.709 458.798 216.394 457.246L216.359 457.071C216.319 456.884 216.278 456.68 216.243 456.482C212.987 438.229 214.658 436.193 218.322 431.737L218.325 431.733C222.094 427.16 227.784 420.256 232.687 393.721C234.02 386.5 234.96 377.936 235.955 368.871L235.973 368.713L235.989 368.566C238.831 342.875 242.05 313.77 254.876 304.803C254.951 304.751 255.045 304.745 255.126 304.78C255.208 304.815 255.266 304.891 255.278 304.978C257.019 318.494 258.819 329.881 259.856 333.993L259.914 334.203C259.987 334.462 260.073 334.795 260.173 335.182L260.211 335.329C265.396 354.929 276.586 405.942 268.571 456.196V456.208C268.14 458.197 267.738 460.221 267.353 462.175Z" fill="#313131"/>
<path d="M155.824 368.713C156.768 377.37 157.752 386.318 159.109 393.721H159.104C164.008 420.263 169.7 427.163 173.468 431.731L173.473 431.736C177.134 436.183 178.809 438.218 175.548 456.482C175.519 456.674 175.478 456.867 175.437 457.059C175.432 457.123 175.42 457.17 175.408 457.211C175.175 458.366 174.948 459.521 174.75 460.658L174.657 461.096C174.622 461.265 174.587 461.44 174.552 461.615C174.546 461.662 174.534 461.72 174.534 461.773C174.039 464.52 173.602 467.273 173.23 469.992C173.23 470.013 173.227 470.035 173.223 470.055C173.22 470.068 173.217 470.08 173.212 470.091C173.208 470.108 173.203 470.132 173.197 470.164C173.195 470.175 173.192 470.188 173.189 470.202C173.183 470.272 172.111 477.756 169.391 485.193C165.832 494.935 161.067 500.08 155.614 500.08H155.469C148.092 499.952 146.674 493.751 145.422 488.276L145.42 488.268L145.397 488.163C144.669 485.007 144.092 482.51 142.35 481.682C141.465 481.268 140.405 481.361 139.199 481.962C136.426 483.315 134.207 483.537 132.413 482.644C128.033 480.469 126.332 471.791 124.532 462.611L124.531 462.607L124.49 462.403L124.427 462.081C124.033 460.093 123.628 458.047 123.191 456.027C115.251 405.878 126.418 354.912 131.585 335.323C131.684 334.962 131.766 334.647 131.836 334.384L131.941 333.988C132.978 329.887 134.778 318.506 136.519 304.99C136.531 304.903 136.589 304.827 136.671 304.792C136.752 304.757 136.851 304.762 136.921 304.815C149.748 313.77 152.966 342.872 155.808 368.564L155.812 368.603L155.824 368.713Z" fill="#313131"/>
<path d="M124.152 513.794C124.455 512.954 124.694 512.272 124.869 511.712C127.91 512.639 129.459 514.477 131.859 518.753C131.458 525.761 130.147 536.472 129.004 545.81C128.736 547.999 128.477 550.112 128.242 552.084C127.374 559.358 124.24 568.453 117.442 573.889C117.371 573.95 117.297 574.008 117.224 574.061C117.172 574.099 117.12 574.135 117.069 574.169C114.191 541.841 121.234 521.978 124.152 513.794Z" fill="#313131"/>
<path d="M259.955 518.752C262.355 514.477 263.905 512.645 266.945 511.712C267.126 512.272 267.359 512.954 267.662 513.794C270.574 521.978 277.623 541.841 274.745 574.169C274.623 574.087 274.495 573.994 274.372 573.889C267.574 568.447 264.44 559.358 263.573 552.084C263.337 550.112 263.079 547.999 262.811 545.811C261.667 536.472 260.356 525.761 259.955 518.752Z" fill="#313131"/>
<path d="M244.263 526.695C243.853 526.602 243.431 526.492 243.021 526.353V526.342C240.144 525.432 237.313 523.658 234.703 521.15C235.064 524.02 234.598 528.972 233.212 541.287C229.653 567.159 232.157 570.662 234.574 574.045L234.575 574.047L234.615 574.104C235.5 575.352 236.414 576.641 237.056 578.83C237.08 578.9 237.097 578.976 237.126 579.046L237.563 578.694C243.501 573.91 248.599 569.802 247.792 556.972C247.293 549.047 246.015 539.647 244.979 532.02L244.976 532.006C244.719 530.109 244.476 528.322 244.263 526.695Z" fill="#313131"/>
<path d="M157.111 521.156C154.507 523.664 151.671 525.432 148.793 526.347V526.359C148.379 526.493 147.954 526.61 147.541 526.703C147.328 528.335 147.084 530.128 146.825 532.032L146.824 532.038C145.787 539.665 144.509 549.065 144.01 556.99C143.203 569.819 148.302 573.927 154.24 578.712C154.385 578.828 154.531 578.945 154.676 579.063C154.682 579.049 154.688 579.035 154.693 579.02C154.701 578.999 154.709 578.976 154.716 578.955C154.728 578.919 154.738 578.882 154.746 578.847C155.392 576.642 156.312 575.352 157.2 574.104L157.228 574.064C159.651 570.675 162.15 567.175 158.591 541.304C157.205 528.99 156.739 524.037 157.1 521.167L157.111 521.156Z" fill="#313131"/>
<path d="M199.606 214.696C208.035 214.532 213.761 216.014 222.196 218.476H222.19C222.738 218.633 223.052 219.211 222.895 219.759C222.767 220.214 222.353 220.506 221.905 220.506C221.806 220.506 221.707 220.494 221.614 220.465C213.365 218.062 207.755 216.609 199.618 216.772C197.695 216.761 196.565 215.711 195.907 214.06C195.249 215.711 194.13 216.767 192.214 216.772C184.053 216.609 178.443 218.062 170.195 220.465C170.096 220.494 169.997 220.506 169.903 220.506C169.455 220.506 169.047 220.214 168.913 219.759C168.756 219.211 169.07 218.633 169.618 218.476C178.053 216.014 183.779 214.532 192.231 214.696C194.585 214.69 194.765 210.758 194.765 204.767C194.765 204.196 195.231 203.729 195.802 203.729C195.814 203.729 195.827 203.73 195.839 203.733L195.854 203.735L195.857 203.736C195.864 203.737 195.871 203.738 195.878 203.738C195.888 203.74 195.898 203.741 195.907 203.741C195.942 203.735 195.977 203.729 196.012 203.729C196.589 203.729 197.049 204.196 197.049 204.767C197.049 210.758 197.223 214.69 199.606 214.696Z" fill="white"/>
<path d="M178.099 221.462L177.365 221.655H177.383C176.835 221.801 176.264 221.468 176.125 220.914C175.979 220.366 176.311 219.8 176.864 219.654L177.587 219.462C180.808 218.61 186.196 217.187 190.775 217.968C193.589 218.447 195.109 219.654 195.924 221.182C196.74 219.654 198.26 218.447 201.074 217.968C205.658 217.187 211.04 218.609 214.261 219.461L214.262 219.462L214.984 219.654C215.538 219.794 215.864 220.36 215.724 220.914C215.584 221.468 215.014 221.795 214.466 221.655L213.732 221.462C210.674 220.652 205.553 219.298 201.418 220.004C197.707 220.64 197.055 222.542 197.055 226.298C197.055 226.87 196.588 227.337 196.018 227.337C195.983 227.337 195.948 227.325 195.913 227.325C195.878 227.331 195.843 227.337 195.808 227.337C195.231 227.337 194.771 226.87 194.771 226.298C194.771 222.536 194.119 220.634 190.414 220.004C186.272 219.298 181.158 220.652 178.099 221.462Z" fill="white"/>
<path d="M190.664 249.439C185.899 249.381 180.464 250.005 177.22 250.378H177.231C176.655 250.454 176.148 250.034 176.084 249.468C176.02 248.897 176.427 248.383 176.993 248.319C180.284 247.94 185.818 247.31 190.699 247.368C193.571 247.409 195.097 248.517 195.913 250.104C196.728 248.517 198.254 247.409 201.126 247.368C206.025 247.31 211.536 247.94 214.833 248.319C215.398 248.383 215.806 248.902 215.742 249.468C215.678 250.034 215.171 250.454 214.594 250.378L214.56 250.374H214.559C211.31 250 205.926 249.381 201.15 249.439C197.643 249.486 197.049 251.236 197.049 256.474C197.049 257.046 196.583 257.512 196.012 257.512C195.994 257.512 195.977 257.51 195.959 257.507C195.951 257.505 195.943 257.504 195.935 257.503C195.926 257.501 195.916 257.501 195.907 257.501C195.872 257.507 195.837 257.512 195.802 257.512C195.225 257.512 194.765 257.046 194.765 256.474C194.765 251.236 194.177 249.486 190.664 249.439Z" fill="white"/>
<path d="M196.012 292.6H195.802C195.231 292.6 194.765 293.067 194.765 293.638V332.797C194.765 333.369 195.225 333.836 195.802 333.836H196.012C196.583 333.836 197.049 333.369 197.049 332.797V293.638C197.049 293.067 196.588 292.6 196.012 292.6Z" fill="white"/>
<path d="M220.285 245.327H220.268L219.412 245.338L219.325 245.339C210.66 245.479 202.499 245.611 198.4 243.285C197.398 242.719 197.037 241.517 196.944 239.709C196.99 238.822 196.973 237.872 196.944 236.88C196.949 236.619 196.959 236.358 196.97 236.084L196.973 235.987L196.982 235.709C197.015 234.773 197.049 233.799 197.049 232.791C197.049 232.219 196.589 231.753 196.012 231.753C195.977 231.753 195.942 231.758 195.907 231.764C195.897 231.764 195.887 231.763 195.877 231.762C195.872 231.761 195.867 231.761 195.863 231.759L195.855 231.758C195.837 231.755 195.82 231.753 195.802 231.753C195.231 231.753 194.765 232.219 194.765 232.791C194.765 233.899 194.8 234.967 194.841 235.987L194.844 236.058C194.854 236.342 194.865 236.616 194.87 236.88C194.841 237.872 194.823 238.822 194.87 239.709C194.771 241.517 194.41 242.719 193.414 243.285C189.301 245.618 181.094 245.484 172.402 245.338L171.546 245.327H171.529C170.964 245.327 170.503 245.782 170.492 246.347C170.48 246.919 170.94 247.392 171.511 247.397L172.367 247.409L172.58 247.413H172.583C174.668 247.446 176.686 247.479 178.612 247.479C185.282 247.479 190.891 247.094 194.433 245.087C195.068 244.726 195.546 244.259 195.907 243.705C196.268 244.259 196.746 244.732 197.381 245.087C200.922 247.094 206.532 247.479 213.202 247.479C215.14 247.479 217.165 247.447 219.252 247.412L219.447 247.409L220.303 247.397C220.874 247.386 221.328 246.919 221.322 246.347C221.311 245.782 220.85 245.327 220.285 245.327Z" fill="white"/>
<path d="M212.011 273.531C213.973 273.396 216.209 273.24 219.359 273.128L219.353 273.134C219.936 273.117 220.408 273.56 220.425 274.132C220.448 274.703 220 275.182 219.429 275.205C216.31 275.317 214.09 275.472 212.142 275.609H212.142L211.909 275.625C209.416 275.806 207.318 275.952 204.266 275.952C203.276 275.952 202.186 275.934 200.946 275.899C198.202 275.695 196.711 274.82 195.901 272.907C195.097 274.82 193.612 275.689 190.897 275.893C189.633 275.928 188.526 275.946 187.519 275.946C184.466 275.946 182.375 275.8 179.888 275.625C177.884 275.479 175.612 275.322 172.367 275.205C171.796 275.182 171.348 274.703 171.371 274.132C171.395 273.56 171.89 273.111 172.443 273.134C175.723 273.251 178.012 273.408 180.033 273.554L180.047 273.555C183.285 273.782 185.854 273.963 190.792 273.823C193.926 273.589 194.759 273.134 194.759 263.638C194.759 263.066 195.225 262.599 195.796 262.599C195.831 262.599 195.866 262.611 195.901 262.611L195.916 262.609L195.93 262.606C195.94 262.604 195.951 262.603 195.962 262.602C195.977 262.6 195.991 262.599 196.006 262.599C196.583 262.599 197.043 263.066 197.043 263.638C197.043 273.128 197.876 273.583 201.056 273.823C205.941 273.956 208.503 273.777 211.74 273.55L212.011 273.531Z" fill="white"/>
<path d="M214.728 276.768C211.122 276.698 201.989 277.585 198.703 278.332C197.352 278.641 196.478 279.37 195.907 280.332C195.336 279.37 194.462 278.641 193.111 278.332C189.831 277.585 180.686 276.698 177.086 276.768C176.515 276.78 176.061 277.252 176.072 277.824C176.084 278.396 176.567 278.857 177.127 278.839C180.575 278.763 189.546 279.644 192.651 280.35C194.311 280.729 194.759 282.345 194.87 284.824C194.841 285.565 194.841 286.306 194.841 287.017V287.472C194.841 288.044 195.307 288.511 195.878 288.511H195.948C196.519 288.511 196.985 288.044 196.985 287.472V287.017C196.985 286.312 196.985 285.571 196.956 284.824C197.066 282.345 197.515 280.729 199.175 280.356C202.286 279.65 211.286 278.763 214.699 278.845C215.241 278.857 215.742 278.402 215.753 277.83C215.765 277.258 215.311 276.786 214.74 276.774L214.728 276.768Z" fill="white"/>
<path fill-rule="evenodd" clip-rule="evenodd" d="M387.201 333.113C390.224 339.046 390.288 339.171 390.427 342.189L390.381 342.172C390.433 343.373 390.515 345.018 390.853 347.847C392.006 357.432 391.791 360.792 391.651 362.804V362.932C391.523 364.922 388.93 374.01 388.633 375.037C388.517 375.451 388.161 375.742 387.736 375.783C387.614 375.795 384.765 376.028 382.884 373.975C382.22 373.257 381.783 372.353 381.544 371.292C380.6 371.245 379.179 370.982 378.183 369.95C377.233 368.958 376.896 367.558 377.187 365.773C377.641 362.974 377.49 361.534 377.297 359.702V359.701C377.163 358.452 377.018 357.041 377.059 355.011C377.093 353.34 376.607 352.356 375.997 351.122L375.981 351.091C375.014 349.148 373.826 346.733 374.344 341.104C374.094 340.789 373.837 340.527 373.593 340.322C373.779 343.782 373.791 350.712 371.187 353.663C370.36 354.602 369.34 355.092 368.152 355.116C362.453 355.215 362.223 349.894 361.956 343.702L361.954 343.653C361.89 342.084 361.82 340.457 361.668 338.765C361.039 333.842 360.282 331.357 358.878 329.636C356.898 327.215 355.208 321.883 358.668 317.117C358.89 316.697 358.406 315.35 357.486 313.612C357.463 313.577 357.445 313.536 357.428 313.501C356.484 311.733 355.109 309.581 353.583 307.574C348.953 302.733 345.208 299.869 341.585 297.099L341.583 297.097L341.569 297.086C336.366 293.106 331.446 289.343 324.259 280.362C316.448 270.591 314.193 265.848 311.811 260.82L311.808 260.814C310.399 257.847 308.943 254.78 306.253 250.442C301.576 243.734 282.434 218.108 280.057 215.897C279.822 215.676 279.563 215.443 279.283 215.191C279.224 215.138 279.163 215.084 279.102 215.028L279.092 215.019C276.878 213.024 273.424 209.911 270.865 205.287C269.601 210.84 265.943 223.621 256.122 242.556C250.71 253.324 252.242 264.711 253.728 275.718L253.759 275.952C254.151 278.859 254.555 281.856 254.799 284.742C255.184 289.275 255.842 295.178 256.611 301.338C256.611 301.344 256.623 301.356 256.623 301.356V301.379C256.634 301.408 256.634 301.443 256.634 301.478C256.64 301.507 256.646 301.542 256.646 301.572V301.595C256.678 301.84 256.709 302.085 256.739 302.33C256.77 302.575 256.8 302.82 256.832 303.065C256.844 303.106 256.85 303.152 256.85 303.199C258.464 315.869 260.485 329.146 261.592 333.521C261.667 333.836 261.784 334.279 261.935 334.845C267.539 356.055 278.211 406.087 270.434 455.875C270.434 455.951 270.428 456.032 270.411 456.108C270.398 456.16 270.387 456.212 270.376 456.266C270.367 456.31 270.357 456.355 270.347 456.4C269.124 464.1 267.458 471.794 265.262 479.372C265.407 491.038 266.174 493.727 266.849 496.094L266.852 496.102C267.073 496.866 267.3 497.665 267.487 498.703C267.851 500.689 267.917 502.393 267.981 504.038L267.982 504.076C268.052 505.902 268.128 507.792 268.605 510.096C268.722 510.644 269.1 511.717 269.584 513.077L269.584 513.078C272.999 522.693 282.067 548.231 274.599 590.817C274.203 595.251 273.645 599.923 273.106 604.45L273.061 604.823C271.634 616.787 270.289 628.087 271.605 635.203C272.63 641.328 273.061 643.988 273.172 647.267C273.993 649.746 278.054 656.209 280.5 660.094L280.8 660.572C281.471 661.634 282.031 662.527 282.382 663.116C282.924 664.032 283.215 664.708 283.448 665.251C283.949 666.423 284.228 667.071 286.937 669.264C287.461 669.69 288.009 670.122 288.574 670.565L288.612 670.594C292.421 673.604 297.152 677.343 299.718 683.031C301.145 686.472 300.638 688.421 299.962 689.453C299.42 690.282 298.587 690.824 297.562 691.04C297.434 691.588 297.166 692.282 296.601 692.837C296.257 693.175 295.687 693.566 294.836 693.694C294.533 694.417 293.921 695.491 292.803 696.144C291.982 696.622 291.05 696.792 290.024 696.634C289.389 697.322 288.12 698.437 286.43 698.629C285.277 698.769 284.147 698.46 283.069 697.719C282.003 698.559 279.825 699.959 277.081 699.959C276.743 699.959 276.399 699.942 276.044 699.895C272.77 699.475 269.828 697.077 267.289 692.778C265.396 692.107 257.747 688.876 258.411 680.721C258.469 678.877 256.57 677.699 252.912 675.617L252.335 675.29C247.943 672.782 245.374 670.559 247.699 657.107C248.089 653.987 247.658 650.586 247.483 649.448C246.504 648.562 244.769 645.802 245.502 637.572C246.382 627.702 247.209 618.38 235.046 579.419C234.475 577.5 233.689 576.392 232.856 575.225C230.2 571.509 227.456 567.665 231.12 540.977C233.31 521.453 233.147 521.179 231.168 517.845L231.167 517.842L231.154 517.822C230.732 517.108 230.206 516.221 229.611 515.025C229.343 514.488 229.052 513.946 228.749 513.403L228.673 513.275C228.668 513.269 228.668 513.257 228.668 513.257C228.196 512.417 227.695 511.566 227.176 510.685L227.173 510.679C223.603 504.631 219.16 497.105 217.973 481.722C217.448 474.927 216.545 468.096 215.287 461.265C215.013 459.912 214.763 458.617 214.536 457.374C213.266 451.179 211.699 444.99 209.841 438.847C209.207 436.746 208.144 433.813 206.912 430.416L206.905 430.395C202.99 419.597 197.078 403.276 196.256 389.877C196.192 387.742 196.151 385.869 196.117 384.218L196.116 384.184C196.058 381.467 196.005 379.003 195.86 377.452C195.715 378.997 195.663 381.456 195.604 384.167L195.604 384.201C195.569 385.852 195.528 387.73 195.464 389.842C194.637 403.262 188.737 419.564 184.827 430.362L184.809 430.414C183.577 433.813 182.514 436.746 181.88 438.847C180.021 444.984 178.46 451.162 177.19 457.351C176.963 458.611 176.707 459.929 176.427 461.3C175.169 468.119 174.272 474.938 173.748 481.722C172.56 497.105 168.118 504.631 164.547 510.679L164.544 510.685C164.456 510.835 164.368 510.985 164.281 511.133C163.856 511.859 163.445 512.56 163.059 513.257C163.053 513.263 163.053 513.275 163.053 513.275L162.936 513.479C162.645 513.998 162.371 514.512 162.115 515.025C161.521 516.221 160.995 517.108 160.572 517.822L160.56 517.842C158.579 521.173 158.416 521.447 160.612 541.001C164.27 567.659 161.527 571.503 158.87 575.225L158.855 575.246C158.027 576.405 157.242 577.506 156.686 579.402C144.517 618.368 145.344 627.696 146.224 637.566C146.958 645.797 145.222 648.556 144.243 649.442C144.074 650.586 143.643 653.998 144.039 657.148C146.358 670.547 143.789 672.77 139.397 675.284L138.82 675.611C135.168 677.693 133.263 678.872 133.327 680.762C133.991 688.87 126.342 692.096 124.449 692.767C121.909 697.066 118.968 699.463 115.694 699.883C115.339 699.924 114.995 699.947 114.657 699.947C111.908 699.947 109.729 698.547 108.669 697.707C107.591 698.442 106.455 698.752 105.308 698.617C103.618 698.425 102.348 697.311 101.713 696.622C100.688 696.78 99.762 696.617 98.9348 696.132C97.8164 695.473 97.2048 694.406 96.9018 693.682C96.0514 693.554 95.4863 693.169 95.1368 692.825C94.5718 692.271 94.3038 691.582 94.1756 691.028C93.1504 690.818 92.3174 690.27 91.7757 689.442C91.1058 688.409 90.599 686.461 92.0087 683.048C94.5904 677.326 99.3315 673.581 103.15 670.571L103.17 670.553C103.735 670.11 104.282 669.678 104.807 669.252C107.506 667.065 107.787 666.417 108.291 665.251L108.296 665.239L108.318 665.187C108.547 664.656 108.831 663.991 109.362 663.104C109.77 662.422 110.44 661.354 111.243 660.077C113.69 656.192 117.756 649.734 118.572 647.255C118.682 643.982 119.113 641.317 120.139 635.209C121.455 628.075 120.109 616.776 118.682 604.812L118.622 604.304C118.087 599.812 117.537 595.192 117.133 590.718C109.682 548.222 118.746 522.678 122.16 513.065L122.203 512.944C122.666 511.642 123.031 510.616 123.138 510.084C123.616 507.78 123.692 505.89 123.762 504.064C123.826 502.407 123.896 500.692 124.257 498.692C124.443 497.653 124.671 496.86 124.892 496.09L124.895 496.079C125.57 493.713 126.337 491.026 126.482 479.36C124.28 471.782 122.62 464.088 121.397 456.388C121.373 456.295 121.356 456.196 121.333 456.097C121.309 456.021 121.309 455.939 121.309 455.863C113.533 406.082 124.21 356.043 129.808 334.833C129.954 334.267 130.07 333.824 130.152 333.509C131.259 329.134 133.28 315.863 134.894 303.193C134.894 303.141 134.9 303.094 134.911 303.042C134.975 302.552 135.039 302.062 135.098 301.577V301.554C135.098 301.525 135.109 301.49 135.109 301.461C135.115 301.432 135.115 301.397 135.127 301.362V301.338C135.133 301.327 135.133 301.321 135.133 301.315C135.901 295.155 136.56 289.252 136.944 284.725C137.201 281.762 137.614 278.682 138.016 275.701C139.501 264.693 141.033 253.307 135.616 242.527C125.801 223.597 122.142 210.822 120.878 205.269C118.315 209.907 114.855 213.022 112.642 215.011L112.52 215.12C112.221 215.389 111.938 215.644 111.686 215.88C109.309 218.091 90.1679 243.717 85.4612 250.472C82.8014 254.767 81.3451 257.834 79.9365 260.801L79.9331 260.808C77.5506 265.837 75.2962 270.585 67.4846 280.35C60.2963 289.339 55.374 293.102 50.1605 297.086L50.159 297.087C46.5362 299.857 42.791 302.721 38.1606 307.562C35.0791 311.605 32.6267 316.248 33.0985 317.141C36.5295 321.872 34.8461 327.203 32.8655 329.624C31.4616 331.345 30.7044 333.83 30.0752 338.794C29.9345 340.395 29.8645 341.969 29.7969 343.489L29.7898 343.647L29.7862 343.731C29.5199 349.908 29.2921 355.191 23.5918 355.11C22.4093 355.087 21.3841 354.597 20.5569 353.657C17.953 350.706 17.9647 343.776 18.1511 340.317C17.9064 340.527 17.6501 340.783 17.3996 341.098C17.9177 346.73 16.7254 349.139 15.7645 351.081L15.7627 351.085C15.1394 352.333 14.6501 353.319 14.6851 355.011C14.7248 356.991 14.5818 358.382 14.4558 359.607L14.4461 359.702C14.2539 361.534 14.1027 362.974 14.5569 365.773C14.8482 367.558 14.5103 368.964 13.5608 369.95C12.5647 370.982 11.1492 371.245 10.1997 371.292C9.96668 372.353 9.52396 373.252 8.86571 373.975C6.98418 376.028 4.12983 375.795 4.01332 375.783C3.58808 375.742 3.23275 375.445 3.11624 375.037C2.81916 374.01 0.221123 364.927 0.0871437 362.932V362.804L0.0870185 362.802C-0.0411508 360.795 -0.256168 357.429 0.891021 347.847C1.22832 345.071 1.30753 343.435 1.36542 342.239L1.36869 342.172C1.51414 339.148 1.57242 339.034 4.61949 333.059L4.63079 333.037L4.73565 332.832C8.71758 325.306 10.4829 319.744 12.1887 314.368L12.1919 314.358C13.7064 309.563 15.1453 305.042 18.0113 299.845C20.1064 295.326 22.5769 289.195 25.198 282.691L25.2928 282.456C31.7645 266.391 39.8208 246.406 47.8129 236.775C52.5306 231.094 55.9205 227.548 58.3962 224.958L58.3973 224.957C61.7818 221.422 63.4827 219.642 64.8109 216.428C76.5929 188.58 81.9113 182.982 84.7662 179.978L84.768 179.976L84.8256 179.914C85.167 179.551 85.4518 179.248 85.7 178.955C85.7058 178.943 85.7175 178.932 85.7291 178.92C86.201 178.342 86.5213 177.806 86.7835 176.96C90.0625 164.424 91.9364 159.804 93.1714 156.758L93.1854 156.724L93.197 156.695C93.7743 155.28 94.231 154.159 94.6417 152.687C98.0669 141.487 106.414 127.482 126.756 124.192L126.847 124.176C127.156 124.126 127.38 124.09 127.507 124.057C127.784 123.985 128.141 123.894 128.554 123.789C128.803 123.726 129.071 123.657 129.354 123.585L129.362 123.583C129.85 123.461 130.429 123.315 131.043 123.159C131.09 123.142 131.142 123.13 131.195 123.118C133.234 122.599 135.575 121.987 136.047 121.771C136.285 121.657 137.185 120.953 137.996 120.318L138.063 120.266C140.008 118.737 142.676 116.649 144.663 115.739C145.72 115.258 147.883 114.348 150.452 113.267C150.784 113.127 151.123 112.985 151.466 112.84L151.917 112.65C156.165 110.868 160.836 108.907 162.54 108.051C164.998 106.82 169.332 102.719 170.457 101.634C170.812 97.0369 170.976 82.0767 171.003 79.5742L171.004 79.4616C169.781 76.86 169.28 73.1908 169.093 71.3591C167.48 71.4875 166.158 71.1375 165.057 70.3033C162.767 68.565 161.468 64.6625 160.967 58.0241C160.624 53.4333 161.451 50.3125 163.426 48.755C164.119 48.2125 164.859 47.9383 165.534 47.8158C165.47 47.7283 165.412 47.6233 165.377 47.5125L165.371 47.4923C165.19 46.9235 162.612 38.7959 161.969 31.9375C161.358 25.3691 163.647 13.5858 168.062 10.1908C168.15 9.81163 168.225 9.09996 167.707 8.63913C167.008 8.0208 166.792 7.15163 167.125 6.31746C167.73 4.80663 169.967 3.82663 172.6 3.9083C172.804 3.91413 172.944 3.89663 173.014 3.88496C173.02 3.84281 173.027 3.79165 173.033 3.74049C173.038 3.69962 173.044 3.65874 173.049 3.62246L173.05 3.61486C173.108 3.12991 173.204 2.33041 173.957 1.77913C174.843 1.13746 176.322 1.0733 178.897 1.57496C180.213 1.63798 180.787 1.24538 181.397 0.828L181.431 0.804964C182.177 0.2858 183.109 -0.350034 184.786 0.221633C186.889 0.169133 203.06 -0.0583675 213.132 5.80996C223.157 11.6608 231.662 19.1683 225.627 46.3516C225.505 46.9116 224.951 47.2616 224.398 47.1391C224.485 47.4133 224.573 47.6175 224.642 47.7691C225.557 47.6641 227.054 47.7108 228.388 48.7608C230.363 50.3183 231.19 53.4333 230.846 58.03C230.345 64.6683 229.046 68.565 226.757 70.3091C225.656 71.1491 224.334 71.4933 222.72 71.365C222.534 73.1908 222.033 76.8658 220.809 79.4675L220.811 79.58C220.838 82.0825 221.002 97.0427 221.357 101.64C222.481 102.725 226.809 106.826 229.273 108.057C231.015 108.932 235.858 110.965 240.178 112.778L240.353 112.852C240.874 113.072 241.383 113.286 241.875 113.493C244.213 114.479 246.158 115.298 247.145 115.751C249.132 116.661 251.8 118.749 253.745 120.277C254.578 120.931 255.516 121.666 255.766 121.788C256.232 121.998 258.563 122.611 260.59 123.13H260.601C260.61 123.13 260.618 123.133 260.625 123.136C260.632 123.139 260.639 123.142 260.648 123.142C260.861 123.196 261.07 123.25 261.273 123.301C261.704 123.412 262.107 123.516 262.46 123.602C263.211 123.795 263.863 123.958 264.306 124.075C264.413 124.106 264.587 124.134 264.822 124.171C264.895 124.183 264.973 124.195 265.058 124.209C285.399 127.499 293.747 141.511 297.166 152.682C297.591 154.187 298.046 155.312 298.628 156.742C299.869 159.792 301.739 164.401 305.048 177.024C305.298 177.841 305.613 178.366 306.084 178.932C306.102 178.949 306.114 178.961 306.125 178.978C306.382 179.287 306.684 179.608 307.051 179.993L307.053 179.995C309.908 183 315.227 188.597 327.003 216.434C328.326 219.649 330.02 221.422 333.382 224.939L333.416 224.974C335.892 227.564 339.282 231.117 343.995 236.792C351.976 246.404 360.015 266.352 366.482 282.4L366.509 282.467C369.16 289.059 371.67 295.283 373.82 299.927C376.647 305.037 378.08 309.551 379.595 314.323L379.61 314.37C381.317 319.748 383.082 325.307 387.06 332.832L387.171 333.054L387.201 333.113ZM260.226 125.18L260.147 125.16H260.135C249.714 123.077 238.71 125.93 233.741 127.534C236.106 128.438 239.584 129.926 242.648 131.874C249.178 136.027 251.945 139.697 255.778 144.783L255.962 145.027C257.682 147.3 259.629 149.876 262.256 152.967L262.257 152.969C265.153 156.371 271.14 163.404 278.741 168.566C280.78 169.954 284.193 171.255 288.621 172.346C291.37 172.667 295.459 173.472 299.98 175.496C300.964 175.939 301.931 176.429 302.875 176.948C299.699 164.922 297.9 160.484 296.706 157.538L296.7 157.523C296.094 156.036 295.617 154.857 295.168 153.265C291.929 142.677 284.007 129.377 264.714 126.257L264.604 126.238C264.213 126.172 263.93 126.124 263.77 126.082C263.333 125.965 262.687 125.802 261.941 125.615C261.352 125.464 260.778 125.32 260.226 125.18ZM226.198 231.968C226.227 228.69 226.157 227.243 226.105 226.187L226.093 226.193L226.092 226.166C226.046 225.189 226.012 224.471 226.075 222.967C226.093 222.6 226.11 222.244 226.134 221.894C226.157 221.287 226.198 220.716 226.274 220.167C226.71 215.705 227.648 212.666 228.371 210.344C229.244 207.544 229.722 205.998 228.854 204.032C227.45 200.865 223.145 198.537 218.887 196.782C218.008 196.472 217.134 196.14 216.272 195.761C210.039 193.445 202.169 191.812 198.784 194.174C197.614 194.991 197.043 196.268 197.043 198.071C197.043 198.642 196.577 199.109 196.006 199.109C195.988 199.109 195.971 199.106 195.953 199.103C195.936 199.1 195.918 199.097 195.901 199.097C195.866 199.103 195.831 199.109 195.796 199.109C195.219 199.109 194.759 198.642 194.759 198.071C194.759 196.268 194.188 194.991 193.018 194.174C189.633 191.812 181.757 193.445 175.519 195.761C174.662 196.134 173.794 196.467 172.921 196.776C168.657 198.532 164.352 200.859 162.948 204.032C162.08 205.992 162.558 207.538 163.431 210.344C164.154 212.66 165.092 215.693 165.528 220.138C165.604 220.692 165.645 221.282 165.668 221.894C165.692 222.244 165.709 222.594 165.726 222.962C165.79 224.467 165.756 225.18 165.711 226.155L165.709 226.187C165.657 227.243 165.587 228.69 165.616 231.968C165.674 238.589 166.979 267.137 168.191 286.177C170.136 316.767 188.788 340.112 195.802 340.112C195.837 340.112 195.872 340.124 195.907 340.124C195.942 340.118 195.977 340.112 196.012 340.112C203.025 340.112 221.677 316.767 223.623 286.177C224.835 267.149 226.14 238.601 226.198 231.968ZM189.179 183.079C192.785 178.832 194.771 173.326 194.771 167.568V138.629C194.771 138.203 194.66 128.403 178.996 126.916C169.862 126.047 164.707 127.575 161.94 128.397C161.748 128.456 161.573 128.508 161.404 128.555C160.676 128.788 154.88 130.69 150.266 133.624C144.057 137.569 141.522 140.932 137.69 146.016L137.678 146.032C135.907 148.388 133.892 151.06 131.131 154.309L131.124 154.316C128.163 157.796 122.061 164.964 114.232 170.281C113.294 170.917 112.141 171.517 110.777 172.095C119.562 172.352 124.513 177.473 128.474 182.28C129.045 182.974 129.639 183.639 130.251 184.287C130.274 184.304 130.298 184.322 130.315 184.345L130.735 184.8C141.54 195.895 157.769 199.873 172.053 194.892C172.961 194.518 173.87 194.162 174.773 193.83C180.342 191.392 185.188 187.775 189.179 183.079ZM201.062 184.427C198.639 181.574 196.891 178.202 195.907 174.568L195.901 174.562C194.917 178.197 193.169 181.568 190.746 184.421C188.462 187.11 185.905 189.461 183.109 191.462C187.157 190.703 191.485 190.575 194.206 192.471C194.922 192.972 195.482 193.585 195.907 194.302C196.332 193.585 196.891 192.967 197.608 192.471C200.328 190.575 204.656 190.703 208.699 191.462C205.903 189.467 203.346 187.116 201.062 184.427ZM164.911 198.712C163.105 198.952 161.294 199.086 159.482 199.086L159.47 199.092C152.911 199.092 146.381 197.511 140.463 194.507C143.608 197.388 146.777 200.124 149.76 202.697C155.043 207.252 159.633 211.213 162.488 214.602C162.157 213.251 161.8 212.095 161.489 211.085L161.446 210.946C160.534 207.997 159.874 205.865 161.055 203.192C161.824 201.46 163.193 199.99 164.911 198.712ZM230.747 203.187C231.936 205.864 231.272 207.999 230.351 210.957H230.345L230.307 211.079C229.996 212.089 229.639 213.246 229.308 214.597C232.163 211.202 236.753 207.241 242.036 202.685C245.019 200.112 248.188 197.377 251.333 194.495C245.421 197.505 238.891 199.08 232.326 199.08C230.514 199.08 228.703 198.952 226.897 198.707C228.609 199.984 229.978 201.454 230.747 203.187ZM217.046 193.83C217.949 194.168 218.858 194.518 219.761 194.892C234.039 199.873 250.262 195.895 261.067 184.806C261.144 184.715 261.225 184.629 261.306 184.542C261.367 184.477 261.427 184.412 261.487 184.345C261.496 184.336 261.506 184.327 261.515 184.319C261.529 184.306 261.543 184.295 261.557 184.281C262.168 183.633 262.763 182.968 263.333 182.274C267.295 177.467 272.246 172.352 281.03 172.089C279.667 171.517 278.508 170.911 277.576 170.275C269.758 164.963 263.653 157.794 260.713 154.341L260.7 154.327C257.954 151.099 255.962 148.455 254.202 146.123L254.13 146.026C250.291 140.933 247.751 137.567 241.541 133.618C236.928 130.678 231.143 128.782 230.409 128.549C230.24 128.502 230.066 128.45 229.873 128.392C227.107 127.569 221.957 126.041 212.817 126.91C197.153 128.397 197.043 138.197 197.043 138.612V167.568C197.043 173.326 199.029 178.832 202.635 183.079C206.631 187.775 211.478 191.392 217.046 193.83ZM228.336 109.917C226.169 108.827 222.918 105.957 221.06 104.224V116.287C221.06 122.086 224.147 124.227 230.613 126.426C232.611 125.65 242.223 122.167 253.029 122.348C252.927 122.271 252.822 122.189 252.712 122.103C252.632 122.041 252.549 121.977 252.464 121.911L252.308 121.789C250.454 120.343 247.994 118.424 246.277 117.641C245.112 117.11 242.409 115.972 239.543 114.771C235.145 112.927 230.165 110.833 228.336 109.917ZM169.519 11.7016C165.948 14.0641 163.402 25.0016 164.031 31.7508V31.7566C164.492 36.6683 166.029 42.4141 166.839 45.2025C166.897 42.1866 166.932 37.8875 166.746 34.6616C166.484 30.1233 168.785 23.3683 172.501 20.93C174.307 19.7516 176.288 19.6525 178.239 20.6383C184.379 23.7475 201.336 22.3883 212.474 17.8908C213.703 17.5175 214.885 17.7275 215.975 18.4625C219.528 20.8658 222.004 28.84 222.609 35.4725C223.029 40.0516 223.454 42.98 223.821 44.8583C229.116 19.8858 221.643 13.195 212.078 7.61246C202.052 1.76163 184.827 2.30413 184.658 2.30996C184.507 2.3158 184.379 2.29246 184.251 2.23996C183.456 1.9321 183.256 2.06963 182.61 2.51429L182.593 2.52597C181.831 3.05047 180.788 3.76785 178.711 3.65163C178.664 3.65163 178.618 3.6458 178.571 3.63413C175.67 3.06246 175.192 3.44746 175.175 3.46496C175.149 3.51131 175.128 3.68493 175.111 3.82132C175.109 3.83943 175.107 3.85689 175.105 3.8733L175.103 3.89172C175.026 4.5553 174.85 6.07742 172.524 5.98496C170.258 5.89163 169.105 6.8133 169.041 7.1108C170.526 8.3883 170.282 10.2958 169.909 11.2233C169.827 11.4216 169.693 11.585 169.519 11.7016ZM169.833 69.1716C170.124 69.1133 170.427 69.1891 170.666 69.37L170.672 69.3758C170.911 69.5566 171.057 69.8366 171.074 70.1341C171.074 70.1925 171.418 75.6641 172.973 78.785C173.049 78.9308 173.084 79.0941 173.084 79.2575C173.084 79.2785 173.083 79.3164 173.083 79.3683C173.081 79.4879 173.078 79.6839 173.078 79.9399C174.965 82.7633 181.693 91.2158 195.895 93.765H195.918C210.132 91.2158 216.848 82.7691 218.736 79.9458C218.73 79.5725 218.73 79.3333 218.73 79.2575C218.73 79.0941 218.771 78.9308 218.841 78.785C220.396 75.6641 220.74 70.1866 220.74 70.1341C220.757 69.8366 220.903 69.5566 221.142 69.3758C221.375 69.1891 221.683 69.1191 221.975 69.1775C223.536 69.4866 224.625 69.3291 225.499 68.6641C227.264 67.3283 228.336 63.7991 228.778 57.8783C229.134 53.0891 228.074 51.17 227.118 50.4058C225.965 49.4797 224.538 49.8814 224.421 49.9143L224.415 49.9158C223.891 50.0733 223.343 49.7991 223.151 49.2975C222.353 48.2066 221.444 45.3658 220.553 35.6533C219.924 28.7175 217.402 21.9158 214.821 20.1716C214.239 19.775 213.714 19.67 213.167 19.8333C201.464 24.5641 184 25.865 177.313 22.4816C176.025 21.8283 174.825 21.8866 173.643 22.6625C170.655 24.6166 168.592 30.6541 168.814 34.5391C169.106 39.7307 168.855 47.6114 168.818 48.7599C168.816 48.8464 168.814 48.8947 168.814 48.9008C168.802 49.2158 168.645 49.49 168.418 49.6708C168.156 49.9216 167.765 50.0325 167.392 49.91C167.288 49.875 165.849 49.4725 164.69 50.4C163.734 51.1641 162.668 53.0833 163.029 57.8725C163.478 63.7933 164.55 67.3225 166.309 68.6583C167.189 69.3291 168.272 69.4866 169.833 69.1716ZM172.816 94.7974V116.293H172.822C172.822 120.353 171.365 122.955 169.128 124.804C171.82 124.53 175.128 124.46 179.194 124.845C190.216 125.889 194.357 130.97 195.907 134.662C197.462 130.976 201.598 125.895 212.625 124.845C216.691 124.46 220 124.53 222.691 124.804C220.454 122.955 218.998 120.353 218.998 116.293V94.7858C218.87 90.1308 218.794 84.7 218.759 81.6433C215.992 85.2775 209.066 92.4291 196.099 94.7566C196.07 94.7625 196.041 94.7625 196.012 94.7625C195.988 94.7625 195.965 94.7572 195.942 94.752C195.93 94.7496 195.918 94.7467 195.907 94.7449C195.895 94.7467 195.883 94.7496 195.872 94.752C195.849 94.7572 195.825 94.7625 195.802 94.7625C195.773 94.7625 195.744 94.7566 195.715 94.7566C186.546 93.1116 180.488 89.0574 177.016 85.9483C175.222 84.3383 173.928 82.8333 173.055 81.6724C173.014 84.7349 172.938 90.1541 172.816 94.7974ZM145.531 117.635C143.766 118.446 141.208 120.447 139.344 121.911L139.338 121.917C139.253 121.983 139.17 122.047 139.09 122.109C138.98 122.195 138.875 122.277 138.773 122.354C149.573 122.173 159.185 125.656 161.189 126.432C167.655 124.232 170.742 122.092 170.742 116.293V104.224C168.884 105.951 165.633 108.827 163.466 109.912C161.637 110.827 156.662 112.916 152.27 114.759C149.404 115.961 146.696 117.098 145.531 117.635ZM96.6339 153.282C96.197 154.852 95.7193 156.03 95.1135 157.517H95.1077C93.9077 160.469 92.1077 164.908 88.933 176.942C89.8767 176.423 90.8436 175.933 91.8281 175.49C96.3484 173.466 100.444 172.661 103.187 172.34C107.614 171.249 111.028 169.942 113.061 168.56C120.657 163.403 126.645 156.368 129.523 152.985C132.228 149.805 134.203 147.185 135.944 144.876L136.037 144.753C139.86 139.685 142.628 136.015 149.148 131.868C152.218 129.914 155.69 128.427 158.055 127.528C153.086 125.924 142.082 123.077 131.661 125.154L131.589 125.172C131.035 125.312 130.458 125.458 129.867 125.609C129.121 125.796 128.474 125.959 128.037 126.076C127.863 126.122 127.542 126.181 127.094 126.251C107.801 129.372 99.8785 142.672 96.6339 153.282ZM13.9284 350.191L13.9336 350.181H13.9278L13.9346 350.167C14.5036 349.022 15.123 347.775 15.3666 345.707C14.5511 347.433 13.7356 348.437 13.0366 349.294L13.0299 349.302C12.1712 350.36 11.55 351.125 11.1259 352.934C10.7414 355.6 10.3337 357.262 10.0308 358.476L10.0262 358.494C9.44136 360.871 9.24097 361.686 10.1939 366.975C10.3337 367.774 10.4094 368.521 10.421 369.215C11.0036 369.151 11.6735 368.964 12.0987 368.521C12.5705 368.025 12.722 367.22 12.5414 366.117C12.0404 363.043 12.221 361.322 12.4133 359.497C12.5472 358.254 12.6812 356.965 12.6404 355.069C12.594 352.876 13.2718 351.512 13.9284 350.191ZM28.0481 338.596C28.7354 333.171 29.615 330.4 31.2927 328.341L31.2985 328.335C32.8131 326.486 34.1878 322.134 31.4383 318.348C30.8849 317.526 31.0189 316.254 31.5141 314.825C30.1859 315.192 28.8811 315.373 27.6287 315.373C25.8986 315.373 24.2792 315.023 22.8695 314.323C20.1899 312.987 18.0986 310.345 16.9511 306.991C15.8823 309.649 15.063 312.228 14.219 314.884L14.1755 315.021C12.5233 320.23 10.6528 326.126 6.59389 333.801L6.49486 333.993C4.55313 337.801 3.54148 340.566 3.45993 342.288C3.40168 343.525 3.32013 345.211 2.97061 348.116C1.84053 357.507 2.05023 360.757 2.18421 362.693V362.822C2.26577 364.076 3.78614 369.752 4.9104 373.718C5.59195 373.648 6.64049 373.397 7.38029 372.581C8.33562 371.525 8.60358 369.763 8.16669 367.342C7.13563 361.602 7.39777 360.541 8.03271 357.974C8.34145 356.737 8.72008 355.197 9.11037 352.543C9.65794 350.175 10.5259 349.107 11.4463 347.982C12.4482 346.751 13.5841 345.351 14.6734 341.682C14.6908 341.629 14.7141 341.577 14.7373 341.525C16.3481 338.223 18.9602 337.541 19.1145 337.5L19.1181 337.499C19.4443 337.417 19.7879 337.505 20.0384 337.727C20.2947 337.948 20.4229 338.281 20.3879 338.613C20.085 341.524 19.8171 349.673 22.1413 352.304C22.584 352.806 23.0675 353.045 23.6675 353.057H23.7899C27.0403 353.057 27.4597 350.426 27.7568 343.577C27.8209 341.985 27.8908 340.34 28.0481 338.596ZM78.1377 259.862C79.5585 256.871 81.0363 253.762 83.766 249.363L83.7602 249.352C85.0476 247.502 87.4883 244.142 90.3893 240.205C86.0786 243.192 82.0709 244.393 78.6632 244.393C76.5603 244.393 74.6846 243.938 73.1176 243.162C68.4632 240.864 62.7779 234.366 67.2225 216.037C67.0536 216.428 66.8846 216.825 66.7157 217.227C65.2501 220.778 63.3581 222.759 59.9451 226.333L59.8268 226.456C57.3796 229.017 54.0301 232.523 49.4032 238.099C41.6281 247.476 33.6495 267.269 27.2332 283.187L27.2151 283.232C24.553 289.847 22.0365 296.094 19.8637 300.784C19.2812 301.846 18.7627 302.878 18.285 303.887C18.9549 307.825 21.0404 311.097 23.7782 312.462C26.1665 313.652 29.382 313.565 32.6616 312.241C33.9723 309.791 35.7373 307.376 36.5762 306.279C36.5995 306.25 36.6228 306.221 36.6519 306.192C41.3996 301.222 45.2199 298.301 48.9049 295.485L48.9314 295.464C54.0401 291.562 58.8633 287.869 65.9002 279.078C73.5638 269.502 75.7669 264.859 78.0964 259.949L78.0981 259.945L78.1377 259.862ZM120.372 201.647C120.453 201.448 120.593 201.285 120.762 201.174L120.75 201.168C121.263 199.517 121.671 197.832 121.95 196.134C122.603 192.097 124.338 181.352 118.513 176.604C115.242 173.934 110.696 174.067 105.883 174.206L105.873 174.207C104.475 174.242 101.411 174.469 97.5834 175.577C97.5764 175.58 97.5694 175.582 97.5624 175.584C97.5362 175.594 97.5123 175.602 97.4844 175.607C95.9815 176.044 94.3621 176.616 92.6727 177.374C90.7504 178.243 88.8922 179.276 87.1563 180.442C86.8825 180.757 86.5854 181.072 86.265 181.411L86.2534 181.423C84.5862 183.18 81.7389 186.181 76.77 195.597C61.6711 229.087 68.5739 238.612 74.038 241.307C79.1175 243.816 87.9776 242.299 97.6183 230.51C97.6224 230.502 97.6294 230.497 97.6352 230.492C97.6376 230.49 97.6399 230.488 97.6416 230.487C103.409 222.827 108.96 215.652 110.311 214.392C110.543 214.179 110.796 213.951 111.064 213.709C111.14 213.641 111.217 213.571 111.296 213.5L111.331 213.468C113.999 211.059 118.017 207.431 120.372 201.647ZM140.101 276.01C139.682 279.102 139.292 282.024 139.041 284.935V284.941C138.686 289.071 138.063 294.729 137.317 300.778C142.898 301.752 149.16 300.072 152.841 296.537C155.87 293.632 162.604 284.754 159.75 265.242C158.348 255.692 160.188 245.437 161.812 236.392L161.818 236.361C162.831 230.708 163.723 225.732 163.606 222.034C163.571 221.457 163.525 220.902 163.472 220.372C162.948 216.784 156.214 210.974 148.42 204.254C142.239 198.922 135.261 192.891 129.272 186.258C128.439 185.412 127.641 184.52 126.878 183.592C125.737 182.21 124.542 180.833 123.22 179.579C125.777 185.435 124.542 193.105 124.001 196.471V196.472C123.663 198.543 123.144 200.608 122.474 202.609C123.063 205.806 126.098 219.642 137.492 241.617C143.206 252.979 141.628 264.686 140.102 276.008L140.101 276.01ZM154.746 578.842C155.404 576.619 156.33 575.318 157.228 574.058L157.21 574.047C159.628 570.657 162.127 567.152 158.579 541.281C157.193 528.932 156.721 523.991 157.088 521.132C153.138 524.947 148.664 527.071 144.29 527.071H144.08C139.1 526.995 134.87 524.247 132.168 519.336C129.575 514.64 128.02 512.686 124.851 511.7C124.671 512.266 124.432 512.948 124.129 513.794L124.126 513.803C120.762 523.289 111.84 548.452 119.206 590.485C119.638 595.181 120.208 599.97 120.762 604.602L120.771 604.677C122.212 616.776 123.572 628.197 122.201 635.606C121.181 641.69 120.762 644.292 120.663 647.5C120.663 647.593 120.645 647.681 120.622 647.768C119.825 650.417 115.74 656.909 113.031 661.214L113.026 661.22L112.748 661.663C112.079 662.725 111.522 663.612 111.174 664.201C110.71 664.977 110.466 665.542 110.25 666.044L110.23 666.091C109.583 667.596 109.106 668.494 106.141 670.897C105.611 671.329 105.057 671.767 104.486 672.216L104.48 672.222C100.649 675.243 96.3065 678.662 93.9426 683.906C92.8359 686.589 93.2203 687.837 93.5465 688.339C93.9368 688.946 94.6358 689.08 95.1543 689.092C95.7252 689.103 96.1795 689.576 96.1679 690.147C96.1679 690.369 96.2552 691.034 96.6281 691.396C96.8611 691.617 97.1931 691.722 97.6533 691.699C98.1834 691.676 98.5795 692.014 98.696 692.487C98.696 692.498 99.0513 693.828 100.03 694.394C100.537 694.686 101.143 694.732 101.871 694.528C102.29 694.412 102.739 694.575 102.989 694.931L102.996 694.942C103.094 695.065 104.159 696.447 105.593 696.611C106.414 696.704 107.218 696.383 108.057 695.637C108.465 695.269 109.094 695.292 109.478 695.683C109.502 695.707 112.129 698.308 115.478 697.865C118.152 697.515 120.645 695.351 122.882 691.431C123.016 691.192 123.238 691.022 123.5 690.947C123.843 690.853 131.911 688.456 131.294 680.919C131.177 677.641 134.113 675.967 137.83 673.849L138.4 673.522C141.907 671.522 144.226 670.192 142.03 657.492C141.5 653.292 142.274 648.906 142.309 648.719C142.373 648.392 142.589 648.107 142.892 647.967C142.891 647.967 142.893 647.967 142.899 647.961C143.037 647.832 144.94 646.071 144.202 637.793C143.305 627.713 142.461 618.187 154.746 578.842ZM161.224 512.412C161.725 511.513 162.255 510.609 162.808 509.67H162.802C165.983 504.28 169.874 497.682 171.383 485.088C168.476 493.296 163.542 501.9 155.626 501.9H155.439C146.637 501.754 144.907 494.182 143.649 488.658L143.647 488.648C143.1 486.26 142.535 483.793 141.575 483.332C141.226 483.169 140.701 483.257 140.008 483.595C136.7 485.217 133.956 485.438 131.614 484.277C130.42 483.682 129.412 482.767 128.544 481.582C128.329 491.732 127.583 494.363 126.913 496.697V496.698C126.698 497.45 126.494 498.161 126.325 499.1C125.993 500.961 125.929 502.524 125.865 504.187C125.801 505.872 125.731 507.611 125.364 509.693C129.319 510.883 131.236 513.333 134.002 518.344C136.333 522.579 139.933 524.947 144.132 525.012C150.156 525.07 156.441 520.52 161.031 512.756C161.05 512.724 161.073 512.682 161.098 512.637C161.127 512.584 161.16 512.524 161.194 512.464L161.224 512.412ZM175.21 456.995C175.239 456.808 175.274 456.622 175.309 456.441L175.315 456.452C178.553 438.307 176.9 436.299 173.283 431.907L173.282 431.906L173.275 431.898C169.494 427.301 163.784 420.357 158.87 393.773C157.542 386.569 156.587 377.912 155.579 368.748V368.747C152.742 343.011 149.538 313.944 136.787 305.025C135.232 317.053 133.338 329.56 132.202 334.057L132.149 334.262C132.073 334.558 131.974 334.941 131.853 335.399C126.272 356.533 115.618 406.484 123.471 456.021C123.942 458.197 124.379 460.407 124.799 462.548L124.806 462.587C126.592 471.702 128.276 480.302 132.546 482.422C134.27 483.28 136.42 483.052 139.105 481.734C140.393 481.098 141.529 481.005 142.478 481.46C144.342 482.352 144.931 484.93 145.676 488.196V488.197V488.198C146.905 493.594 148.298 499.707 155.48 499.829H155.626C168.674 499.829 172.915 470.464 172.956 470.167C172.956 470.158 172.958 470.149 172.961 470.14C172.964 470.132 172.967 470.123 172.967 470.114C173.346 467.326 173.794 464.532 174.295 461.743C174.295 461.685 174.301 461.632 174.313 461.574C174.336 461.463 174.358 461.354 174.38 461.245C174.401 461.135 174.423 461.026 174.447 460.915C174.691 459.608 174.942 458.302 175.21 456.995ZM193.449 389.777C193.507 387.712 193.548 385.834 193.583 384.189H193.577L193.58 384.065C193.665 380.053 193.72 377.5 194.037 375.97C185.247 374.757 181.181 363.977 173.998 339.652C166.035 312.672 145.536 304.972 137.416 302.948C151.394 312.023 154.698 341.983 157.622 368.492L157.64 368.656C158.641 377.725 159.588 386.292 160.897 393.382C165.715 419.452 171.225 426.142 174.872 430.57C177.354 433.58 179.002 435.587 179.119 441.093C179.392 440.154 179.666 439.215 179.952 438.276C180.569 436.232 181.568 433.467 182.726 430.263L182.946 429.653C186.814 418.966 192.646 402.852 193.449 389.777ZM195.907 374.033C195.942 374.027 195.977 374.022 196.012 374.022C204.196 374.022 207.959 365.727 215.829 339.068C222.54 316.33 237.877 306.775 247.937 302.855C243.941 302.237 240.161 300.557 237.539 298.037C234.277 294.904 227.019 285.407 230.019 264.944C231.33 256.025 229.675 246.301 228.12 237.621C227.741 248.751 226.681 270.725 225.691 286.312C223.745 316.89 204.843 342.183 196.012 342.183C195.994 342.183 195.977 342.18 195.959 342.177C195.942 342.175 195.924 342.172 195.907 342.172C195.872 342.177 195.837 342.183 195.802 342.183C186.971 342.183 168.068 316.89 166.123 286.312C165.132 270.713 164.078 248.745 163.693 237.621C162.138 246.301 160.49 256.025 161.794 264.944C164.794 285.407 157.536 294.904 154.274 298.037C151.653 300.557 147.872 302.237 143.876 302.855C153.936 306.769 169.274 316.33 175.985 339.068C183.854 365.721 187.618 374.022 195.802 374.022C195.819 374.022 195.837 374.025 195.854 374.027C195.872 374.03 195.889 374.033 195.907 374.033ZM212.696 441.08C212.429 440.147 212.152 439.208 211.868 438.276C211.233 436.175 210.195 433.306 208.995 429.991L208.897 429.718C205.023 419.032 199.175 402.879 198.371 389.812C198.307 387.718 198.266 385.846 198.231 384.201L198.228 384.074C198.143 380.058 198.088 377.499 197.771 375.97C206.567 374.757 210.627 363.977 217.81 339.652C225.773 312.672 246.271 304.972 254.392 302.954C240.414 312.028 237.11 341.989 234.186 368.497L234.184 368.515L234.175 368.598C233.171 377.696 232.223 386.281 230.91 393.388C226.094 419.456 220.585 426.144 216.939 430.572L216.936 430.576C214.463 433.576 212.816 435.588 212.696 441.08ZM267.503 513.311C267.282 512.683 267.096 512.155 266.951 511.706L266.933 511.7C263.764 512.692 262.209 514.646 259.617 519.342C256.914 524.253 252.685 527.001 247.71 527.077H247.501C243.126 527.077 238.652 524.953 234.703 521.144C235.064 524.002 234.592 528.937 233.211 541.263C229.659 567.153 232.162 570.662 234.579 574.051L234.58 574.052L234.585 574.059C235.48 575.311 236.411 576.611 237.068 578.847C249.351 618.176 248.503 627.696 247.606 637.776L247.605 637.782C246.831 646.462 248.957 647.978 248.98 647.99C249.289 648.13 249.44 648.375 249.499 648.707L249.504 648.737C249.577 649.168 250.291 653.415 249.784 657.434C247.582 670.18 249.895 671.504 253.401 673.511L253.972 673.837C257.689 675.955 260.625 677.629 260.514 680.861C259.891 688.479 268.221 690.917 268.302 690.941C268.564 691.017 268.786 691.192 268.92 691.425C271.157 695.339 273.65 697.503 276.324 697.859C279.679 698.302 282.3 695.701 282.329 695.672C282.714 695.281 283.343 695.263 283.751 695.625C284.595 696.372 285.388 696.692 286.215 696.599C287.712 696.436 288.807 694.937 288.819 694.919C289.075 694.569 289.518 694.406 289.937 694.522C290.665 694.727 291.271 694.68 291.778 694.388C292.756 693.822 293.112 692.492 293.112 692.481C293.234 692.008 293.624 691.687 294.154 691.699C294.615 691.722 294.953 691.617 295.18 691.396C295.558 691.034 295.64 690.369 295.64 690.142C295.64 689.576 296.088 689.109 296.654 689.097C297.166 689.086 297.865 688.946 298.261 688.345C298.593 687.843 298.978 686.595 297.853 683.882C295.5 678.673 291.16 675.243 287.327 672.222C287.163 672.093 286.999 671.959 286.836 671.831C286.439 671.516 286.049 671.207 285.673 670.903C282.708 668.5 282.23 667.602 281.584 666.097C281.368 665.589 281.118 665.006 280.64 664.207C280.292 663.617 279.735 662.731 279.067 661.669L278.788 661.226C276.079 656.927 271.99 650.422 271.192 647.774C271.162 647.687 271.145 647.599 271.145 647.506C271.046 644.297 270.627 641.696 269.601 635.594C268.229 628.192 269.59 616.77 271.032 604.677L271.04 604.607C271.594 599.976 272.164 595.187 272.584 590.572C279.968 548.446 271.04 523.284 267.677 513.803L267.673 513.794C267.614 513.627 267.558 513.466 267.503 513.311ZM265.953 504.146C265.889 502.498 265.829 500.94 265.495 499.1C265.326 498.161 265.122 497.45 264.906 496.697L264.904 496.69C264.24 494.358 263.491 491.722 263.275 481.582C262.407 482.767 261.399 483.682 260.205 484.277C257.864 485.444 255.114 485.217 251.811 483.595C251.118 483.257 250.588 483.169 250.238 483.332C249.28 483.786 248.716 486.252 248.169 488.637L248.161 488.674C246.897 494.197 245.168 501.754 236.374 501.9H236.188C228.272 501.9 223.338 493.307 220.431 485.094C221.934 497.682 225.825 504.28 229.006 509.664L229.046 509.734C229.591 510.659 230.113 511.547 230.607 512.435L230.619 512.458C230.642 512.5 230.665 512.542 230.688 512.582C230.729 512.655 230.768 512.725 230.806 512.797C235.332 520.444 241.57 525.012 247.506 525.012H247.687C251.887 524.947 255.487 522.585 257.817 518.35C260.584 513.339 262.506 510.889 266.456 509.693C266.089 507.611 266.019 505.872 265.955 504.187L265.953 504.146ZM259.623 334.052C258.487 329.548 256.594 317.047 255.038 305.013L255.044 305.007C242.293 313.932 239.089 342.994 236.252 368.737C235.244 377.901 234.289 386.557 232.961 393.762C228.051 420.35 222.332 427.294 218.552 431.885L218.549 431.888L218.549 431.889C214.932 436.281 213.283 438.282 216.522 456.435L216.627 457.012C216.889 458.296 217.134 459.585 217.373 460.868L217.512 461.568C217.524 461.627 217.53 461.691 217.53 461.749C218.031 464.537 218.474 467.326 218.858 470.108C218.858 470.117 218.861 470.126 218.864 470.134C218.867 470.143 218.87 470.152 218.87 470.161C218.91 470.458 223.163 499.823 236.2 499.823H236.345C243.522 499.701 244.92 493.587 246.149 488.192V488.19C246.895 484.924 247.483 482.347 249.347 481.454C250.297 480.999 251.433 481.092 252.72 481.728C255.405 483.052 257.555 483.274 259.279 482.417C263.549 480.296 265.234 471.696 267.019 462.581L267.074 462.302C267.478 460.236 267.895 458.11 268.355 456.015C276.207 406.478 265.553 356.533 259.972 335.393C259.821 334.822 259.704 334.372 259.623 334.052ZM251.714 275.979C250.195 264.666 248.624 252.969 254.322 241.628V241.634C265.722 219.648 268.757 205.812 269.345 202.615C268.675 200.608 268.157 198.549 267.819 196.478V196.477C267.277 193.111 266.042 185.441 268.599 179.585C267.277 180.839 266.083 182.21 264.941 183.598C264.178 184.526 263.38 185.412 262.553 186.264C256.559 192.897 249.58 198.928 243.4 204.26L243.355 204.298C235.58 211.008 228.865 216.803 228.347 220.377C228.295 220.914 228.248 221.462 228.213 222.04C228.097 225.732 228.988 230.714 230.002 236.361C231.627 245.414 233.468 255.681 232.07 265.236C229.215 284.748 235.949 293.621 238.978 296.532C242.654 300.067 248.916 301.747 254.502 300.772C253.757 294.723 253.133 289.065 252.778 284.935C252.528 282.024 252.137 279.102 251.718 276.01L251.714 275.979ZM294.184 230.492L294.201 230.51C303.842 242.293 312.702 243.816 317.781 241.307C323.246 238.607 330.154 229.081 315.044 195.586C310.069 186.159 307.226 183.167 305.554 181.411C305.234 181.072 304.937 180.757 304.663 180.442C302.927 179.276 301.069 178.243 299.141 177.374C297.452 176.616 295.832 176.044 294.329 175.607C294.294 175.601 294.265 175.589 294.236 175.577C290.409 174.475 287.345 174.247 285.941 174.207H285.932C281.124 174.067 276.572 173.934 273.3 176.604C267.477 181.351 269.21 192.092 269.863 196.136L269.863 196.14C270.143 197.832 270.551 199.523 271.063 201.174C271.232 201.291 271.372 201.448 271.454 201.647C273.819 207.462 277.856 211.097 280.529 213.5C280.608 213.571 280.686 213.641 280.762 213.71C281.03 213.951 281.283 214.179 281.514 214.392C282.865 215.652 288.422 222.833 294.184 230.492ZM355.162 306.192C355.191 306.221 355.214 306.25 355.237 306.279H355.232C356.07 307.382 357.841 309.797 359.152 312.247C362.426 313.565 365.641 313.652 368.03 312.462C370.767 311.097 372.853 307.825 373.523 303.887C373.057 302.896 372.544 301.887 371.973 300.854C369.796 296.148 367.312 289.988 364.678 283.457L364.587 283.232C358.173 267.307 350.187 247.485 342.399 238.105C337.733 232.482 334.372 228.964 331.913 226.397L331.887 226.371C328.456 222.777 326.562 220.795 325.086 217.227C324.917 216.825 324.748 216.428 324.579 216.037C329.03 234.372 323.345 240.87 318.69 243.168C317.117 243.944 315.247 244.399 313.145 244.399C309.737 244.399 305.729 243.197 301.418 240.217C304.308 244.137 306.737 247.485 308.013 249.317C310.797 253.802 312.282 256.923 313.715 259.945L313.718 259.95C316.053 264.865 318.256 269.503 325.913 279.078C332.95 287.869 337.773 291.562 342.882 295.464C346.581 298.287 350.403 301.21 355.162 306.192ZM381.398 369.203C381.41 368.509 381.48 367.762 381.626 366.969H381.614C382.569 361.667 382.371 360.856 381.777 358.464L381.757 358.381C381.461 357.175 381.057 355.526 380.664 352.835C380.257 351.108 379.633 350.338 378.771 349.282C378.072 348.419 377.262 347.416 376.447 345.695C376.697 347.772 377.315 349.02 377.886 350.169L377.891 350.18C378.548 351.5 379.226 352.864 379.179 355.057C379.144 356.944 379.277 358.231 379.404 359.468L379.409 359.514C379.594 361.329 379.77 363.053 379.278 366.106C379.103 367.208 379.249 368.019 379.721 368.509C380.146 368.952 380.816 369.139 381.398 369.203ZM389.647 362.81V362.682L389.641 362.67C389.769 360.733 389.979 357.484 388.849 348.092C388.505 345.187 388.424 343.496 388.365 342.265C388.284 340.546 387.272 337.783 385.33 333.976L385.226 333.766C381.182 326.126 379.311 320.235 377.662 315.041L377.641 314.977C376.785 312.276 375.952 309.662 374.874 306.973C373.727 310.327 371.635 312.97 368.956 314.306C367.552 315.006 365.927 315.356 364.197 315.356C362.95 315.356 361.645 315.175 360.323 314.813C360.812 316.231 360.952 317.491 360.41 318.302C357.637 322.122 359.012 326.474 360.527 328.323C362.21 330.382 363.084 333.153 363.771 338.543C363.924 340.268 363.994 341.873 364.062 343.421L364.068 343.566C364.366 350.408 364.785 353.045 368.035 353.045H368.158C368.758 353.033 369.241 352.794 369.684 352.292C372.008 349.662 371.74 341.518 371.437 338.602C371.402 338.269 371.536 337.937 371.787 337.715C372.037 337.493 372.381 337.412 372.707 337.487C372.824 337.517 375.463 338.182 377.088 341.512C377.113 341.554 377.13 341.605 377.146 341.652L377.152 341.67C378.234 345.335 379.375 346.736 380.375 347.966L380.379 347.97L380.388 347.982C381.305 349.109 382.169 350.171 382.703 352.444C383.105 355.186 383.484 356.726 383.793 357.962C384.427 360.529 384.69 361.597 383.659 367.331C383.227 369.752 383.49 371.513 384.445 372.569C385.185 373.386 386.233 373.637 386.915 373.707C388.039 369.746 389.559 364.064 389.647 362.81Z" fill="white"/>
</g>
<defs>
<clipPath id="clip0_8_318">
<rect width="392.035" height="700" fill="white"/>
</clipPath>
</defs>
</svg>
