<svg width="514" height="476" viewBox="0 0 514 476" fill="none" xmlns="http://www.w3.org/2000/svg">
<g clip-path="url(#clip0_3_9)">
<path d="M185.059 46.2871L202.542 62.7677L194.52 74.068L176.657 55.986C175.882 55.9334 175.103 55.7691 174.339 55.4787C170.188 53.8992 168.103 49.2537 169.683 45.1027C171.262 40.9516 175.908 38.8669 180.059 40.4464C182.706 41.4537 184.507 43.7093 185.059 46.2871V46.2871Z" fill="#FFB6B6"/>
<path d="M127.755 460.909L140.367 460.908L146.366 412.262L127.752 412.263L127.755 460.909Z" fill="#FFB6B6"/>
<path d="M127.311 474.065L166.094 474.064V473.573C166.094 465.237 159.336 458.479 150.999 458.478H150.998L143.914 453.104L130.696 458.479L127.31 458.479L127.311 474.065H127.311H127.311Z" fill="#2F2E41"/>
<path d="M157.151 447.591L168.972 451.987L191.555 408.484L174.109 401.996L157.151 447.591Z" fill="#FFB6B6"/>
<path d="M152.148 459.767L188.499 473.287L188.67 472.827C191.576 465.013 187.598 456.323 179.784 453.416L179.784 453.416L175.017 445.909L160.755 446.339L157.582 445.159L152.148 459.767L152.148 459.767Z" fill="#2F2E41"/>
<path d="M181.037 209.099L206.633 354.672L182.637 445.056L160.241 436.257L163.44 429.059L158.641 419.46L165.84 371.469L165.851 340.798L145.843 279.486L140.244 380.268L149.043 430.658L147.386 445.056L121.047 448.255L124.247 437.857L107.449 387.466L110.649 377.868L88.2525 260.289L93.8516 222.696L181.037 209.099Z" fill="#2F2E41"/>
<path d="M105.45 65.5247H137.337L147.043 81.5218L157.441 79.1222L162.71 81.5218L186.237 86.3209L179.038 128.713L177.438 177.504L178.238 198.301C186.648 204.445 184.477 212.913 182.612 222.357C182.612 222.357 102.25 244.333 89.4524 237.314V228.245L97.0511 167.506L69.0557 98.7187C67.8273 89.3015 77.7765 86.7574 87.0527 84.7212L96.6512 81.5218L105.45 65.5247V65.5247Z" fill="#018749"/>
<path d="M179.038 91.9199L186.237 86.321L202.615 91.9199L196.635 82.3217V77.6957L187.036 75.123L186.237 67.9243L179.038 62.2781L190.826 48.6743L199.434 55.9296L204.634 55.9265L211.788 63.0811L237.439 98.1024C242.892 105.548 241.323 116.213 233.657 121.351C230.709 123.328 227.167 124.714 223.031 124.714H177.674L179.038 91.92H179.038L179.038 91.9199Z" fill="#018749"/>
<path d="M124.41 60.5211C137.646 60.5211 148.375 49.7919 148.375 36.5567C148.375 23.3216 137.646 12.5924 124.41 12.5924C111.175 12.5924 100.446 23.3216 100.446 36.5567C100.446 49.7919 111.175 60.5211 124.41 60.5211Z" fill="#FFB6B6"/>
<path d="M78.3447 250.928L77.7761 226.909L91.452 224.67L91.1496 250.086C91.6567 250.674 92.0881 251.344 92.4181 252.091C94.2129 256.153 92.3745 260.902 88.3119 262.697C84.2493 264.491 79.5008 262.653 77.7059 258.59C76.5613 256 76.8995 253.133 78.3447 250.928V250.928Z" fill="#FFB6B6"/>
<path d="M77.941 91.0432C72.5458 90.7339 68.1836 95.379 68.8312 100.744L55.7431 173.668L53.6617 178.05L56.0487 180.515L56.5506 186.166L76.478 238.795L101.38 239.716L92.1031 129.615L85.6544 96.9005C84.5138 93.5611 81.4641 91.2453 77.941 91.0433V91.0432H77.941Z" fill="#018749"/>
<path d="M103.211 238.998C103.45 256.29 96.0119 259.985 84.0139 256.366C73.8633 253.305 64.817 249.6 64.817 238.998C64.817 228.396 70.9874 212.717 84.0139 217.973C95.6691 211.575 109.058 226.739 103.211 238.998Z" fill="#FF6584"/>
<path d="M83.3228 218.404C81.7909 215.616 81.6857 212.21 83.1088 209.355C84.3765 206.812 86.8867 204.919 89.6536 204.324C91.1594 203.999 91.8028 206.312 90.2915 206.637C88.1419 207.1 86.8837 215.943 85.8529 217.897C84.744 219.999 84.2609 215.129 85.3947 217.193C86.1388 218.547 84.0673 219.76 83.3228 218.404H83.3228Z" fill="#3F3D56"/>
<path d="M199.195 30.2361C199.195 40.838 191.996 51.2226 179.998 47.6043C169.848 44.5432 156.912 45.8122 166.968 27.9342C153.56 21.23 166.972 3.95514 179.998 9.21131C191.653 2.81248 199.195 19.6341 199.195 30.2361Z" fill="#FF6584"/>
<path d="M179.307 9.64222C174.638 10.7347 177.038 11.2049 179.093 5.06275C179.995 2.36821 182.871 0.626622 185.638 0.0310516C187.144 -0.293064 187.787 2.01959 186.276 2.3449C184.126 2.80758 182.28 4.15717 181.249 6.11085C180.14 8.21262 180.245 6.36735 181.379 8.43111C182.123 9.78534 180.052 10.9975 179.307 9.64222H179.307Z" fill="#3F3D56"/>
<path d="M65.098 456.174C62.7895 456.319 61.5137 453.451 63.2602 451.779L63.434 451.089C63.4111 451.033 63.3881 450.978 63.3649 450.923C61.0304 445.356 53.1185 445.395 50.8039 450.97C48.7495 455.918 46.1339 460.874 45.4898 466.105C45.2011 468.415 45.331 470.768 45.8435 473.034C41.0297 462.519 38.4964 451.036 38.4964 439.489C38.4964 436.588 38.6553 433.687 38.98 430.793C39.2471 428.426 39.6151 426.073 40.0915 423.742C42.6679 411.141 48.2468 399.139 56.2938 389.115C60.1622 387 63.3882 383.695 65.3368 379.733C66.0368 378.304 66.5853 376.767 66.8452 375.201C66.4049 375.258 65.1852 368.554 65.5172 368.143C64.9037 367.212 63.8056 366.749 63.1356 365.84C59.8032 361.322 55.2119 362.111 52.8151 368.251C47.695 370.835 47.6454 375.12 50.7871 379.242C52.7859 381.864 53.0605 385.413 54.8143 388.22C54.6338 388.451 54.4462 388.675 54.2658 388.906C50.9571 393.149 48.0954 397.711 45.683 402.503C46.3648 397.177 45.3582 390.761 43.6422 386.625C41.6888 381.913 38.0274 377.944 34.8031 373.87C30.9303 368.977 22.9886 371.113 22.3062 377.316C22.2996 377.376 22.2932 377.436 22.2869 377.496C22.7658 377.766 23.235 378.053 23.6933 378.356C26.3074 380.085 25.404 384.137 22.3065 384.615L22.2364 384.626C22.4096 386.351 22.7055 388.061 23.1385 389.743C19.0021 405.739 27.9322 411.565 40.6832 411.827C40.9647 411.971 41.239 412.115 41.5204 412.253C40.2285 415.89 39.1965 419.621 38.4315 423.403C37.7459 426.744 37.2695 430.122 37.0025 433.514C36.6705 437.793 36.6994 442.095 37.0603 446.367L37.0386 446.215C36.1221 441.51 33.5672 437.115 29.8576 434.069C24.3314 429.53 16.524 427.858 10.5622 424.209C7.69235 422.453 4.01488 424.723 4.51574 428.05L4.54012 428.209C5.42781 428.57 6.29383 428.989 7.13103 429.458C7.60994 429.728 8.07911 430.015 8.53742 430.318C11.1515 432.047 10.2481 436.099 7.15066 436.577L7.08046 436.588C7.02996 436.595 6.98664 436.603 6.9362 436.61C8.459 440.225 10.5808 443.581 13.2367 446.475C15.823 460.439 26.9314 461.764 38.814 457.698H38.8212C40.1203 463.356 42.0184 468.884 44.4578 474.152H64.5934C64.6656 473.929 64.7306 473.698 64.7955 473.474C62.9335 473.589 61.0571 473.481 59.2239 473.142C60.7179 471.309 62.2117 469.461 63.7057 467.628C63.7418 467.592 63.7707 467.556 63.7995 467.52C64.5573 466.582 65.3223 465.651 66.0801 464.713L66.0805 464.711C66.128 461.831 65.7827 458.961 65.0986 456.175L65.098 456.175V456.174V456.174Z" fill="#50C878"/>
<path d="M459.248 474.324C459.248 475.254 458.305 476 457.131 476H6.58631C5.41238 476 4.46957 475.254 4.46957 474.324C4.46957 473.394 5.41238 472.648 6.58631 472.648H457.131C458.305 472.648 459.248 473.394 459.248 474.324Z" fill="#CCCCCC"/>
<path d="M400.026 43.0188C400.026 42.0944 399.224 41.3427 398.238 41.3427H370.527C369.541 41.3427 368.739 42.0944 368.739 43.0188C368.739 43.9431 369.541 44.6948 370.527 44.6948H398.238C399.224 44.6948 400.026 43.9431 400.026 43.0188Z" fill="#F2F2F2"/>
<path d="M445.839 43.5775C445.839 42.345 445.037 41.3427 444.051 41.3427H416.34C415.354 41.3427 414.552 42.345 414.552 43.5775C414.552 44.8099 415.354 45.8122 416.34 45.8122H444.051C445.037 45.8122 445.839 44.8099 445.839 43.5775Z" fill="#F2F2F2"/>
<path d="M490.535 44.1361C490.535 43.2118 489.733 42.4601 488.747 42.4601H461.036C460.05 42.4601 459.248 43.2118 459.248 44.1361C459.248 45.0605 460.05 45.8122 461.036 45.8122H488.747C489.733 45.8122 490.535 45.0605 490.535 44.1361Z" fill="#F2F2F2"/>
<path d="M445.839 83.2441C445.839 82.3198 445.037 81.5681 444.051 81.5681H416.34C415.354 81.5681 414.552 82.3198 414.552 83.2441C414.552 84.1685 415.354 84.9202 416.34 84.9202H444.051C445.037 84.9202 445.839 84.1685 445.839 83.2441Z" fill="#F2F2F2"/>
<path d="M355.33 83.2441C355.33 82.3198 354.529 81.5681 353.543 81.5681H325.831C324.845 81.5681 324.043 82.3198 324.043 83.2441C324.043 84.1685 324.845 84.9202 325.831 84.9202H353.543C354.529 84.9202 355.33 84.1685 355.33 83.2441Z" fill="#F2F2F2"/>
<path d="M400.026 83.2441C400.026 82.3198 399.224 81.5681 398.238 81.5681H370.527C369.541 81.5681 368.739 82.3198 368.739 83.2441C368.739 84.1685 369.541 84.9202 370.527 84.9202H398.238C399.224 84.9202 400.026 84.1685 400.026 83.2441Z" fill="#F2F2F2"/>
<path d="M445.839 124.587C445.839 123.662 445.037 122.911 444.051 122.911H416.34C415.354 122.911 414.552 123.662 414.552 124.587C414.552 125.511 415.354 126.263 416.34 126.263H444.051C445.037 126.263 445.839 125.511 445.839 124.587Z" fill="#F2F2F2"/>
<path d="M490.535 124.587C490.535 123.662 489.733 122.911 488.747 122.911H461.036C460.05 122.911 459.248 123.662 459.248 124.587C459.248 125.511 460.05 126.263 461.036 126.263H488.747C489.733 126.263 490.535 125.511 490.535 124.587Z" fill="#F2F2F2"/>
<path d="M309.517 124.028C309.517 122.796 308.716 121.793 307.73 121.793H280.018C279.032 121.793 278.23 122.796 278.23 124.028C278.23 125.261 279.032 126.263 280.018 126.263H307.73C308.716 126.263 309.517 125.261 309.517 124.028Z" fill="#F2F2F2"/>
<path d="M355.33 124.587C355.33 123.662 354.529 122.911 353.543 122.911H325.831C324.845 122.911 324.043 123.662 324.043 124.587C324.043 125.511 324.845 126.263 325.831 126.263H353.543C354.529 126.263 355.33 125.511 355.33 124.587Z" fill="#F2F2F2"/>
<path d="M400.026 124.587C400.026 123.662 399.224 122.911 398.238 122.911H370.527C369.541 122.911 368.739 123.662 368.739 124.587C368.739 125.511 369.541 126.263 370.527 126.263H398.238C399.224 126.263 400.026 125.511 400.026 124.587Z" fill="#F2F2F2"/>
<path d="M384.74 34.8267C390.847 34.8267 395.797 29.9805 395.797 24.0025C395.797 18.0244 390.847 13.1783 384.74 13.1783C378.633 13.1783 373.683 18.0244 373.683 24.0025C373.683 29.9805 378.633 34.8267 384.74 34.8267Z" fill="#F2F2F2"/>
<path d="M383.925 28.4717L383.9 28.4713C383.606 28.4631 383.335 28.3097 383.177 28.0615L379.429 22.1839C379.165 21.7707 379.287 21.2222 379.7 20.9589C380.113 20.6968 380.661 20.8168 380.925 21.23L383.969 26.0034L389.688 18.0469C389.975 17.6488 390.53 17.5592 390.926 17.8442C391.324 18.1301 391.415 18.6846 391.129 19.0823L384.645 28.1022C384.478 28.3344 384.21 28.4717 383.925 28.4717V28.4717Z" fill="white"/>
<path d="M431.761 34.8267C437.868 34.8267 442.819 29.9805 442.819 24.0025C442.819 18.0244 437.868 13.1783 431.761 13.1783C425.655 13.1783 420.704 18.0244 420.704 24.0025C420.704 29.9805 425.655 34.8267 431.761 34.8267Z" fill="#F2F2F2"/>
<path d="M430.946 28.4717L430.922 28.4713C430.627 28.4631 430.356 28.3097 430.198 28.0615L426.45 22.1839C426.187 21.7707 426.308 21.2222 426.721 20.9589C427.134 20.6968 427.683 20.8168 427.946 21.23L430.99 26.0034L436.71 18.0469C436.996 17.6488 437.551 17.5592 437.948 17.8442C438.346 18.1301 438.436 18.6846 438.15 19.0823L431.667 28.1022C431.5 28.3344 431.231 28.4717 430.946 28.4717V28.4717Z" fill="white"/>
<path d="M475.234 33.9395C481.341 33.9395 486.291 29.0933 486.291 23.1153C486.291 17.1372 481.341 12.2911 475.234 12.2911C469.127 12.2911 464.177 17.1372 464.177 23.1153C464.177 29.0933 469.127 33.9395 475.234 33.9395Z" fill="#F2F2F2"/>
<path d="M474.419 27.5846L474.394 27.5841C474.1 27.5759 473.829 27.4225 473.671 27.1743L469.923 21.2968C469.659 20.8835 469.781 20.3351 470.194 20.0717C470.607 19.8096 471.155 19.9296 471.419 20.3429L474.463 25.1162L480.182 17.1598C480.469 16.7617 481.024 16.672 481.42 16.957C481.818 17.2429 481.909 17.7974 481.623 18.1951L475.139 27.215C474.972 27.4472 474.704 27.5845 474.419 27.5845V27.5846Z" fill="white"/>
<path d="M490.535 81.0094C490.535 80.085 489.733 79.3333 488.747 79.3333H461.036C460.05 79.3333 459.248 80.085 459.248 81.0094C459.248 81.9338 460.05 82.6855 461.036 82.6855H488.747C489.733 82.6855 490.535 81.9338 490.535 81.0094Z" fill="#F2F2F2"/>
<path d="M475.234 71.2011C481.341 71.2011 486.291 66.3549 486.291 60.3768C486.291 54.3988 481.341 49.5526 475.234 49.5526C469.127 49.5526 464.177 54.3988 464.177 60.3768C464.177 66.3549 469.127 71.2011 475.234 71.2011Z" fill="#F2F2F2"/>
<path d="M474.419 64.8461L474.394 64.8457C474.1 64.8375 473.829 64.6841 473.671 64.4359L469.923 58.5583C469.659 58.1451 469.781 57.5966 470.194 57.3333C470.607 57.0712 471.155 57.1912 471.419 57.6044L474.463 62.3778L480.182 54.4213C480.469 54.0232 481.024 53.9336 481.42 54.2186C481.818 54.5045 481.909 55.059 481.623 55.4567L475.139 64.4766C474.972 64.7088 474.704 64.8461 474.419 64.8461V64.8461Z" fill="white"/>
<path d="M429.987 77.4113C436.094 77.4113 441.044 72.5652 441.044 66.5871C441.044 60.6091 436.094 55.7629 429.987 55.7629C423.88 55.7629 418.93 60.6091 418.93 66.5871C418.93 72.5652 423.88 77.4113 429.987 77.4113Z" fill="#F2F2F2"/>
<path d="M429.172 71.0564L429.147 71.056C428.853 71.0477 428.582 70.8944 428.424 70.6462L424.676 64.7686C424.412 64.3553 424.534 63.8069 424.947 63.5435C425.36 63.2814 425.908 63.4014 426.172 63.8147L429.216 68.5881L434.935 60.6316C435.222 60.2335 435.777 60.1438 436.173 60.4289C436.571 60.7148 436.662 61.2693 436.376 61.6669L429.892 70.6869C429.725 70.9191 429.457 71.0564 429.172 71.0564V71.0564Z" fill="white"/>
<path d="M385.627 77.4113C391.734 77.4113 396.684 72.5652 396.684 66.5871C396.684 60.6091 391.734 55.7629 385.627 55.7629C379.52 55.7629 374.57 60.6091 374.57 66.5871C374.57 72.5652 379.52 77.4113 385.627 77.4113Z" fill="#F2F2F2"/>
<path d="M384.812 71.0564L384.787 71.056C384.493 71.0477 384.222 70.8944 384.064 70.6462L380.316 64.7686C380.052 64.3553 380.174 63.8069 380.587 63.5435C381 63.2814 381.548 63.4014 381.812 63.8147L384.856 68.5881L390.575 60.6316C390.862 60.2335 391.417 60.1438 391.813 60.4289C392.212 60.7148 392.302 61.2693 392.016 61.6669L385.532 70.6869C385.366 70.9191 385.097 71.0564 384.812 71.0564V71.0564Z" fill="white"/>
<path d="M339.493 77.4113C345.6 77.4113 350.55 72.5652 350.55 66.5871C350.55 60.6091 345.6 55.7629 339.493 55.7629C333.386 55.7629 328.436 60.6091 328.436 66.5871C328.436 72.5652 333.386 77.4113 339.493 77.4113Z" fill="#F2F2F2"/>
<path d="M338.678 71.0564L338.653 71.056C338.359 71.0477 338.088 70.8944 337.93 70.6462L334.182 64.7686C333.918 64.3553 334.04 63.8069 334.453 63.5435C334.866 63.2814 335.414 63.4014 335.678 63.8147L338.722 68.5881L344.441 60.6316C344.728 60.2335 345.283 60.1438 345.679 60.4289C346.077 60.7148 346.168 61.2693 345.882 61.6669L339.398 70.6869C339.231 70.9191 338.963 71.0564 338.678 71.0564V71.0564Z" fill="white"/>
<path d="M334.1 83.2441C334.1 81.0873 332.41 79.3333 330.333 79.3333H271.941C269.863 79.3333 268.174 81.0873 268.174 83.2441C268.174 85.401 269.863 87.1549 271.941 87.1549H330.333C332.41 87.1549 334.1 85.401 334.1 83.2441Z" fill="#3F3D56"/>
<path d="M301.596 69.9716C314.554 69.9716 325.059 59.6885 325.059 47.0037C325.059 34.3189 314.554 24.0358 301.596 24.0358C288.638 24.0358 278.133 34.3189 278.133 47.0037C278.133 59.6885 288.638 69.9716 301.596 69.9716Z" fill="#018749"/>
<path d="M299.866 56.487C299.849 56.487 299.832 56.487 299.814 56.4861C299.19 56.4686 298.615 56.1432 298.279 55.6165L290.326 43.1449C289.767 42.268 290.024 41.1043 290.901 40.5454C291.777 39.9893 292.941 40.2439 293.501 41.1208L299.959 51.2494L312.096 34.3666C312.704 33.5219 313.882 33.3316 314.723 33.9364C315.567 34.5431 315.76 35.7196 315.153 36.5635L301.395 55.7029C301.041 56.1956 300.471 56.487 299.866 56.487V56.487Z" fill="white"/>
<path d="M144.427 17.3471C145.879 18.0622 147.242 18.9561 148.472 19.9841C148.829 20.2858 145.443 20.6881 145.779 21.0009C143.376 24.867 153.388 29.7052 149.131 29.9399C148.282 28.1297 135.175 23.8949 133.756 22.4982C133.957 24.1072 139.264 26.1073 139.074 27.7051C134.303 27.4034 123.666 25.6157 117.844 23.2357C121.351 30.225 121.378 35.7185 113.374 37.7615H113.374C107.384 37.7615 103.202 43.6956 105.217 49.3365L106.67 53.4047L101.083 47.8178C98.7595 45.4943 94.2594 39.9975 92.7783 34.1288C91.7146 29.9141 92.5811 25.4978 94.7951 21.7569C94.8769 21.6187 94.951 21.4854 95.0156 21.3585C93.753 21.9395 92.4344 22.3864 91.0824 22.6881C91.0265 20.2522 100.48 15.7381 101.083 14.2967C103.888 7.58127 99.798 7.59245 111.14 7.59245C112.117 6.94066 114.081 8.05414 116.727 7.59245C121.594 6.74281 123.607 3.42096 129.65 4.6911C134.866 5.7872 139.941 7.39493 143.877 9.03501L145.779 9.8272C146.93 11.6708 147.399 13.3916 147.332 14.9559C147.231 14.9336 147.12 14.9112 147.019 14.9C145.041 14.6207 146.371 16.9225 144.427 17.3471L144.427 17.3471Z" fill="#2F2E41"/>
<path d="M288.846 149.728C276.83 149.728 267.057 159.501 267.057 171.516C267.053 174.592 267.704 177.633 268.967 180.438C272.382 188.017 280.006 193.305 288.846 193.305C294.624 193.302 300.164 191.005 304.249 186.92C308.335 182.834 310.632 177.294 310.635 171.516C310.635 159.501 300.859 149.728 288.846 149.728ZM306.873 180.276C305.228 183.657 302.665 186.508 299.478 188.504C296.29 190.499 292.606 191.559 288.846 191.562C280.351 191.562 273.074 186.251 270.161 178.775C269.258 176.461 268.797 174 268.8 171.516C268.8 160.463 277.792 151.471 288.846 151.471C299.899 151.471 308.892 160.463 308.892 171.516C308.895 174.552 308.205 177.548 306.873 180.276Z" fill="#E6E6E6"/>
<path d="M288.678 193.305C284.641 193.302 280.686 192.165 277.272 190.025C273.857 187.885 271.122 184.829 269.381 181.211C269.312 181.067 269.282 180.907 269.294 180.748C269.306 180.588 269.36 180.435 269.451 180.303L269.462 180.286C269.552 180.156 269.676 180.052 269.82 179.984C269.963 179.916 270.123 179.887 270.281 179.9C270.44 179.912 270.592 179.966 270.723 180.056C270.855 180.145 270.96 180.268 271.028 180.41C274.262 187.139 281.19 191.486 288.678 191.486C292.1 191.477 295.461 190.58 298.426 188.884C301.391 187.188 303.858 184.751 305.582 181.816C305.662 181.678 305.778 181.563 305.917 181.484C306.056 181.405 306.214 181.364 306.374 181.365C306.533 181.364 306.688 181.406 306.825 181.485C306.962 181.565 307.076 181.679 307.153 181.816L307.163 181.834C307.242 181.972 307.283 182.129 307.283 182.288C307.282 182.447 307.239 182.603 307.159 182.741C305.272 185.948 302.575 188.61 299.333 190.463C296.092 192.317 292.419 193.296 288.678 193.305Z" fill="#1CAC78"/>
<path d="M283.959 173.432C284.528 173.428 285.081 173.639 285.523 174.03C285.966 174.42 286.27 174.966 286.383 175.573C286.497 176.181 286.414 176.813 286.148 177.361C285.882 177.909 285.449 178.34 284.924 178.579C284.399 178.818 283.814 178.852 283.268 178.674C282.723 178.496 282.251 178.117 281.934 177.602C281.616 177.087 281.473 176.469 281.528 175.851C281.582 175.234 281.832 174.657 282.234 174.218C282.46 173.969 282.728 173.772 283.024 173.637C283.32 173.502 283.638 173.432 283.959 173.432ZM283.959 172.291C283.268 172.291 282.593 172.513 282.019 172.931C281.444 173.348 280.996 173.942 280.732 174.637C280.467 175.331 280.398 176.096 280.532 176.834C280.666 177.572 280.999 178.249 281.487 178.781C281.975 179.314 282.597 179.676 283.274 179.823C283.951 179.97 284.653 179.895 285.291 179.608C285.93 179.321 286.475 178.833 286.859 178.208C287.243 177.583 287.448 176.848 287.449 176.096C287.449 175.087 287.082 174.12 286.427 173.406C285.773 172.693 284.885 172.292 283.959 172.291H283.959ZM291.234 166.853C291.55 166.854 291.853 166.719 292.078 166.477C292.302 166.235 292.429 165.906 292.431 165.562C292.431 165.558 292.431 165.553 292.431 165.549C292.432 165.381 292.403 165.213 292.345 165.057C292.288 164.901 292.202 164.758 292.094 164.638C291.985 164.518 291.856 164.422 291.714 164.356C291.572 164.29 291.419 164.255 291.264 164.254C291.256 164.254 291.249 164.254 291.241 164.254C290.925 164.25 290.62 164.384 290.394 164.626C290.169 164.867 290.04 165.196 290.037 165.541C290.034 165.885 290.157 166.217 290.378 166.463C290.6 166.709 290.902 166.849 291.219 166.853C291.224 166.853 291.229 166.853 291.234 166.853ZM293.736 173.432C294.306 173.428 294.859 173.639 295.301 174.03C295.743 174.42 296.047 174.966 296.161 175.573C296.275 176.181 296.192 176.813 295.926 177.361C295.659 177.909 295.227 178.34 294.702 178.579C294.176 178.819 293.591 178.852 293.046 178.674C292.501 178.496 292.029 178.117 291.711 177.602C291.394 177.087 291.25 176.469 291.305 175.851C291.36 175.234 291.61 174.657 292.012 174.218C292.237 173.969 292.506 173.772 292.802 173.637C293.098 173.502 293.415 173.432 293.736 173.432ZM293.736 172.291C293.046 172.291 292.371 172.514 291.797 172.932C291.224 173.349 290.776 173.943 290.512 174.637C290.248 175.332 290.179 176.096 290.313 176.833C290.448 177.571 290.781 178.248 291.269 178.779C291.757 179.311 292.378 179.673 293.055 179.82C293.732 179.966 294.434 179.891 295.072 179.603C295.709 179.316 296.254 178.828 296.638 178.203C297.021 177.578 297.226 176.844 297.226 176.092C297.226 175.593 297.136 175.098 296.96 174.637C296.785 174.176 296.528 173.757 296.204 173.404C295.88 173.051 295.495 172.771 295.072 172.58C294.648 172.389 294.195 172.291 293.736 172.291Z" fill="#E6E6E6"/>
<path d="M293.314 169.521H291.639L290.609 167.123C290.525 166.955 290.409 166.811 290.269 166.703C290.129 166.594 289.969 166.525 289.802 166.499C289.634 166.474 289.464 166.493 289.304 166.555C289.144 166.618 288.999 166.722 288.88 166.859L286.377 169.617C286.172 169.856 286.056 170.176 286.052 170.511C286.052 171.205 286.492 171.453 286.698 171.592C288.287 172.638 288.845 172.754 288.845 173.276V175.906C288.845 176.075 288.904 176.238 289.009 176.358C289.114 176.477 289.256 176.545 289.404 176.545C289.552 176.545 289.694 176.477 289.799 176.358C289.904 176.238 289.963 176.075 289.963 175.906V172.315C289.963 171.788 288.901 171.357 288.276 170.798L289.984 168.743C290.636 169.88 290.937 170.798 291.31 170.798H293.314C293.463 170.798 293.605 170.731 293.71 170.612C293.815 170.492 293.874 170.33 293.874 170.161C293.874 169.991 293.816 169.829 293.711 169.709C293.606 169.589 293.464 169.521 293.316 169.521H293.314V169.521Z" fill="#E6E6E6"/>
<path d="M361.414 165.371C360.553 165.371 359.84 167.99 359.702 171.423H343.137C342.999 167.99 342.286 165.371 341.425 165.371C340.465 165.371 339.687 168.623 339.687 172.634C339.687 176.645 340.465 179.897 341.425 179.897C342.286 179.897 342.999 177.278 343.137 173.844H359.702C359.84 177.278 360.553 179.897 361.414 179.897C362.374 179.897 363.152 176.645 363.152 172.634C363.152 168.623 362.374 165.371 361.414 165.371Z" fill="#E6E6E6"/>
<path d="M369.401 161.731C366.885 157.221 362.811 153.783 357.942 152.061C353.073 150.338 347.744 150.449 342.951 152.373C338.159 154.298 334.232 157.902 331.906 162.513C329.58 167.124 329.014 172.425 330.315 177.422C331.616 182.42 334.694 186.772 338.972 189.664C343.251 192.556 348.437 193.789 353.56 193.133C358.682 192.476 363.39 189.975 366.801 186.098C370.212 182.22 372.093 177.233 372.091 172.068C372.09 168.45 371.164 164.891 369.401 161.731ZM350.854 191.604C345.707 191.578 340.78 189.511 337.155 185.858C333.529 182.204 331.5 177.262 331.514 172.115C331.527 166.967 333.581 162.036 337.226 158.401C340.87 154.766 345.807 152.725 350.955 152.725C356.102 152.726 361.039 154.767 364.683 158.403C368.327 162.038 370.381 166.97 370.393 172.117C370.406 177.264 368.377 182.206 364.751 185.86C361.125 189.513 356.198 191.579 351.05 191.604C350.985 191.605 350.92 191.605 350.854 191.604Z" fill="#E6E6E6"/>
<path d="M351.277 194.423C347.329 194.424 343.462 193.259 340.129 191.063C339.962 190.953 339.834 190.791 339.762 190.6L339.752 190.572C339.679 190.383 339.667 190.175 339.718 189.978C339.768 189.782 339.878 189.607 340.031 189.48C340.179 189.351 340.363 189.275 340.556 189.262C340.749 189.25 340.941 189.303 341.103 189.412C344.646 191.752 348.837 192.805 353.019 192.405C357.201 192.004 361.136 190.173 364.206 187.199C367.276 184.226 369.307 180.278 369.981 175.976C370.654 171.674 369.931 167.261 367.926 163.432C367.832 163.256 367.795 163.054 367.82 162.855C367.845 162.656 367.931 162.47 368.066 162.326C368.199 162.176 368.374 162.074 368.567 162.036C368.76 161.997 368.959 162.024 369.136 162.112L369.162 162.125C369.339 162.211 369.486 162.354 369.58 162.532C371.297 165.822 372.16 169.518 372.087 173.258C372.014 176.999 371.006 180.656 369.161 183.87C367.317 187.085 364.7 189.748 361.567 191.597C358.434 193.447 354.891 194.421 351.286 194.423H351.277Z" fill="#1CAC78"/>
<path d="M412.322 151.962C409.534 151.961 406.773 152.509 404.197 153.575C401.621 154.642 399.28 156.205 397.308 158.176C395.336 160.147 393.772 162.487 392.705 165.063C391.637 167.639 391.087 170.4 391.087 173.189C391.086 175.977 391.635 178.738 392.702 181.315C393.768 183.891 395.332 186.232 397.303 188.204C399.274 190.175 401.614 191.74 404.19 192.807C406.766 193.874 409.526 194.423 412.314 194.423H412.322C412.459 194.423 412.594 194.423 412.732 194.417C418.325 194.309 423.649 191.997 427.547 187.984C431.444 183.971 433.601 178.581 433.547 172.987C433.493 167.392 431.233 162.045 427.258 158.108C423.283 154.171 417.916 151.962 412.322 151.962V151.962ZM416.648 192.238C413.969 192.846 411.191 192.882 408.497 192.344C405.803 191.805 403.253 190.704 401.013 189.113C398.774 187.521 396.895 185.475 395.5 183.107C394.105 180.74 393.226 178.105 392.919 175.374C392.612 172.643 392.884 169.878 393.718 167.26C394.553 164.642 395.93 162.229 397.76 160.18C399.59 158.131 401.832 156.49 404.34 155.367C406.847 154.243 409.563 153.662 412.31 153.66H412.322C417.124 153.66 421.758 155.429 425.338 158.631C428.918 161.832 431.193 166.241 431.728 171.014C432.264 175.788 431.022 180.591 428.24 184.506C425.458 188.421 421.331 191.174 416.648 192.238Z" fill="#E6E6E6"/>
<path d="M411.985 195.54C406.828 195.54 401.853 193.581 398.017 190.041C394.181 186.501 391.755 181.629 391.206 176.362C390.657 171.096 392.023 165.807 395.042 161.513C398.062 157.219 402.52 154.223 407.561 153.102C407.685 153.074 407.813 153.073 407.937 153.097L407.981 153.105C408.19 153.147 408.379 153.261 408.515 153.429C408.652 153.597 408.728 153.808 408.73 154.027C408.733 154.246 408.661 154.459 408.529 154.63C408.396 154.801 408.21 154.92 408.002 154.967C403.407 155.978 399.339 158.7 396.582 162.608C393.825 166.516 392.573 171.333 393.068 176.132C393.563 180.932 395.77 185.373 399.263 188.601C402.756 191.829 407.289 193.615 411.988 193.616C412.172 193.614 412.351 193.613 412.532 193.608C412.734 193.599 412.933 193.664 413.094 193.791C413.254 193.917 413.366 194.098 413.41 194.301C413.458 194.498 413.436 194.705 413.35 194.886C413.263 195.068 413.117 195.212 412.936 195.294V195.294C412.814 195.352 412.691 195.408 412.567 195.464C412.463 195.511 412.351 195.536 412.237 195.539C412.154 195.54 412.07 195.54 411.985 195.54Z" fill="#1CAC78"/>
<path d="M422.23 172.943C421.678 172.915 421.133 173.072 420.677 173.391C420.222 173.711 419.88 174.174 419.705 174.711H417.668L416.18 170.122C416.125 169.95 416.018 169.801 415.875 169.695C415.733 169.588 415.561 169.531 415.384 169.531H415.368C415.189 169.534 415.016 169.596 414.874 169.709C414.733 169.821 414.631 169.978 414.583 170.155L412.252 178.499L409.513 161.622C409.481 161.427 409.385 161.249 409.24 161.117C409.095 160.986 408.911 160.91 408.718 160.902C408.525 160.894 408.336 160.954 408.181 161.072C408.026 161.191 407.916 161.36 407.868 161.552L405.092 174.711H401.981C401.759 174.711 401.546 174.802 401.389 174.963C401.232 175.124 401.143 175.343 401.143 175.571C401.143 175.799 401.232 176.017 401.389 176.179C401.546 176.34 401.759 176.43 401.981 176.43H405.752C405.939 176.431 406.12 176.367 406.268 176.249C406.415 176.131 406.519 175.966 406.564 175.78L408.523 165.99L411.21 182.534C411.241 182.727 411.335 182.903 411.477 183.033C411.619 183.163 411.8 183.239 411.99 183.249H412.037C412.22 183.249 412.397 183.188 412.542 183.075C412.688 182.963 412.793 182.805 412.844 182.626L415.447 173.298L416.269 175.839C416.325 176.011 416.432 176.16 416.575 176.266C416.718 176.372 416.889 176.429 417.065 176.43H419.742C419.902 176.865 420.173 177.247 420.528 177.537C420.882 177.826 421.306 178.012 421.755 178.075C422.204 178.138 422.661 178.075 423.077 177.893C423.494 177.712 423.856 177.418 424.123 177.043C424.391 176.668 424.555 176.225 424.597 175.763C424.64 175.3 424.56 174.834 424.366 174.414C424.172 173.994 423.871 173.636 423.495 173.377C423.119 173.118 422.682 172.968 422.23 172.943H422.23Z" fill="#E6E6E6"/>
<path d="M406.73 453.127C406.735 454.857 406.556 456.583 406.194 458.276C406.127 458.595 406.054 458.94 405.98 459.212C404.077 466.769 398.711 472.296 392.306 472.648C392.091 472.648 391.877 472.648 391.636 472.648C384.862 472.648 379.134 466.862 377.244 458.893C377.191 458.681 377.144 458.468 377.097 458.23C376.736 456.537 376.556 454.811 376.561 453.081C376.561 442.285 383.308 433.54 391.636 433.54C399.964 433.54 406.73 442.345 406.73 453.127Z" fill="#3F3D56"/>
<path opacity="0.1" d="M406.73 452.656C406.735 454.347 406.556 456.034 406.194 457.689C406.127 458.001 406.053 458.338 405.979 458.604C405.751 458.604 405.53 458.604 405.309 458.604C403.648 458.517 401.998 458.3 400.373 457.955C398.934 458.385 397.464 458.711 395.974 458.928C394.832 459.094 393.682 459.198 392.527 459.239H391.361C389.979 459.24 388.599 459.151 387.23 458.973C385.016 458.687 382.841 458.165 380.745 457.417C379.598 457.786 378.429 458.089 377.245 458.325C377.191 458.117 377.144 457.91 377.098 457.676C376.736 456.021 376.556 454.334 376.561 452.643C376.561 442.089 383.314 433.54 391.649 433.54C399.984 433.54 406.73 442.115 406.73 452.656Z" fill="black"/>
<path d="M439.134 415.649C439.14 410.825 438.004 406.067 435.818 401.761L417.912 407.31L433.633 398.101C430.997 394.305 427.539 391.148 423.515 388.862C419.49 386.576 415.002 385.22 410.381 384.894C409.644 383.783 408.837 382.72 407.965 381.712L382.249 389.687L403.343 377.336C399.308 374.253 394.572 372.207 389.555 371.38C384.538 370.554 379.393 370.971 374.576 372.596C369.76 374.221 365.419 377.003 361.938 380.697C358.457 384.39 355.943 388.881 354.619 393.772L376.646 419.04L352.751 401.815C346.692 406.09 342.377 412.392 340.594 419.572C338.81 426.751 339.676 434.331 343.034 440.928C346.392 447.524 352.018 452.699 358.886 455.507C365.755 458.316 373.408 458.572 380.449 456.228C386.819 458.554 393.776 458.743 400.264 456.767C404.786 457.764 409.476 457.737 413.987 456.687C418.497 455.638 422.714 453.594 426.327 450.705C429.939 447.816 432.854 444.157 434.858 439.996C436.861 435.835 437.902 431.28 437.903 426.665C437.903 425.991 437.903 425.317 437.835 424.643C438.712 421.725 439.15 418.695 439.134 415.649Z" fill="#50C878"/>
<path opacity="0.8" d="M438.017 421.591C428.62 419.813 418.983 419.69 409.544 421.229C398.857 422.992 387.936 426.865 377.485 424.03C371.352 422.368 366.053 418.522 360.06 416.39C354.28 414.375 348.052 414.002 342.071 415.312C339.79 420.745 339.128 426.718 340.162 432.516C341.197 438.315 343.886 443.694 347.907 448.01C351.928 452.327 357.111 455.398 362.836 456.857C368.562 458.317 374.589 458.102 380.195 456.239C386.525 458.551 393.439 458.739 399.886 456.775C404.381 457.766 409.041 457.739 413.524 456.696C418.007 455.653 422.197 453.621 425.787 450.749C429.377 447.877 432.274 444.24 434.265 440.104C436.256 435.968 437.29 431.439 437.291 426.852C437.291 426.182 437.291 425.512 437.224 424.841C437.548 423.773 437.813 422.688 438.017 421.591Z" fill="#1CAC78"/>
</g>
<defs>
<clipPath id="clip0_3_9">
<rect width="514" height="476" fill="white"/>
</clipPath>
</defs>
</svg>
